<svg width="16" height="16" viewBox="0 0 16 16" fill="none" xmlns="http://www.w3.org/2000/svg">
<path d="M11.8089 3.95007C12.0516 3.95007 12.2483 3.74011 12.2483 3.48132V0.46875C12.2483 0.209839 12.0516 0 11.8089 0H8.51376C6.97385 0 5.72083 1.33643 5.72083 2.97913V6.02502H3.90088C3.65815 6.02502 3.46143 6.23486 3.46143 6.49377V9.50623C3.46143 9.76514 3.65815 9.97498 3.90088 9.97498H5.72083V15.5312C5.72083 15.7902 5.91756 16 6.16029 16H8.98457C9.2273 16 9.42403 15.7902 9.42403 15.5312V9.97498H11.244C11.4535 9.97498 11.6339 9.81726 11.675 9.59814L12.2397 6.58569C12.2656 6.448 12.2322 6.30518 12.1488 6.19653C12.0652 6.08801 11.9406 6.02502 11.8089 6.02502H9.42403V3.95007H11.8089Z" fill="white"/>
</svg>
