<svg width="17" height="16" viewBox="0 0 17 16" fill="none" xmlns="http://www.w3.org/2000/svg">
<g clip-path="url(#clip0)">
<path d="M16.1089 1.58948C15.9134 1.35046 15.6207 1.21875 15.2846 1.21875C15.1017 1.21875 14.9083 1.25732 14.7093 1.33325L1.16552 6.50328C0.446772 6.77757 0.34997 7.18919 0.356196 7.41026C0.362421 7.6312 0.482416 8.03672 1.21557 8.26987C1.21996 8.27134 1.22436 8.27256 1.22875 8.2739L3.12816 8.81736L12.3786 4.09142C12.6091 3.9735 12.8915 4.06505 13.0093 4.29564C13.1019 4.4768 13.0648 4.68969 12.9329 4.82982L12.9333 4.83019L7.79001 10.2951L7.64328 10.8897L9.47994 12.3687L12.0251 14.4182C12.0273 14.4199 12.0295 14.4217 12.0318 14.4234C12.3118 14.6407 12.6177 14.7554 12.9165 14.7556C13.5002 14.7556 13.9649 14.3236 14.1003 13.6551L16.3194 2.69763C16.4084 2.25793 16.3337 1.86426 16.1089 1.58948Z" fill="white"/>
<path d="M6.90955 9.95129C6.92822 9.87549 6.96582 9.80322 7.02307 9.74231L10.3979 6.15625L4.13538 9.35571L5.55737 13.4225C5.63843 13.6542 5.75903 13.8514 5.9082 14.0059L6.9093 9.95117L6.90955 9.95129Z" fill="white"/>
<path d="M6.78098 14.3818C7.11899 14.379 7.45114 14.2365 7.74216 13.9685L8.78256 13.0105L7.39536 11.8936L6.78098 14.3818Z" fill="white"/>
</g>
<defs>
<clipPath id="clip0">
<rect width="16" height="16" fill="white" transform="translate(0.355957)"/>
</clipPath>
</defs>
</svg>
