<svg width="40" height="41" viewBox="0 0 40 41" fill="none" xmlns="http://www.w3.org/2000/svg">
<path d="M39.7975 31.8388C39.7975 31.8247 39.7961 31.8107 39.7954 31.7966C39.7943 31.7772 39.7931 31.7579 39.7908 31.7388C39.7903 31.7349 39.7903 31.731 39.7899 31.7269L37.2911 12.9866V3.64773C37.2903 2.89999 36.9929 2.1831 36.4642 1.65437C35.9354 1.12563 35.2185 0.828222 34.4708 0.827393H5.64066C4.89291 0.828222 4.17603 1.12563 3.6473 1.65437C3.11856 2.1831 2.82115 2.89999 2.82032 3.64773V12.9866L0.32158 31.7269C0.32111 31.7309 0.321189 31.7347 0.32064 31.7388C0.318368 31.7579 0.317193 31.7772 0.316096 31.7966C0.315313 31.8107 0.314138 31.8247 0.313981 31.8388C0.313981 31.843 0.313355 31.8467 0.313355 31.8511V39.372C0.313335 39.521 0.348737 39.6679 0.41664 39.8005C0.484543 39.9332 0.583003 40.0478 0.703901 40.1349C0.824798 40.222 0.96467 40.2791 1.11198 40.3015C1.2593 40.324 1.40983 40.3111 1.55117 40.2639L5.16645 39.0586H34.945L38.5607 40.2639C38.702 40.311 38.8525 40.3238 38.9997 40.3014C39.147 40.2789 39.2868 40.2218 39.4077 40.1347C39.5285 40.0476 39.6269 39.933 39.6948 39.8004C39.7627 39.6678 39.7981 39.521 39.7981 39.372V31.8511C39.7981 31.847 39.7975 31.8433 39.7975 31.8388ZM4.5835 13.989H6.58077V16.8093C6.58144 17.3909 6.81276 17.9485 7.224 18.3597C7.63523 18.7709 8.1928 19.0022 8.77437 19.0029H16.2953C16.8768 19.0022 17.4344 18.7709 17.8456 18.3597C18.2569 17.9485 18.4882 17.3909 18.4889 16.8093V15.2425H18.8022C19.2507 15.2428 19.6885 15.1049 20.0557 14.8475C20.423 15.1049 20.8607 15.2428 21.3092 15.2425H21.6226V16.8093C21.6232 17.3909 21.8546 17.9485 22.2658 18.3597C22.677 18.7709 23.2346 19.0022 23.8162 19.0029H31.3371C31.9187 19.0022 32.4762 18.7709 32.8875 18.3597C33.2987 17.9485 33.53 17.3909 33.5307 16.8093V13.989H35.5279L36.3418 20.0929H3.7696L4.5835 13.989ZM19.1156 13.0489C19.1156 13.132 19.0826 13.2117 19.0238 13.2704C18.9651 13.3292 18.8854 13.3622 18.8022 13.3622H18.4889V11.7954C18.4882 11.2138 18.2569 10.6562 17.8456 10.245C17.4344 9.83377 16.8768 9.60244 16.2953 9.60178H10.968V8.03492C10.968 7.95181 11.001 7.87211 11.0598 7.81334C11.1185 7.75457 11.1982 7.72155 11.2813 7.72155H18.8022C18.8854 7.72155 18.9651 7.75457 19.0238 7.81334C19.0826 7.87211 19.1156 7.95181 19.1156 8.03492V13.0489ZM16.2953 11.482C16.3784 11.482 16.4581 11.515 16.5169 11.5738C16.5756 11.6326 16.6086 11.7123 16.6086 11.7954V16.8093C16.6086 16.8924 16.5756 16.9721 16.5169 17.0309C16.4581 17.0897 16.3784 17.1227 16.2953 17.1227H8.77437C8.69126 17.1227 8.61155 17.0897 8.55278 17.0309C8.49401 16.9721 8.461 16.8924 8.461 16.8093V11.7954C8.461 11.7123 8.49401 11.6326 8.55278 11.5738C8.61155 11.515 8.69126 11.482 8.77437 11.482H16.2953ZM31.6504 16.8093C31.6504 16.8924 31.6174 16.9721 31.5587 17.0309C31.4999 17.0897 31.4202 17.1227 31.3371 17.1227H23.8162C23.7331 17.1227 23.6534 17.0897 23.5946 17.0309C23.5358 16.9721 23.5028 16.8924 23.5028 16.8093V11.7954C23.5028 11.7123 23.5358 11.6326 23.5946 11.5738C23.6534 11.515 23.7331 11.482 23.8162 11.482H31.3371C31.4202 11.482 31.4999 11.515 31.5587 11.5738C31.6174 11.6326 31.6504 11.7123 31.6504 11.7954V16.8093ZM29.1435 9.60178H23.8162C23.2346 9.60244 22.677 9.83377 22.2658 10.245C21.8546 10.6562 21.6232 11.2138 21.6226 11.7954V13.3622H21.3092C21.2261 13.3622 21.1464 13.3292 21.0876 13.2704C21.0289 13.2117 20.9958 13.132 20.9958 13.0489V8.03492C20.9958 7.95181 21.0289 7.87211 21.0876 7.81334C21.1464 7.75457 21.2261 7.72155 21.3092 7.72155H28.8301C28.9132 7.72155 28.9929 7.75457 29.0517 7.81334C29.1105 7.87211 29.1435 7.95181 29.1435 8.03492V9.60178ZM36.5925 21.9731L36.8423 23.8465H3.26915L3.5189 21.9731H36.5925ZM3.01845 25.7267H37.093L37.7842 30.911H2.32723L3.01845 25.7267ZM4.70055 3.64773C4.70082 3.39848 4.79995 3.15952 4.9762 2.98327C5.15245 2.80702 5.39141 2.70789 5.64066 2.70762H34.4708C34.72 2.70789 34.959 2.80702 35.1353 2.98327C35.3115 3.15952 35.4106 3.39848 35.4109 3.64773V12.1087H33.5307V11.7954C33.53 11.2138 33.2987 10.6562 32.8875 10.245C32.4762 9.83377 31.9187 9.60244 31.3371 9.60178H31.0237V8.03492C31.023 7.45335 30.7917 6.89579 30.3805 6.48455C29.9692 6.07331 29.4117 5.84199 28.8301 5.84133H21.3092C20.8607 5.84096 20.423 5.9789 20.0557 6.23633C19.6885 5.9789 19.2507 5.84096 18.8022 5.84133H11.2813C10.6998 5.84199 10.1422 6.07331 9.73096 6.48455C9.31973 6.89579 9.0884 7.45335 9.08774 8.03492V9.60178H8.77437C8.1928 9.60244 7.63523 9.83377 7.224 10.245C6.81276 10.6562 6.58144 11.2138 6.58077 11.7954V12.1087H4.70055V3.64773ZM37.9179 38.0677L35.3952 37.2267C35.2992 37.1947 35.1987 37.1784 35.0975 37.1784H5.01392C4.91273 37.1784 4.81221 37.1947 4.71622 37.2267L2.19358 38.0677V32.7912H37.9179V38.0677Z" fill="none"/>
</svg>
