<svg width="18" height="20" viewBox="0 0 18 20" fill="none" xmlns="http://www.w3.org/2000/svg">
<circle cx="11.1428" cy="9.79834" r="0.670869" fill="#45505A"/>
<path d="M1.30691 8.94058C1.15541 9.52754 1.07483 10.143 1.07483 10.7773C1.07483 13.0447 2.10462 15.0716 3.72201 16.4158M15.4989 8.94058C15.6504 9.52754 15.731 10.143 15.731 10.7773C15.731 13.0447 14.7012 15.0716 13.0838 16.4158" stroke="#45505A"/>
<circle cx="5.70972" cy="9.82974" r="0.670869" fill="#45505A"/>
<path d="M4.60657 6.40176C3.70408 6.99386 1.69408 8.67585 1.25941 9.08703C0.907034 5.14085 3.76212 1.2652 8.37663 1.2652C12.5899 1.2652 15.7947 5.47394 15.5565 8.99476L12.5109 5.90833V6.99386L10.3541 6.40176L10.0531 8.03006L6.24114 4.92148C6.05723 5.28332 4.9194 6.19652 4.60657 6.40176Z" stroke="#45505A" stroke-linecap="round" stroke-linejoin="round"/>
<path d="M9.65629 12.378C9.23998 12.3176 8.80418 12.2812 8.47524 12.2689L8.44831 12.2706L8.42138 12.2689C8.09244 12.2812 7.65664 12.3176 7.24033 12.378C6.8099 12.4404 6.44622 12.5223 6.23905 12.6099C6.16985 12.6391 6.06027 12.7257 5.90574 12.9357C5.75579 13.1395 5.60601 13.3986 5.42847 13.7072L5.42568 13.712C5.29631 13.9369 5.15467 14.183 4.99983 14.4231C4.61791 15.0152 3.8963 15.683 3.40129 16.0983C3.82532 16.5637 4.38048 17.1593 4.90512 17.6945C5.21861 18.0143 5.51757 18.3087 5.76924 18.5397C6.0353 18.784 6.20917 18.92 6.28465 18.9613C6.41284 19.0316 6.68869 19.1104 7.10188 19.1679C7.49783 19.223 7.96782 19.2518 8.44377 19.2523C8.91974 19.2527 9.39041 19.2247 9.78777 19.1699C10.202 19.1127 10.4805 19.0334 10.612 18.9613C10.6875 18.92 10.8613 18.784 11.1274 18.5397C11.3791 18.3087 11.678 18.0143 11.9915 17.6945C12.5161 17.1593 13.0713 16.5637 13.4953 16.0983C13.0003 15.683 12.2787 15.0152 11.8968 14.4231C11.7419 14.183 11.6003 13.9369 11.4709 13.712L11.4682 13.7072C11.2906 13.3986 11.1408 13.1395 10.9909 12.9357C10.8364 12.7257 10.7268 12.6391 10.6576 12.6099C10.4504 12.5223 10.0867 12.4404 9.65629 12.378Z" stroke="#45505A"/>
<path d="M8.4347 15.6915C9.42559 15.6915 10.2289 15.2633 10.2289 14.3196H6.64053C6.64053 15.2633 7.44381 15.6915 8.4347 15.6915Z" fill="#45505A"/>
</svg>
