<svg width="22" height="23" viewBox="0 0 22 23" fill="none" xmlns="http://www.w3.org/2000/svg">
<path d="M15.1681 18.0801L15.169 18.0611V11.8115H17.1027C17.5773 11.8115 17.962 11.4268 17.962 10.9521C17.962 10.4775 17.5773 10.0928 17.1027 10.0928H4.89954C4.4249 10.0928 4.04016 10.4775 4.04016 10.9521C4.04016 11.4268 4.4249 11.8115 4.89954 11.8115H6.83304V18.042L6.83283 18.0748L6.83579 18.1104C6.86579 18.5036 6.82351 19.6415 6.27522 20.1775C5.9359 20.5093 5.92975 21.0535 6.26156 21.3928C6.42991 21.565 6.65288 21.6514 6.8761 21.6514C7.09279 21.6514 7.30965 21.5699 7.47685 21.4064C8.64448 20.2648 8.57642 18.3705 8.55184 18.0101V11.8115H10.1417V18.7725C10.1417 19.2471 10.5264 19.6318 11.0011 19.6318C11.4757 19.6318 11.8604 19.2471 11.8604 18.7725V11.8115H13.4503V18.0247C13.4383 18.3462 13.4094 20.3978 14.5495 21.4293C14.714 21.5781 14.9202 21.6514 15.1258 21.6514C15.3602 21.6514 15.5937 21.556 15.7633 21.3685C16.0818 21.0166 16.0546 20.4732 15.7027 20.1547C15.2526 19.7476 15.1482 18.5799 15.1681 18.0801Z" fill="#75808B"/>
<path d="M11 22.5542C11.4509 22.5542 11.8164 22.1887 11.8164 21.7378C11.8164 21.2869 11.4509 20.9214 11 20.9214C10.5491 20.9214 10.1836 21.2869 10.1836 21.7378C10.1836 22.1887 10.5491 22.5542 11 22.5542Z" fill="#75808B"/>
<path d="M21.1395 10.5225C20.6649 10.5225 20.2802 10.9072 20.2802 11.3818C20.2802 12.3296 19.5091 13.1006 18.5614 13.1006H17.745C17.2704 13.1006 16.8856 13.4853 16.8856 13.96C16.8856 14.4346 17.2704 14.8193 17.745 14.8193H18.5614C20.4568 14.8193 21.9989 13.2773 21.9989 11.3818C21.9989 10.9072 21.6142 10.5225 21.1395 10.5225Z" fill="#75808B"/>
<path d="M17.745 5.40918C18.1959 5.40918 18.5614 5.04366 18.5614 4.59277C18.5614 4.14188 18.1959 3.77637 17.745 3.77637C17.2941 3.77637 16.9286 4.14188 16.9286 4.59277C16.9286 5.04366 17.2941 5.40918 17.745 5.40918Z" fill="#75808B"/>
<path d="M18.5625 0.554199H3.4375C1.54206 0.554199 0 2.09626 0 3.9917V11.3823C0 13.2778 1.54206 14.8198 3.4375 14.8198H4.25391C4.72854 14.8198 5.11328 14.4351 5.11328 13.9605C5.11328 13.4858 4.72854 13.1011 4.25391 13.1011H3.4375C2.48978 13.1011 1.71875 12.33 1.71875 11.3823V8.37451H21.1406C21.6153 8.37451 22 7.98977 22 7.51514V3.9917C22 2.09626 20.4579 0.554199 18.5625 0.554199ZM20.2812 6.65576H1.71875V3.9917C1.71875 3.04398 2.48978 2.27295 3.4375 2.27295H18.5625C19.5102 2.27295 20.2812 3.04398 20.2812 3.9917V6.65576Z" fill="#75808B"/>
</svg>
