<svg width="17" height="17" viewBox="0 0 17 17" fill="none" xmlns="http://www.w3.org/2000/svg">
<g clip-path="url(#clip0_324_8875)">
<path d="M15.6849 1.58862H13.8318V1.03283C13.8318 0.661211 13.5474 0.361939 13.1943 0.361939C12.8411 0.361939 12.5568 0.661211 12.5568 1.03283V1.58862H4.77551V1.03283C4.77551 0.661211 4.49114 0.361939 4.13801 0.361939C3.78489 0.361939 3.50051 0.661211 3.50051 1.03283V1.58862H1.64739C1.29426 1.58862 1.00989 1.8879 1.00989 2.25952V15.8057C1.00989 16.1773 1.29426 16.4766 1.64739 16.4766H15.6849C16.038 16.4766 16.3224 16.1773 16.3224 15.8057V2.25952C16.3224 1.8879 16.0349 1.58862 15.6849 1.58862ZM15.0443 15.1348H2.28489V2.93041H3.50051V3.35137C3.50051 3.72299 3.78489 4.02226 4.13801 4.02226C4.49114 4.02226 4.77551 3.72299 4.77551 3.35137V2.93041H12.5536V3.35137C12.5536 3.72299 12.838 4.02226 13.1911 4.02226C13.5443 4.02226 13.8286 3.72299 13.8286 3.35137V2.93041H15.0443V15.1348Z" fill="#75808B"/>
<path d="M5.05869 7.89013C5.46082 7.89013 5.78682 7.54706 5.78682 7.12386C5.78682 6.70066 5.46082 6.35759 5.05869 6.35759C4.65656 6.35759 4.33057 6.70066 4.33057 7.12386C4.33057 7.54706 4.65656 7.89013 5.05869 7.89013Z" fill="#75808B"/>
<path d="M8.66477 7.89013C9.0669 7.89013 9.3929 7.54706 9.3929 7.12386C9.3929 6.70066 9.0669 6.35759 8.66477 6.35759C8.26264 6.35759 7.93665 6.70066 7.93665 7.12386C7.93665 7.54706 8.26264 7.89013 8.66477 7.89013Z" fill="#75808B"/>
<path d="M12.271 7.89013C12.6731 7.89013 12.9991 7.54706 12.9991 7.12386C12.9991 6.70066 12.6731 6.35759 12.271 6.35759C11.8688 6.35759 11.5428 6.70066 11.5428 7.12386C11.5428 7.54706 11.8688 7.89013 12.271 7.89013Z" fill="#75808B"/>
<path d="M5.05869 12.3293C5.46082 12.3293 5.78682 11.9863 5.78682 11.5631C5.78682 11.1399 5.46082 10.7968 5.05869 10.7968C4.65656 10.7968 4.33057 11.1399 4.33057 11.5631C4.33057 11.9863 4.65656 12.3293 5.05869 12.3293Z" fill="#75808B"/>
<path d="M8.66477 12.3293C9.0669 12.3293 9.3929 11.9863 9.3929 11.5631C9.3929 11.1399 9.0669 10.7968 8.66477 10.7968C8.26264 10.7968 7.93665 11.1399 7.93665 11.5631C7.93665 11.9863 8.26264 12.3293 8.66477 12.3293Z" fill="#75808B"/>
<path d="M12.271 12.3293C12.6731 12.3293 12.9991 11.9863 12.9991 11.5631C12.9991 11.1399 12.6731 10.7968 12.271 10.7968C11.8688 10.7968 11.5428 11.1399 11.5428 11.5631C11.5428 11.9863 11.8688 12.3293 12.271 12.3293Z" fill="#75808B"/>
</g>
<defs>
<clipPath id="clip0_324_8875">
<rect width="16" height="16.8381" fill="white" transform="translate(0.661499)"/>
</clipPath>
</defs>
</svg>
