<svg width="54" height="54" viewBox="0 0 54 54" fill="none" xmlns="http://www.w3.org/2000/svg">
<g clip-path="url(#clip0)">
<path d="M52.1291 44.8941H49.7641V38.6129C49.7641 38.045 49.3037 37.5846 48.7359 37.5846H42.5664C41.9986 37.5846 41.5381 38.045 41.5381 38.6129V42.1089H39.0703V38.6129C39.0703 38.045 38.6099 37.5846 38.0421 37.5846H31.8726C31.6195 37.5846 31.388 37.6766 31.2089 37.8283L30.0455 25.6806C31.9308 25.4561 33.3978 23.8487 33.3978 21.9039V19.2304C33.3978 17.2423 31.8648 15.6067 29.9189 15.4408V8.70948C29.9189 8.14168 29.4585 7.68123 28.8907 7.68123H27.8755V2.00725C27.8755 1.43945 27.4151 0.979004 26.8473 0.979004C26.2794 0.979004 25.819 1.43935 25.819 2.00725V7.68123H24.7777C24.2098 7.68123 23.7494 8.14168 23.7494 8.70948V15.492C21.9863 15.8227 20.6476 17.3727 20.6476 19.2304V21.9039C20.6476 23.7281 21.9384 25.2559 23.6544 25.6235L21.4039 49.1236C20.7468 48.1177 19.9407 47.2247 19.0195 46.4734V38.6129C19.0195 38.045 18.5592 37.5846 17.9913 37.5846H12.4387C11.8708 37.5846 11.4105 38.045 11.4105 38.6129V43.8631C6.35231 43.9908 1.91089 47.4314 0.54877 52.3212C0.4625 52.6309 0.526046 52.963 0.720488 53.2191C0.914826 53.475 1.21785 53.6253 1.53928 53.6253H7.09182C7.65972 53.6253 8.12007 53.165 8.12007 52.5971C8.12007 52.0292 7.65972 51.5688 7.09182 51.5688H2.99867C4.50629 48.181 7.91093 45.9135 11.7016 45.9135C15.4921 45.9135 18.8968 48.181 20.4045 51.5688H16.3462C15.7783 51.5688 15.3179 52.0292 15.3179 52.5971C15.3179 53.1649 15.7783 53.6253 16.3462 53.6253H52.1292C52.697 53.6253 53.1575 53.165 53.1575 52.5971V45.9223C53.1573 45.3545 52.697 44.8941 52.1291 44.8941ZM16.963 39.6411V45.1311C15.8775 44.575 14.6996 44.1865 13.467 43.9952V39.6411H16.963ZM43.5946 39.6411H47.7076V44.8941H44.6229V43.1372C44.6229 42.5693 44.1624 42.1089 43.5946 42.1089V39.6411ZM25.8059 9.73773H27.8624V15.4259H25.8059V9.73773ZM24.4522 17.4824H29.5933C30.5572 17.4824 31.3413 18.2665 31.3413 19.2304V19.5389H22.7041V19.2304C22.7041 18.2665 23.4883 17.4824 24.4522 17.4824ZM22.7041 21.9039V21.5954H31.3413V21.9039C31.3413 22.8677 30.5572 23.6519 29.5933 23.6519H24.4522C23.4883 23.6519 22.7041 22.8677 22.7041 21.9039ZM23.2357 51.5688L25.7123 25.7084H27.9824L30.4589 51.5688H23.2357ZM32.9009 39.6411H37.0139V51.5688H32.9009V39.6411ZM39.0703 44.1654H42.5664V51.5688H39.0703V44.1654ZM51.1009 51.5688H44.6229V46.9506H51.1009V51.5688Z" fill="#ffffff"/>
<path d="M11.7189 51.5688C11.4484 51.5688 11.1831 51.6788 10.9919 51.8701C10.8006 52.0614 10.6906 52.3267 10.6906 52.5971C10.6906 52.8675 10.8006 53.1328 10.9919 53.324C11.1831 53.5152 11.4484 53.6253 11.7189 53.6253C11.9893 53.6253 12.2546 53.5153 12.4458 53.324C12.6371 53.1328 12.7471 52.8675 12.7471 52.5971C12.7471 52.3267 12.6371 52.0614 12.4458 51.8701C12.2546 51.6788 11.9893 51.5688 11.7189 51.5688Z" fill="#ffffff"/>
</g>
<defs>
<clipPath id="clip0">
<rect width="52.6463" height="52.6463" fill="white" transform="translate(0.510925 0.979004)"/>
</clipPath>
</defs>
</svg>
