<svg width="23" height="16" viewBox="0 0 23 16" fill="none" xmlns="http://www.w3.org/2000/svg">
<path d="M21.5756 0.27002H1.22288C0.710894 0.27002 0.298584 0.677598 0.298584 1.17821V14.646C0.298584 15.1466 0.710894 15.5542 1.22288 15.5542H21.5756C22.0876 15.5542 22.4999 15.1466 22.4999 14.646V1.17821C22.4999 0.677598 22.0831 0.27002 21.5756 0.27002ZM20.6468 13.7334H2.14718V2.09083H20.6468V13.7334Z" fill="#75808B"/>
<path d="M10.2589 10.1911C10.0822 9.96963 9.95983 9.62407 9.89187 9.15004L8.99475 9.31396C9.02647 9.77027 9.14427 10.1557 9.34816 10.4702C9.55205 10.7848 9.79219 11.0152 10.0731 11.1569C10.354 11.2987 10.7165 11.3962 11.1605 11.4537V12.3309H11.6861V11.4449C12.3114 11.4139 12.8188 11.1968 13.213 10.7892C13.6072 10.3816 13.802 9.8766 13.802 9.26523C13.802 8.99056 13.7567 8.7336 13.6616 8.49437C13.5664 8.25514 13.4305 8.05135 13.2583 7.87858C13.0816 7.7058 12.8551 7.5596 12.5787 7.43999C12.4337 7.37796 12.1347 7.29379 11.6861 7.18304V4.64896C11.9761 4.70655 12.2071 4.8306 12.3748 5.01224C12.5424 5.19388 12.6512 5.45969 12.7055 5.80524L13.6298 5.66791C13.5483 5.1097 13.3172 4.67554 12.9276 4.35657C12.624 4.10405 12.2117 3.95785 11.6952 3.90912V3.48825H11.1696V3.90912C10.576 3.96671 10.132 4.1262 9.83296 4.38758C9.38441 4.77301 9.15786 5.28248 9.15786 5.90271C9.15786 6.25269 9.23489 6.56724 9.38894 6.84634C9.54299 7.12101 9.76047 7.33809 10.0459 7.49315C10.431 7.7058 10.8026 7.84313 11.1696 7.91402V10.7095C10.8116 10.6785 10.5126 10.5057 10.2589 10.1911ZM11.6861 8.04249C12.1664 8.19755 12.4835 8.37033 12.6466 8.56083C12.8052 8.75576 12.8868 9.00828 12.8868 9.32725C12.8868 9.69939 12.7735 10.0139 12.547 10.2709C12.3204 10.5234 12.035 10.674 11.6861 10.7139V8.04249ZM10.2951 6.59382C10.1229 6.39003 10.0414 6.14194 10.0414 5.84069C10.0414 5.53943 10.1411 5.27805 10.3404 5.05654C10.5398 4.83503 10.8162 4.69769 11.1605 4.64896V7.07671C10.7527 6.95267 10.4673 6.79318 10.2951 6.59382Z" fill="#75808B"/>
<path d="M17.7294 9.12235C18.2413 9.12235 18.6537 8.71477 18.6537 8.21416V7.61165C18.6537 7.11104 18.2413 6.70346 17.7294 6.70346C17.2174 6.70346 16.8051 7.11104 16.8051 7.61165V8.21416C16.8051 8.71477 17.2219 9.12235 17.7294 9.12235Z" fill="#75808B"/>
<path d="M4.75377 9.12235C5.26576 9.12235 5.67807 8.71477 5.67807 8.21416V7.61165C5.67807 7.11104 5.26576 6.70346 4.75377 6.70346C4.24178 6.70346 3.82947 7.11104 3.82947 7.61165V8.21416C3.82947 8.71477 4.24178 9.12235 4.75377 9.12235Z" fill="#75808B"/>
</svg>
