<svg width="23" height="24" viewBox="0 0 23 24" fill="none" xmlns="http://www.w3.org/2000/svg">
<path d="M20.0895 9.7683C19.8634 9.7683 19.644 9.79912 19.4347 9.85652L19.8892 4.51846C19.8894 4.51607 19.8896 4.51368 19.8898 4.51133C20.0398 2.58074 18.7369 0.849034 16.9236 0.568865C15.4299 0.338051 13.2798 0.0629883 11.519 0.0629883C9.76728 0.0629883 7.65642 0.335292 6.19407 0.56376C4.38493 0.84632 3.08498 2.57756 3.23472 4.50507C3.2349 4.50751 3.23512 4.50986 3.23533 4.51225L3.6904 9.85652C3.48101 9.79912 3.26161 9.7683 3.03547 9.7683C1.59613 9.7683 0.425171 11.0064 0.425171 12.5281C0.425171 16.385 2.72736 18.9078 3.77711 19.8576L3.06988 22.4372C2.9361 22.9252 3.20183 23.4354 3.66339 23.5769C3.74431 23.6017 3.82579 23.6135 3.90602 23.6135C4.28339 23.6135 4.631 23.3519 4.74133 22.9494L5.42946 20.4395H17.6956L18.3838 22.9494C18.4941 23.3519 18.8416 23.6135 19.2191 23.6135C19.2992 23.6135 19.3808 23.6017 19.4617 23.5769C19.9232 23.4354 20.1889 22.9252 20.0552 22.4372L19.1851 19.2635C19.0726 18.8531 18.7133 18.5903 18.3275 18.6008C18.3202 18.6006 18.3132 18.5997 18.3059 18.5997H5.06971C4.78331 18.3548 4.23218 17.8396 3.68936 17.0868C2.67811 15.6843 2.16535 14.1505 2.16535 12.528C2.16535 12.0208 2.55569 11.6081 3.03547 11.6081C3.51525 11.6081 3.90558 12.0208 3.90558 12.528C3.90558 12.5644 3.90763 12.6007 3.91167 12.6368L3.97123 13.1657C3.98803 13.7472 4.2384 14.2897 4.66397 14.6619C5.10512 15.048 5.68083 15.2043 6.24362 15.0911C8.32376 14.6722 10.1133 14.4599 11.5625 14.4599C13.0118 14.4599 14.8013 14.6722 16.8814 15.0911C17.4442 15.2045 18.0199 15.048 18.4611 14.662C18.8867 14.2897 19.1371 13.7472 19.1538 13.1658L19.2134 12.6368C19.2174 12.6007 19.2195 12.5644 19.2195 12.5281C19.2195 12.0208 19.6098 11.6081 20.0896 11.6081C20.5694 11.6081 20.9597 12.0208 20.9597 12.5281C20.9597 13.6551 20.7069 14.753 20.2083 15.7914C19.9908 16.2444 20.1618 16.7981 20.5903 17.0281C21.0189 17.2582 21.5425 17.0773 21.76 16.6243C22.3837 15.3254 22.6999 13.9472 22.6999 12.5281C22.6999 11.0064 21.5289 9.7683 20.0895 9.7683ZM18.1557 4.35756L17.418 13.0207C17.4178 13.0234 17.4179 13.0261 17.4177 13.0288C17.4158 13.0536 17.4145 13.0784 17.4145 13.1032C17.4145 13.1746 17.3803 13.2195 17.3516 13.2445C17.3227 13.2699 17.274 13.2974 17.207 13.2837C15.0198 12.8434 13.1207 12.6201 11.5625 12.6201C10.0043 12.6201 8.10523 12.8434 5.91802 13.2837C5.85089 13.2972 5.8023 13.2699 5.77337 13.2445C5.7447 13.2195 5.7105 13.1746 5.7105 13.1032C5.7105 13.0784 5.7092 13.0536 5.70728 13.0288C5.70707 13.0261 5.70724 13.0234 5.70698 13.0207L4.96882 4.35135C4.8956 3.38881 5.54501 2.5249 6.44845 2.38382C7.85311 2.16446 9.87299 1.90288 11.519 1.90288C13.1752 1.90288 15.2353 2.16745 16.672 2.38943C17.5779 2.52936 18.229 3.39355 18.1557 4.35756Z" fill="#75808B"/>
</svg>
