<svg width="16" height="20" viewBox="0 0 16 20" fill="none" xmlns="http://www.w3.org/2000/svg">
<rect x="0.725952" y="5.45987" width="13.5149" height="13.5149" rx="6.75745" stroke="#45505A"/>
<circle cx="5.23671" cy="10.3152" r="0.907181" fill="#45505A"/>
<circle cx="9.77794" cy="10.3152" r="0.907181" fill="#45505A"/>
<path d="M5.35814 5.70419C3.59768 5.78428 2.14197 4.58698 2.14197 3.3682C2.14197 1.84473 2.9883 0.998352 4.17322 0.998352C5.35814 0.998352 5.88534 1.76373 5.88534 2.58987C5.88534 3.27034 5.4998 3.99981 4.56351 3.99981C3.85854 3.99981 3.59768 3.46007 3.59768 3.02965" stroke="#45505A" stroke-linecap="round" stroke-linejoin="round"/>
<path d="M11.7053 13.6276C11.446 15.5993 9.67409 17.1558 7.48329 17.1558C5.2925 17.1558 3.52056 15.5993 3.26133 13.6276H11.7053Z" stroke="#45505A"/>
</svg>
