<svg width="20" height="24" viewBox="0 0 20 24" fill="none" xmlns="http://www.w3.org/2000/svg">
<path d="M9.83615 20.1528C12.7923 20.1528 15.1973 17.6101 15.1973 14.4846C15.1973 11.3592 12.7923 8.81641 9.83615 8.81641C6.88 8.81641 4.47498 11.3592 4.47498 14.4846C4.47498 17.6101 6.88 20.1528 9.83615 20.1528ZM9.83615 10.6302C11.6096 10.6302 13.0906 11.9764 13.415 13.7528C13.0754 13.9877 12.6182 14.1028 12.1297 14.0714C11.6203 14.0385 11.0549 13.8608 10.3505 13.512C10.2459 13.4603 10.1414 13.4067 10.0366 13.3529C9.41743 13.0355 8.71567 12.6757 7.90935 12.6303C7.42667 12.6031 6.96925 12.6914 6.54302 12.8329C7.1291 11.5318 8.38478 10.6302 9.83615 10.6302ZM7.81808 14.4416C8.27867 14.4676 8.76902 14.7189 9.28811 14.985C9.3998 15.0423 9.51131 15.0994 9.62291 15.1546C10.1934 15.4371 11.0631 15.8198 12.0252 15.8818C12.1154 15.8877 12.2049 15.8906 12.2938 15.8906C12.6333 15.8906 12.9621 15.8481 13.2739 15.766C12.7731 17.2632 11.4215 18.339 9.83615 18.339C7.96978 18.339 6.42739 16.8482 6.21616 14.9339C6.7416 14.6642 7.30654 14.4126 7.81808 14.4416Z" fill="#75808B"/>
<path d="M15.1987 4.68931C15.6725 4.68931 16.0565 4.28328 16.0565 3.7824C16.0565 3.28153 15.6725 2.87549 15.1987 2.87549C14.725 2.87549 14.3409 3.28153 14.3409 3.7824C14.3409 4.28328 14.725 4.68931 15.1987 4.68931Z" fill="#75808B"/>
<path d="M16.4828 0.337402H3.10132C1.68237 0.337402 0.527954 1.55793 0.527954 3.05814V20.8336C0.527954 22.3339 1.68237 23.5544 3.10132 23.5544H16.4828C17.9018 23.5544 19.0562 22.3339 19.0562 20.8336V3.05814C19.0562 1.55793 17.9018 0.337402 16.4828 0.337402ZM17.3406 20.8336C17.3406 21.3337 16.9558 21.7406 16.4828 21.7406H3.10132C2.62833 21.7406 2.24353 21.3337 2.24353 20.8336V7.22994H17.3406V20.8336ZM17.3406 5.41612H2.24353V3.05814C2.24353 2.55807 2.62833 2.15123 3.10132 2.15123H16.4828C16.9558 2.15123 17.3406 2.55807 17.3406 3.05814V5.41612Z" fill="#75808B"/>
<path d="M12.1511 4.68931C12.6249 4.68931 13.0089 4.28328 13.0089 3.7824C13.0089 3.28153 12.6249 2.87549 12.1511 2.87549C11.6774 2.87549 11.2933 3.28153 11.2933 3.7824C11.2933 4.28328 11.6774 4.68931 12.1511 4.68931Z" fill="#75808B"/>
</svg>
