<svg width="14" height="13" viewBox="0 0 14 13" fill="none" xmlns="http://www.w3.org/2000/svg">
<g clip-path="url(#clip0_324_5201)">
<path d="M12.8011 0.891287C13.0491 0.652615 12.9858 0.0381622 12.3841 0.0381622H0.547451C-0.0463603 0.0381622 -0.0938652 0.619608 0.127824 0.891287L5.9155 7.36082V11.9411H4.844C4.5405 11.9411 4.2977 12.1721 4.2977 12.4591C4.2977 12.746 4.54314 12.977 4.844 12.977H8.08225C8.38575 12.977 8.62856 12.746 8.62856 12.4591C8.62856 12.1721 8.38311 11.9411 8.08225 11.9411H7.01075V7.36082L12.8011 0.891287ZM11.2017 1.0741L6.46445 6.37058L1.72715 1.0741H11.2017Z" fill="#75808B"/>
</g>
<defs>
<clipPath id="clip0_324_5201">
<rect width="13.5125" height="13" fill="white" transform="translate(0.000244141)"/>
</clipPath>
</defs>
</svg>
