<svg width="14" height="13" viewBox="0 0 14 13" fill="none" xmlns="http://www.w3.org/2000/svg">
<g clip-path="url(#clip0_324_5205)">
<path d="M9.79175 3.45312C10.0833 3.45312 10.3196 3.22578 10.3196 2.94531V0.507812C10.3196 0.227348 10.0833 0 9.79175 0C9.50023 0 9.26392 0.227348 9.26392 0.507812V2.94531C9.26392 3.22578 9.50023 3.45312 9.79175 3.45312Z" fill="#75808B"/>
<path d="M11.6392 0C11.3476 0 11.1113 0.227348 11.1113 0.507812V3.04688C11.1113 4.14791 10.507 5.07812 9.79175 5.07812C9.07646 5.07812 8.47217 4.14791 8.47217 3.04688V0.507812C8.47217 0.227348 8.23586 0 7.94434 0C7.65281 0 7.4165 0.227348 7.4165 0.507812V3.04688C7.4165 4.29528 8.04391 5.66625 9.26392 6.01829V12.4922C9.26392 12.7727 9.50023 13 9.79175 13C10.0833 13 10.3196 12.7727 10.3196 12.4922V6.01829C11.5393 5.66632 12.167 4.29622 12.167 3.04688V0.507812C12.167 0.227348 11.9307 0 11.6392 0Z" fill="#75808B"/>
<path d="M3.72168 0.00012207C2.49782 0.00012207 1.34644 1.2303 1.34644 3.047C1.34644 4.29634 1.97416 5.66645 3.19385 6.01841V12.4923C3.19385 12.7728 3.43016 13.0001 3.72168 13.0001C4.0132 13.0001 4.24951 12.7728 4.24951 12.4923V6.01841C5.46952 5.66637 6.09692 4.2954 6.09692 3.047C6.09692 1.17619 4.90402 0.00012207 3.72168 0.00012207ZM3.72168 5.07825C3.00639 5.07825 2.4021 4.14804 2.4021 3.047C2.4021 1.94596 3.00639 1.01575 3.72168 1.01575C4.43697 1.01575 5.04126 1.94596 5.04126 3.047C5.04126 4.14804 4.43697 5.07825 3.72168 5.07825Z" fill="#75808B"/>
</g>
<defs>
<clipPath id="clip0_324_5205">
<rect width="13.5125" height="13" fill="white" transform="translate(0.000488281)"/>
</clipPath>
</defs>
</svg>
