<svg width="23" height="25" viewBox="0 0 23 25" fill="none" xmlns="http://www.w3.org/2000/svg">
<path d="M17.8468 0.554199C15.4218 0.554199 13.3906 2.38565 12.9041 4.81982H0.444458V6.24323L9.05774 17.0245V22.6792H5.54211V24.5542H14.3312V22.6792H10.8156V17.0245L19.4288 6.24323V4.81982H14.725C15.1659 3.43157 16.3983 2.4292 17.8468 2.4292C19.6642 2.4292 21.1427 4.00631 21.1427 5.94482C21.1427 7.19629 20.526 8.29636 19.6002 8.91951L17.6729 11.332C17.7307 11.334 17.7887 11.3355 17.8468 11.3355C20.6334 11.3355 22.9005 8.91726 22.9005 5.94487C22.9005 2.97248 20.6334 0.554199 17.8468 0.554199ZM9.93664 15.2338L6.18547 10.5384H13.6878L9.93664 15.2338ZM16.7585 6.69482L15.1858 8.66343H4.7511V8.74303L3.11475 6.69482H16.7585Z" fill="#75808B"/>
</svg>
