<svg width="17" height="16" viewBox="0 0 17 16" fill="none" xmlns="http://www.w3.org/2000/svg">
<path d="M14.6927 11.3H14.9654C15.7885 11.3 16.3495 10.4906 16.1028 9.72306L16.1029 9.72305L16.1015 9.7189L14.6395 5.3019L14.6391 5.30059C14.513 4.92314 14.2723 4.59442 13.9503 4.36095C13.8282 4.27243 13.6967 4.19931 13.5589 4.14257C14.2286 3.84992 14.6927 3.18046 14.6927 2.40002C14.6927 1.34946 13.8518 0.500015 12.8003 0.500015C11.7489 0.500015 10.908 1.34946 10.908 2.40002C10.908 3.17978 11.3712 3.84874 12.04 4.1418C11.9025 4.19836 11.7713 4.2713 11.6495 4.35963C11.3268 4.59361 11.086 4.92357 10.961 5.30229L10.5149 6.64802C10.5154 6.63207 10.5156 6.61607 10.5156 6.60002C10.5156 5.74546 9.82791 5.05001 8.97136 5.05001C8.11481 5.05001 7.4271 5.74546 7.4271 6.60002C7.4271 7.12046 7.68217 7.58188 8.07512 7.86314C7.65063 7.91921 7.27901 8.15099 7.03474 8.48157V5.90002C7.03474 4.85646 6.1869 4.00002 5.14239 4.00002H5.1224C5.64604 3.66237 5.99047 3.07238 5.99047 2.40002C5.99047 1.34946 5.1496 0.500015 4.09812 0.500015C3.04664 0.500015 2.20577 1.34946 2.20577 2.40002C2.20577 3.07238 2.5502 3.66237 3.07383 4.00002H3.05385C2.00934 4.00002 1.1615 4.85646 1.1615 5.90002V9.40001C1.1615 10.0073 1.61612 10.5151 2.20577 10.5904V14.3C2.20577 14.9586 2.74032 15.5 3.40194 15.5H4.7943C5.45592 15.5 5.99047 14.9586 5.99047 14.3V10.5904C6.28383 10.5529 6.54376 10.4084 6.73092 10.1979V11.5C6.73092 11.9808 7.01583 12.3992 7.4271 12.59V14.3C7.4271 14.9586 7.96165 15.5 8.62327 15.5H9.31945C9.98107 15.5 10.5156 14.9586 10.5156 14.3V12.59C10.9269 12.3992 11.2118 11.9808 11.2118 11.5V9.40001C11.2118 8.62006 10.6235 7.963 9.86761 7.86314C10.0101 7.76112 10.1345 7.63539 10.2352 7.49174L10.2325 7.49997L10.5933 7.70153C11.1982 8.03944 11.6042 8.66968 11.6042 9.40001V15V15.5H12.1042H13.4965C14.1581 15.5 14.6927 14.9586 14.6927 14.3V11.3ZM12.759 4.00002C12.7589 4.00002 12.7588 4.00002 12.7587 4.00002L12.759 4.00002ZM12.7586 4.50002L12.7587 4.29957L12.7586 4.29957V4.50002Z" stroke="#75808B"/>
</svg>
