<svg width="14" height="17" viewBox="0 0 14 17" fill="none" xmlns="http://www.w3.org/2000/svg">
<path d="M12.9525 1.43816C12.73 1.30166 12.4505 1.29214 12.218 1.41264C11.625 1.71965 11.0415 1.97364 9.91501 1.97364C8.6755 1.97364 8.09201 1.66614 7.41552 1.31015C6.6705 0.918155 5.8265 0.473648 4.2175 0.473648C3.104 0.473648 2.36 0.68664 1.75898 0.94664C1.64848 0.670135 1.3795 0.473648 1.063 0.473648C0.648992 0.473648 0.312988 0.809142 0.312988 1.22366V15.7237C0.312988 16.1382 0.648992 16.4737 1.063 16.4737C1.477 16.4737 1.813 16.1382 1.813 15.7237V9.58666C2.45 9.25265 3.03751 8.97366 4.21752 8.97366C5.45651 8.97366 6.04051 9.28118 6.71651 9.63717C7.46151 10.0292 8.305 10.4737 9.91501 10.4737C11.3765 10.4737 12.195 10.1137 12.9075 9.74516C13.157 9.61616 13.313 9.35916 13.313 9.07866V2.07866C13.313 1.81715 13.1765 1.57415 12.9525 1.43816ZM11.813 8.60966C11.335 8.82117 10.7885 8.97366 9.91498 8.97366C8.67548 8.97366 8.09199 8.66616 7.4155 8.31017C6.67048 7.91817 5.82648 7.47367 4.2175 7.47367C3.13798 7.47367 2.40499 7.67317 1.81298 7.92268V2.58666C2.44998 2.25265 3.03749 1.97366 4.2175 1.97366C5.45649 1.97366 6.04049 2.28116 6.71649 2.63715C7.46149 3.02915 8.30498 3.47366 9.91498 3.47366C10.7085 3.47366 11.3125 3.36766 11.813 3.21166V8.60966Z" fill="#75808B"/>
</svg>
