<svg width="49" height="49" viewBox="0 0 49 49" fill="none" xmlns="http://www.w3.org/2000/svg">
<path d="M36.5059 44.2027L36.5059 44.2027C36.225 43.7186 35.6048 43.5538 35.1203 43.8346L35.0846 43.8552L35.0846 43.8552L35.0844 43.8553C34.6002 44.1363 34.4354 44.7567 34.7163 45.241L34.7163 45.241C34.9044 45.5652 35.2447 45.7462 35.594 45.7462C35.7667 45.7462 35.942 45.7018 36.1019 45.609L36.1376 45.5885L36.1378 45.5884C36.622 45.3074 36.7867 44.687 36.5059 44.2027Z" fill="#ffffff" stroke="#1792D1" stroke-width="0.167131"/>
<mask id="path-2-outside-1" maskUnits="userSpaceOnUse" x="-0.631226" y="0.0761719" width="49" height="49" fill="black">
<rect fill="white" x="-0.631226" y="0.0761719" width="49" height="49"/>
<path d="M44.8096 12.9919C41.6296 7.48381 36.4951 3.54391 30.3518 1.89776C24.2087 0.251616 17.7921 1.09646 12.2841 4.27646C6.77623 7.45646 2.83632 12.5912 1.19031 18.7345C-0.455711 24.8778 0.38902 31.2947 3.56895 36.8027C6.42141 41.7435 10.955 45.4984 16.3347 47.3756C18.8848 48.2654 21.5469 48.7095 24.205 48.7095C27.095 48.7095 29.9798 48.1842 32.7067 47.1362C33.1863 46.9519 33.4256 46.4137 33.2412 45.9341C33.0568 45.4545 32.5185 45.2149 32.0391 45.3996C24.7807 48.1894 16.9231 46.9218 11.0525 42.5152L11.8859 38.1644L12.2875 38.034C13.8052 37.5409 14.6387 35.905 14.1459 34.3872L13.8511 33.4802C13.7829 33.2704 13.7833 33.0485 13.8521 32.8388C14.1106 32.0506 14.0182 31.1883 13.5986 30.4726C13.1789 29.7571 12.4714 29.2554 11.6573 29.0962L9.55752 28.6859L5.50616 25.6056C5.26344 25.421 4.94573 25.3671 4.65566 25.4613L2.28371 26.2318C2.23338 25.3834 2.23264 24.5353 2.28046 23.6917C2.37405 23.7788 2.43498 23.8381 2.47247 23.877C2.5189 23.9543 2.57639 24.0252 2.64375 24.0866C2.83744 24.263 3.0129 24.343 3.3813 24.343C3.71985 24.3429 4.22101 24.2755 5.04853 24.1532C5.83335 24.0372 6.61408 23.9065 6.6218 23.9052C6.93467 23.8528 7.19916 23.6444 7.32363 23.3527C7.44811 23.061 7.41527 22.726 7.23655 22.4638L6.09589 20.7907L7.72972 19.6223C7.83857 19.5445 7.92936 19.4441 7.99588 19.328L10.5285 14.9065L11.5493 13.8126C12.5925 12.6946 12.8902 11.0587 12.3076 9.64499C11.964 8.81113 11.3637 8.11691 10.613 7.64904C11.4261 7.0098 12.293 6.41959 13.2144 5.88772C16.595 3.93586 20.2843 2.98998 23.9348 2.95379L22.2736 5.03766L16.1135 7.19727C15.8633 7.2849 15.6624 7.47525 15.5613 7.7203L13.841 11.8908C13.7188 12.1872 13.7576 12.5252 13.9438 12.7861L16.4564 16.3058C16.0966 16.6341 15.7463 17.1123 15.3279 17.706C15.1445 17.9664 14.9712 18.2123 14.8515 18.3502C14.7474 18.4702 14.6432 18.5874 14.5399 18.7035C13.9995 19.3115 13.4408 19.9403 13.0438 20.7803C12.171 22.6278 12.3473 24.7752 13.5038 26.3845C14.6222 27.9405 16.4659 28.7315 18.4337 28.5C18.7543 28.4625 19.0532 28.3885 19.3424 28.3169C20.14 28.1195 20.3927 28.0998 20.6485 28.3393C20.773 28.4558 20.7844 28.4779 20.7819 28.8732C20.7802 29.1248 20.7782 29.4377 20.8649 29.7951C21.0038 30.3668 21.3628 30.7619 21.6512 31.0793C21.7946 31.237 21.9429 31.4002 21.9886 31.5097C22.2787 32.205 22.1524 32.5901 21.8755 33.4339C21.8518 33.5061 21.8276 33.5798 21.8033 33.6553C21.3827 34.9574 21.969 36.2489 22.4863 37.3881C22.6543 37.7581 22.8129 38.1074 22.9168 38.4161C23.7533 40.8981 24.3803 41.4666 24.8835 41.6954C25.1471 41.8153 25.4199 41.8678 25.6954 41.8677C27.0365 41.8677 28.4359 40.6225 29.0787 39.8331C29.4825 39.3374 29.5819 38.8411 29.6545 38.4785C29.6907 38.2982 29.7192 38.1559 29.7735 38.0628C29.8567 37.9205 29.9546 37.8102 30.0786 37.6704C30.3281 37.3895 30.6385 37.0401 30.8395 36.4066C30.9923 35.9255 31.1033 35.8075 31.4709 35.416C31.5349 35.348 31.6031 35.2752 31.6763 35.1956C32.9154 33.8473 32.5963 32.8173 32.2583 31.7267C31.9739 30.8091 32.4713 30.2223 33.674 29.1022C34.1954 28.6167 34.7344 28.1147 35.1511 27.5115C35.3335 27.2474 35.8882 26.4443 35.5449 25.6482C35.2084 24.8676 34.3532 24.7364 33.666 24.6311C33.3947 24.5894 32.9846 24.5266 32.8541 24.4412C32.2785 24.0649 31.9263 23.2795 31.5858 22.5199C31.5179 22.3687 31.451 22.2195 31.3832 22.0746C31.2623 21.8162 31.1414 21.5035 31.0135 21.1725C30.6751 20.2965 30.2915 19.3035 29.6385 18.6113C29.0516 17.9894 27.9451 17.6898 26.9689 17.4254C26.6406 17.3366 26.3307 17.2527 26.1264 17.1772C25.9551 17.114 25.7692 17.1025 25.5919 17.1442C25.1168 17.2556 24.8204 17.3783 24.6003 17.5547C24.5421 17.6013 24.3699 17.7543 24.2691 18.0003C23.9285 17.8368 23.4601 17.5247 23.1719 17.3326C23.166 17.3286 23.1599 17.3246 23.154 17.3206C23.2511 16.9319 23.1632 16.62 23.0711 16.4251C22.5514 15.3258 20.8263 15.4119 20.486 15.4408C20.2927 15.457 20.0481 15.4657 19.7894 15.4748C19.383 15.4892 18.9339 15.5054 18.4894 15.5553L18.5123 15.4914C18.8497 14.5515 19.7472 13.92 20.7458 13.92H21.2747C21.7884 13.92 22.205 13.5034 22.205 12.9898C22.205 12.4761 21.7884 12.0595 21.2747 12.0595H20.7458C19.2633 12.0595 17.9057 12.8398 17.1448 14.0679L15.7572 12.1242L17.1223 8.81504L23.1418 6.70465C23.3068 6.64678 23.4523 6.54352 23.5615 6.40666L26.2373 3.05008C33.0746 3.70048 39.5106 7.53405 43.1986 13.922C44.1809 15.6235 44.9076 17.4147 45.3907 19.2469L44.9963 19.5985C44.4816 20.0578 44.18 20.7166 44.1684 21.4061C44.1683 21.4136 44.1682 21.4211 44.1679 21.4285L43.5254 19.6616C43.4297 19.398 43.2886 19.1562 43.1065 18.943L41.9604 17.6012C41.5161 17.081 40.8691 16.7829 40.1853 16.7829H38.7824C38.2844 16.7829 37.8293 17.0556 37.5944 17.4945C37.3595 17.9334 37.3852 18.4635 37.6614 18.8777L37.8034 19.0908C36.8969 19.8704 35.8484 20.4942 34.732 20.9149L32.809 17.2314V16.4096C32.809 16.1554 32.705 15.9121 32.5211 15.7368L30.7895 14.0837C30.6939 13.9925 30.5801 13.9227 30.4555 13.8789L28.8968 13.3311C28.4118 13.1605 27.8809 13.4157 27.7107 13.9003C27.5403 14.3851 27.7952 14.916 28.2799 15.0864L29.6497 15.5678L30.9486 16.8077V17.4597C30.9486 17.6096 30.9849 17.7573 31.0543 17.8902L33.4617 22.5017C33.6781 22.9166 34.1695 23.1062 34.6081 22.9439L35.3091 22.6855C36.9376 22.0849 38.4471 21.1187 39.6743 19.8916C39.9879 19.578 40.0366 19.0868 39.7905 18.7178L39.741 18.6434H40.1853C40.3242 18.6434 40.4556 18.704 40.5459 18.8097L41.6919 20.1515C41.7289 20.1948 41.7574 20.2437 41.777 20.2974L43.0417 23.7753C43.1504 24.0741 43.4042 24.2967 43.7143 24.3655C43.7813 24.3803 43.8488 24.3876 43.9159 24.3876C44.1599 24.3876 44.3974 24.2915 44.5736 24.1151L45.1756 23.513C45.5569 23.1317 45.8193 22.6492 45.9447 22.1144C46.8758 29.5762 43.95 37.295 37.7658 42.149C37.3616 42.4661 37.291 43.0509 37.6084 43.4551C37.9255 43.8593 38.5101 43.9298 38.9145 43.6125C43.3792 40.1082 46.4465 35.096 47.5513 29.4991C48.6664 23.8483 47.6928 17.9858 44.8096 12.9919ZM4.76748 27.3812L8.60348 30.2979C8.71688 30.3842 8.84843 30.4431 8.98816 30.4704L11.3002 30.9222C11.5953 30.9799 11.8415 31.1544 11.9936 31.4138C12.1457 31.6731 12.1777 31.9731 12.0841 32.2588C11.8915 32.8461 11.8906 33.4673 12.0816 34.055L12.3763 34.9619C12.5524 35.5039 12.2545 36.0883 11.7126 36.2644L10.7881 36.5648C10.4656 36.6696 10.2258 36.9416 10.162 37.2745L9.41797 41.1585C7.78219 39.6613 6.34596 37.8918 5.18017 35.8725C3.7579 33.4093 2.86926 30.7819 2.47759 28.1252L4.76748 27.3812ZM10.1891 12.5433L9.09478 13.7158C9.04594 13.7682 9.00323 13.826 8.9676 13.8882L6.48253 18.2269L4.27385 19.8063C3.86247 20.1005 3.76143 20.6692 4.0463 21.0871L4.87233 22.2988C4.39619 22.3696 3.9689 22.4281 3.68478 22.4591C3.63017 22.4067 3.57304 22.3536 3.51397 22.2987C3.29283 22.0932 2.98555 21.8189 2.52746 21.418C3.28297 16.7418 5.53621 12.3365 9.07999 8.97375C9.75856 9.18745 10.3155 9.69365 10.5875 10.3539C10.8936 11.0965 10.7371 11.956 10.1891 12.5433ZM17.774 17.627C18.1889 17.3934 19.152 17.3593 19.8552 17.3344C20.1369 17.3244 20.4032 17.3149 20.641 17.295C20.7665 17.2845 20.9059 17.2864 21.0373 17.2967C20.9786 17.4474 20.9595 17.6128 20.985 17.7769C21.0298 18.0656 21.2077 18.3163 21.4653 18.4541C21.6398 18.5475 21.8827 18.7095 22.1398 18.881C22.8669 19.3657 23.691 19.915 24.4653 19.9643C25.1693 20.01 25.5611 19.6088 25.7289 19.4379C25.7423 19.4243 25.755 19.4107 25.7684 19.3983C25.8629 19.3213 25.9515 19.218 26.0173 19.0935C26.1661 19.136 26.3224 19.1783 26.4826 19.2217C27.0334 19.3709 28.0587 19.6485 28.2853 19.8885C28.6876 20.3151 29.0012 21.127 29.278 21.8433C29.4178 22.2053 29.5499 22.5469 29.6981 22.8637C29.7618 22.9996 29.8244 23.1396 29.888 23.2814C30.3173 24.2389 30.8038 25.3242 31.836 25.9989C32.3041 26.3049 32.8778 26.3928 33.3841 26.4705C33.4453 26.4799 33.5154 26.4907 33.5867 26.5024C33.2862 26.9216 32.8583 27.32 32.4063 27.741C31.2547 28.8135 29.8214 30.1483 30.4815 32.2778C30.793 33.2833 30.8075 33.392 30.3066 33.937C30.2383 34.0113 30.1746 34.079 30.115 34.1425C29.6859 34.5993 29.347 34.96 29.0664 35.8439C28.9849 36.1006 28.8794 36.2195 28.6876 36.4353C28.5343 36.608 28.3433 36.8231 28.1672 37.1245C27.9562 37.4856 27.8864 37.8334 27.8305 38.1128C27.7753 38.3877 27.7441 38.5257 27.6362 38.6582C27.3905 38.9598 26.9322 39.3978 26.4617 39.6967C26.0245 39.9743 25.7692 40.0123 25.6822 40.0071C25.583 39.9006 25.2234 39.4346 24.6801 37.8221C24.5461 37.4242 24.3602 37.0149 24.1805 36.619C23.7843 35.7464 23.3746 34.8439 23.5739 34.2272C23.5975 34.1545 23.6207 34.0834 23.6436 34.0139C23.962 33.0435 24.2625 32.1273 23.7057 30.7931C23.5362 30.3869 23.2664 30.09 23.0285 29.828C22.8745 29.6586 22.7001 29.4666 22.6732 29.356C22.6404 29.2212 22.6415 29.0656 22.6427 28.8854C22.6458 28.3993 22.6507 27.6648 21.9205 26.981C20.891 26.0173 19.6905 26.3142 18.896 26.5107C18.652 26.571 18.4214 26.6281 18.2171 26.6521C16.9102 26.8052 15.7434 26.3122 15.015 25.2985C14.2529 24.2381 14.1423 22.8113 14.7264 21.5749C15.0091 20.9766 15.4362 20.4958 15.9308 19.9395C16.0388 19.8179 16.1478 19.6953 16.2569 19.5697C16.4383 19.3606 16.6379 19.0774 16.849 18.7775C17.101 18.4198 17.5703 17.7537 17.774 17.627Z"/>
</mask>
<path d="M44.8096 12.9919C41.6296 7.48381 36.4951 3.54391 30.3518 1.89776C24.2087 0.251616 17.7921 1.09646 12.2841 4.27646C6.77623 7.45646 2.83632 12.5912 1.19031 18.7345C-0.455711 24.8778 0.38902 31.2947 3.56895 36.8027C6.42141 41.7435 10.955 45.4984 16.3347 47.3756C18.8848 48.2654 21.5469 48.7095 24.205 48.7095C27.095 48.7095 29.9798 48.1842 32.7067 47.1362C33.1863 46.9519 33.4256 46.4137 33.2412 45.9341C33.0568 45.4545 32.5185 45.2149 32.0391 45.3996C24.7807 48.1894 16.9231 46.9218 11.0525 42.5152L11.8859 38.1644L12.2875 38.034C13.8052 37.5409 14.6387 35.905 14.1459 34.3872L13.8511 33.4802C13.7829 33.2704 13.7833 33.0485 13.8521 32.8388C14.1106 32.0506 14.0182 31.1883 13.5986 30.4726C13.1789 29.7571 12.4714 29.2554 11.6573 29.0962L9.55752 28.6859L5.50616 25.6056C5.26344 25.421 4.94573 25.3671 4.65566 25.4613L2.28371 26.2318C2.23338 25.3834 2.23264 24.5353 2.28046 23.6917C2.37405 23.7788 2.43498 23.8381 2.47247 23.877C2.5189 23.9543 2.57639 24.0252 2.64375 24.0866C2.83744 24.263 3.0129 24.343 3.3813 24.343C3.71985 24.3429 4.22101 24.2755 5.04853 24.1532C5.83335 24.0372 6.61408 23.9065 6.6218 23.9052C6.93467 23.8528 7.19916 23.6444 7.32363 23.3527C7.44811 23.061 7.41527 22.726 7.23655 22.4638L6.09589 20.7907L7.72972 19.6223C7.83857 19.5445 7.92936 19.4441 7.99588 19.328L10.5285 14.9065L11.5493 13.8126C12.5925 12.6946 12.8902 11.0587 12.3076 9.64499C11.964 8.81113 11.3637 8.11691 10.613 7.64904C11.4261 7.0098 12.293 6.41959 13.2144 5.88772C16.595 3.93586 20.2843 2.98998 23.9348 2.95379L22.2736 5.03766L16.1135 7.19727C15.8633 7.2849 15.6624 7.47525 15.5613 7.7203L13.841 11.8908C13.7188 12.1872 13.7576 12.5252 13.9438 12.7861L16.4564 16.3058C16.0966 16.6341 15.7463 17.1123 15.3279 17.706C15.1445 17.9664 14.9712 18.2123 14.8515 18.3502C14.7474 18.4702 14.6432 18.5874 14.5399 18.7035C13.9995 19.3115 13.4408 19.9403 13.0438 20.7803C12.171 22.6278 12.3473 24.7752 13.5038 26.3845C14.6222 27.9405 16.4659 28.7315 18.4337 28.5C18.7543 28.4625 19.0532 28.3885 19.3424 28.3169C20.14 28.1195 20.3927 28.0998 20.6485 28.3393C20.773 28.4558 20.7844 28.4779 20.7819 28.8732C20.7802 29.1248 20.7782 29.4377 20.8649 29.7951C21.0038 30.3668 21.3628 30.7619 21.6512 31.0793C21.7946 31.237 21.9429 31.4002 21.9886 31.5097C22.2787 32.205 22.1524 32.5901 21.8755 33.4339C21.8518 33.5061 21.8276 33.5798 21.8033 33.6553C21.3827 34.9574 21.969 36.2489 22.4863 37.3881C22.6543 37.7581 22.8129 38.1074 22.9168 38.4161C23.7533 40.8981 24.3803 41.4666 24.8835 41.6954C25.1471 41.8153 25.4199 41.8678 25.6954 41.8677C27.0365 41.8677 28.4359 40.6225 29.0787 39.8331C29.4825 39.3374 29.5819 38.8411 29.6545 38.4785C29.6907 38.2982 29.7192 38.1559 29.7735 38.0628C29.8567 37.9205 29.9546 37.8102 30.0786 37.6704C30.3281 37.3895 30.6385 37.0401 30.8395 36.4066C30.9923 35.9255 31.1033 35.8075 31.4709 35.416C31.5349 35.348 31.6031 35.2752 31.6763 35.1956C32.9154 33.8473 32.5963 32.8173 32.2583 31.7267C31.9739 30.8091 32.4713 30.2223 33.674 29.1022C34.1954 28.6167 34.7344 28.1147 35.1511 27.5115C35.3335 27.2474 35.8882 26.4443 35.5449 25.6482C35.2084 24.8676 34.3532 24.7364 33.666 24.6311C33.3947 24.5894 32.9846 24.5266 32.8541 24.4412C32.2785 24.0649 31.9263 23.2795 31.5858 22.5199C31.5179 22.3687 31.451 22.2195 31.3832 22.0746C31.2623 21.8162 31.1414 21.5035 31.0135 21.1725C30.6751 20.2965 30.2915 19.3035 29.6385 18.6113C29.0516 17.9894 27.9451 17.6898 26.9689 17.4254C26.6406 17.3366 26.3307 17.2527 26.1264 17.1772C25.9551 17.114 25.7692 17.1025 25.5919 17.1442C25.1168 17.2556 24.8204 17.3783 24.6003 17.5547C24.5421 17.6013 24.3699 17.7543 24.2691 18.0003C23.9285 17.8368 23.4601 17.5247 23.1719 17.3326C23.166 17.3286 23.1599 17.3246 23.154 17.3206C23.2511 16.9319 23.1632 16.62 23.0711 16.4251C22.5514 15.3258 20.8263 15.4119 20.486 15.4408C20.2927 15.457 20.0481 15.4657 19.7894 15.4748C19.383 15.4892 18.9339 15.5054 18.4894 15.5553L18.5123 15.4914C18.8497 14.5515 19.7472 13.92 20.7458 13.92H21.2747C21.7884 13.92 22.205 13.5034 22.205 12.9898C22.205 12.4761 21.7884 12.0595 21.2747 12.0595H20.7458C19.2633 12.0595 17.9057 12.8398 17.1448 14.0679L15.7572 12.1242L17.1223 8.81504L23.1418 6.70465C23.3068 6.64678 23.4523 6.54352 23.5615 6.40666L26.2373 3.05008C33.0746 3.70048 39.5106 7.53405 43.1986 13.922C44.1809 15.6235 44.9076 17.4147 45.3907 19.2469L44.9963 19.5985C44.4816 20.0578 44.18 20.7166 44.1684 21.4061C44.1683 21.4136 44.1682 21.4211 44.1679 21.4285L43.5254 19.6616C43.4297 19.398 43.2886 19.1562 43.1065 18.943L41.9604 17.6012C41.5161 17.081 40.8691 16.7829 40.1853 16.7829H38.7824C38.2844 16.7829 37.8293 17.0556 37.5944 17.4945C37.3595 17.9334 37.3852 18.4635 37.6614 18.8777L37.8034 19.0908C36.8969 19.8704 35.8484 20.4942 34.732 20.9149L32.809 17.2314V16.4096C32.809 16.1554 32.705 15.9121 32.5211 15.7368L30.7895 14.0837C30.6939 13.9925 30.5801 13.9227 30.4555 13.8789L28.8968 13.3311C28.4118 13.1605 27.8809 13.4157 27.7107 13.9003C27.5403 14.3851 27.7952 14.916 28.2799 15.0864L29.6497 15.5678L30.9486 16.8077V17.4597C30.9486 17.6096 30.9849 17.7573 31.0543 17.8902L33.4617 22.5017C33.6781 22.9166 34.1695 23.1062 34.6081 22.9439L35.3091 22.6855C36.9376 22.0849 38.4471 21.1187 39.6743 19.8916C39.9879 19.578 40.0366 19.0868 39.7905 18.7178L39.741 18.6434H40.1853C40.3242 18.6434 40.4556 18.704 40.5459 18.8097L41.6919 20.1515C41.7289 20.1948 41.7574 20.2437 41.777 20.2974L43.0417 23.7753C43.1504 24.0741 43.4042 24.2967 43.7143 24.3655C43.7813 24.3803 43.8488 24.3876 43.9159 24.3876C44.1599 24.3876 44.3974 24.2915 44.5736 24.1151L45.1756 23.513C45.5569 23.1317 45.8193 22.6492 45.9447 22.1144C46.8758 29.5762 43.95 37.295 37.7658 42.149C37.3616 42.4661 37.291 43.0509 37.6084 43.4551C37.9255 43.8593 38.5101 43.9298 38.9145 43.6125C43.3792 40.1082 46.4465 35.096 47.5513 29.4991C48.6664 23.8483 47.6928 17.9858 44.8096 12.9919ZM4.76748 27.3812L8.60348 30.2979C8.71688 30.3842 8.84843 30.4431 8.98816 30.4704L11.3002 30.9222C11.5953 30.9799 11.8415 31.1544 11.9936 31.4138C12.1457 31.6731 12.1777 31.9731 12.0841 32.2588C11.8915 32.8461 11.8906 33.4673 12.0816 34.055L12.3763 34.9619C12.5524 35.5039 12.2545 36.0883 11.7126 36.2644L10.7881 36.5648C10.4656 36.6696 10.2258 36.9416 10.162 37.2745L9.41797 41.1585C7.78219 39.6613 6.34596 37.8918 5.18017 35.8725C3.7579 33.4093 2.86926 30.7819 2.47759 28.1252L4.76748 27.3812ZM10.1891 12.5433L9.09478 13.7158C9.04594 13.7682 9.00323 13.826 8.9676 13.8882L6.48253 18.2269L4.27385 19.8063C3.86247 20.1005 3.76143 20.6692 4.0463 21.0871L4.87233 22.2988C4.39619 22.3696 3.9689 22.4281 3.68478 22.4591C3.63017 22.4067 3.57304 22.3536 3.51397 22.2987C3.29283 22.0932 2.98555 21.8189 2.52746 21.418C3.28297 16.7418 5.53621 12.3365 9.07999 8.97375C9.75856 9.18745 10.3155 9.69365 10.5875 10.3539C10.8936 11.0965 10.7371 11.956 10.1891 12.5433ZM17.774 17.627C18.1889 17.3934 19.152 17.3593 19.8552 17.3344C20.1369 17.3244 20.4032 17.3149 20.641 17.295C20.7665 17.2845 20.9059 17.2864 21.0373 17.2967C20.9786 17.4474 20.9595 17.6128 20.985 17.7769C21.0298 18.0656 21.2077 18.3163 21.4653 18.4541C21.6398 18.5475 21.8827 18.7095 22.1398 18.881C22.8669 19.3657 23.691 19.915 24.4653 19.9643C25.1693 20.01 25.5611 19.6088 25.7289 19.4379C25.7423 19.4243 25.755 19.4107 25.7684 19.3983C25.8629 19.3213 25.9515 19.218 26.0173 19.0935C26.1661 19.136 26.3224 19.1783 26.4826 19.2217C27.0334 19.3709 28.0587 19.6485 28.2853 19.8885C28.6876 20.3151 29.0012 21.127 29.278 21.8433C29.4178 22.2053 29.5499 22.5469 29.6981 22.8637C29.7618 22.9996 29.8244 23.1396 29.888 23.2814C30.3173 24.2389 30.8038 25.3242 31.836 25.9989C32.3041 26.3049 32.8778 26.3928 33.3841 26.4705C33.4453 26.4799 33.5154 26.4907 33.5867 26.5024C33.2862 26.9216 32.8583 27.32 32.4063 27.741C31.2547 28.8135 29.8214 30.1483 30.4815 32.2778C30.793 33.2833 30.8075 33.392 30.3066 33.937C30.2383 34.0113 30.1746 34.079 30.115 34.1425C29.6859 34.5993 29.347 34.96 29.0664 35.8439C28.9849 36.1006 28.8794 36.2195 28.6876 36.4353C28.5343 36.608 28.3433 36.8231 28.1672 37.1245C27.9562 37.4856 27.8864 37.8334 27.8305 38.1128C27.7753 38.3877 27.7441 38.5257 27.6362 38.6582C27.3905 38.9598 26.9322 39.3978 26.4617 39.6967C26.0245 39.9743 25.7692 40.0123 25.6822 40.0071C25.583 39.9006 25.2234 39.4346 24.6801 37.8221C24.5461 37.4242 24.3602 37.0149 24.1805 36.619C23.7843 35.7464 23.3746 34.8439 23.5739 34.2272C23.5975 34.1545 23.6207 34.0834 23.6436 34.0139C23.962 33.0435 24.2625 32.1273 23.7057 30.7931C23.5362 30.3869 23.2664 30.09 23.0285 29.828C22.8745 29.6586 22.7001 29.4666 22.6732 29.356C22.6404 29.2212 22.6415 29.0656 22.6427 28.8854C22.6458 28.3993 22.6507 27.6648 21.9205 26.981C20.891 26.0173 19.6905 26.3142 18.896 26.5107C18.652 26.571 18.4214 26.6281 18.2171 26.6521C16.9102 26.8052 15.7434 26.3122 15.015 25.2985C14.2529 24.2381 14.1423 22.8113 14.7264 21.5749C15.0091 20.9766 15.4362 20.4958 15.9308 19.9395C16.0388 19.8179 16.1478 19.6953 16.2569 19.5697C16.4383 19.3606 16.6379 19.0774 16.849 18.7775C17.101 18.4198 17.5703 17.7537 17.774 17.627Z" fill="#ffffff"/>
<path d="M44.8096 12.9919C41.6296 7.48381 36.4951 3.54391 30.3518 1.89776C24.2087 0.251616 17.7921 1.09646 12.2841 4.27646C6.77623 7.45646 2.83632 12.5912 1.19031 18.7345C-0.455711 24.8778 0.38902 31.2947 3.56895 36.8027C6.42141 41.7435 10.955 45.4984 16.3347 47.3756C18.8848 48.2654 21.5469 48.7095 24.205 48.7095C27.095 48.7095 29.9798 48.1842 32.7067 47.1362C33.1863 46.9519 33.4256 46.4137 33.2412 45.9341C33.0568 45.4545 32.5185 45.2149 32.0391 45.3996C24.7807 48.1894 16.9231 46.9218 11.0525 42.5152L11.8859 38.1644L12.2875 38.034C13.8052 37.5409 14.6387 35.905 14.1459 34.3872L13.8511 33.4802C13.7829 33.2704 13.7833 33.0485 13.8521 32.8388C14.1106 32.0506 14.0182 31.1883 13.5986 30.4726C13.1789 29.7571 12.4714 29.2554 11.6573 29.0962L9.55752 28.6859L5.50616 25.6056C5.26344 25.421 4.94573 25.3671 4.65566 25.4613L2.28371 26.2318C2.23338 25.3834 2.23264 24.5353 2.28046 23.6917C2.37405 23.7788 2.43498 23.8381 2.47247 23.877C2.5189 23.9543 2.57639 24.0252 2.64375 24.0866C2.83744 24.263 3.0129 24.343 3.3813 24.343C3.71985 24.3429 4.22101 24.2755 5.04853 24.1532C5.83335 24.0372 6.61408 23.9065 6.6218 23.9052C6.93467 23.8528 7.19916 23.6444 7.32363 23.3527C7.44811 23.061 7.41527 22.726 7.23655 22.4638L6.09589 20.7907L7.72972 19.6223C7.83857 19.5445 7.92936 19.4441 7.99588 19.328L10.5285 14.9065L11.5493 13.8126C12.5925 12.6946 12.8902 11.0587 12.3076 9.64499C11.964 8.81113 11.3637 8.11691 10.613 7.64904C11.4261 7.0098 12.293 6.41959 13.2144 5.88772C16.595 3.93586 20.2843 2.98998 23.9348 2.95379L22.2736 5.03766L16.1135 7.19727C15.8633 7.2849 15.6624 7.47525 15.5613 7.7203L13.841 11.8908C13.7188 12.1872 13.7576 12.5252 13.9438 12.7861L16.4564 16.3058C16.0966 16.6341 15.7463 17.1123 15.3279 17.706C15.1445 17.9664 14.9712 18.2123 14.8515 18.3502C14.7474 18.4702 14.6432 18.5874 14.5399 18.7035C13.9995 19.3115 13.4408 19.9403 13.0438 20.7803C12.171 22.6278 12.3473 24.7752 13.5038 26.3845C14.6222 27.9405 16.4659 28.7315 18.4337 28.5C18.7543 28.4625 19.0532 28.3885 19.3424 28.3169C20.14 28.1195 20.3927 28.0998 20.6485 28.3393C20.773 28.4558 20.7844 28.4779 20.7819 28.8732C20.7802 29.1248 20.7782 29.4377 20.8649 29.7951C21.0038 30.3668 21.3628 30.7619 21.6512 31.0793C21.7946 31.237 21.9429 31.4002 21.9886 31.5097C22.2787 32.205 22.1524 32.5901 21.8755 33.4339C21.8518 33.5061 21.8276 33.5798 21.8033 33.6553C21.3827 34.9574 21.969 36.2489 22.4863 37.3881C22.6543 37.7581 22.8129 38.1074 22.9168 38.4161C23.7533 40.8981 24.3803 41.4666 24.8835 41.6954C25.1471 41.8153 25.4199 41.8678 25.6954 41.8677C27.0365 41.8677 28.4359 40.6225 29.0787 39.8331C29.4825 39.3374 29.5819 38.8411 29.6545 38.4785C29.6907 38.2982 29.7192 38.1559 29.7735 38.0628C29.8567 37.9205 29.9546 37.8102 30.0786 37.6704C30.3281 37.3895 30.6385 37.0401 30.8395 36.4066C30.9923 35.9255 31.1033 35.8075 31.4709 35.416C31.5349 35.348 31.6031 35.2752 31.6763 35.1956C32.9154 33.8473 32.5963 32.8173 32.2583 31.7267C31.9739 30.8091 32.4713 30.2223 33.674 29.1022C34.1954 28.6167 34.7344 28.1147 35.1511 27.5115C35.3335 27.2474 35.8882 26.4443 35.5449 25.6482C35.2084 24.8676 34.3532 24.7364 33.666 24.6311C33.3947 24.5894 32.9846 24.5266 32.8541 24.4412C32.2785 24.0649 31.9263 23.2795 31.5858 22.5199C31.5179 22.3687 31.451 22.2195 31.3832 22.0746C31.2623 21.8162 31.1414 21.5035 31.0135 21.1725C30.6751 20.2965 30.2915 19.3035 29.6385 18.6113C29.0516 17.9894 27.9451 17.6898 26.9689 17.4254C26.6406 17.3366 26.3307 17.2527 26.1264 17.1772C25.9551 17.114 25.7692 17.1025 25.5919 17.1442C25.1168 17.2556 24.8204 17.3783 24.6003 17.5547C24.5421 17.6013 24.3699 17.7543 24.2691 18.0003C23.9285 17.8368 23.4601 17.5247 23.1719 17.3326C23.166 17.3286 23.1599 17.3246 23.154 17.3206C23.2511 16.9319 23.1632 16.62 23.0711 16.4251C22.5514 15.3258 20.8263 15.4119 20.486 15.4408C20.2927 15.457 20.0481 15.4657 19.7894 15.4748C19.383 15.4892 18.9339 15.5054 18.4894 15.5553L18.5123 15.4914C18.8497 14.5515 19.7472 13.92 20.7458 13.92H21.2747C21.7884 13.92 22.205 13.5034 22.205 12.9898C22.205 12.4761 21.7884 12.0595 21.2747 12.0595H20.7458C19.2633 12.0595 17.9057 12.8398 17.1448 14.0679L15.7572 12.1242L17.1223 8.81504L23.1418 6.70465C23.3068 6.64678 23.4523 6.54352 23.5615 6.40666L26.2373 3.05008C33.0746 3.70048 39.5106 7.53405 43.1986 13.922C44.1809 15.6235 44.9076 17.4147 45.3907 19.2469L44.9963 19.5985C44.4816 20.0578 44.18 20.7166 44.1684 21.4061C44.1683 21.4136 44.1682 21.4211 44.1679 21.4285L43.5254 19.6616C43.4297 19.398 43.2886 19.1562 43.1065 18.943L41.9604 17.6012C41.5161 17.081 40.8691 16.7829 40.1853 16.7829H38.7824C38.2844 16.7829 37.8293 17.0556 37.5944 17.4945C37.3595 17.9334 37.3852 18.4635 37.6614 18.8777L37.8034 19.0908C36.8969 19.8704 35.8484 20.4942 34.732 20.9149L32.809 17.2314V16.4096C32.809 16.1554 32.705 15.9121 32.5211 15.7368L30.7895 14.0837C30.6939 13.9925 30.5801 13.9227 30.4555 13.8789L28.8968 13.3311C28.4118 13.1605 27.8809 13.4157 27.7107 13.9003C27.5403 14.3851 27.7952 14.916 28.2799 15.0864L29.6497 15.5678L30.9486 16.8077V17.4597C30.9486 17.6096 30.9849 17.7573 31.0543 17.8902L33.4617 22.5017C33.6781 22.9166 34.1695 23.1062 34.6081 22.9439L35.3091 22.6855C36.9376 22.0849 38.4471 21.1187 39.6743 19.8916C39.9879 19.578 40.0366 19.0868 39.7905 18.7178L39.741 18.6434H40.1853C40.3242 18.6434 40.4556 18.704 40.5459 18.8097L41.6919 20.1515C41.7289 20.1948 41.7574 20.2437 41.777 20.2974L43.0417 23.7753C43.1504 24.0741 43.4042 24.2967 43.7143 24.3655C43.7813 24.3803 43.8488 24.3876 43.9159 24.3876C44.1599 24.3876 44.3974 24.2915 44.5736 24.1151L45.1756 23.513C45.5569 23.1317 45.8193 22.6492 45.9447 22.1144C46.8758 29.5762 43.95 37.295 37.7658 42.149C37.3616 42.4661 37.291 43.0509 37.6084 43.4551C37.9255 43.8593 38.5101 43.9298 38.9145 43.6125C43.3792 40.1082 46.4465 35.096 47.5513 29.4991C48.6664 23.8483 47.6928 17.9858 44.8096 12.9919ZM4.76748 27.3812L8.60348 30.2979C8.71688 30.3842 8.84843 30.4431 8.98816 30.4704L11.3002 30.9222C11.5953 30.9799 11.8415 31.1544 11.9936 31.4138C12.1457 31.6731 12.1777 31.9731 12.0841 32.2588C11.8915 32.8461 11.8906 33.4673 12.0816 34.055L12.3763 34.9619C12.5524 35.5039 12.2545 36.0883 11.7126 36.2644L10.7881 36.5648C10.4656 36.6696 10.2258 36.9416 10.162 37.2745L9.41797 41.1585C7.78219 39.6613 6.34596 37.8918 5.18017 35.8725C3.7579 33.4093 2.86926 30.7819 2.47759 28.1252L4.76748 27.3812ZM10.1891 12.5433L9.09478 13.7158C9.04594 13.7682 9.00323 13.826 8.9676 13.8882L6.48253 18.2269L4.27385 19.8063C3.86247 20.1005 3.76143 20.6692 4.0463 21.0871L4.87233 22.2988C4.39619 22.3696 3.9689 22.4281 3.68478 22.4591C3.63017 22.4067 3.57304 22.3536 3.51397 22.2987C3.29283 22.0932 2.98555 21.8189 2.52746 21.418C3.28297 16.7418 5.53621 12.3365 9.07999 8.97375C9.75856 9.18745 10.3155 9.69365 10.5875 10.3539C10.8936 11.0965 10.7371 11.956 10.1891 12.5433ZM17.774 17.627C18.1889 17.3934 19.152 17.3593 19.8552 17.3344C20.1369 17.3244 20.4032 17.3149 20.641 17.295C20.7665 17.2845 20.9059 17.2864 21.0373 17.2967C20.9786 17.4474 20.9595 17.6128 20.985 17.7769C21.0298 18.0656 21.2077 18.3163 21.4653 18.4541C21.6398 18.5475 21.8827 18.7095 22.1398 18.881C22.8669 19.3657 23.691 19.915 24.4653 19.9643C25.1693 20.01 25.5611 19.6088 25.7289 19.4379C25.7423 19.4243 25.755 19.4107 25.7684 19.3983C25.8629 19.3213 25.9515 19.218 26.0173 19.0935C26.1661 19.136 26.3224 19.1783 26.4826 19.2217C27.0334 19.3709 28.0587 19.6485 28.2853 19.8885C28.6876 20.3151 29.0012 21.127 29.278 21.8433C29.4178 22.2053 29.5499 22.5469 29.6981 22.8637C29.7618 22.9996 29.8244 23.1396 29.888 23.2814C30.3173 24.2389 30.8038 25.3242 31.836 25.9989C32.3041 26.3049 32.8778 26.3928 33.3841 26.4705C33.4453 26.4799 33.5154 26.4907 33.5867 26.5024C33.2862 26.9216 32.8583 27.32 32.4063 27.741C31.2547 28.8135 29.8214 30.1483 30.4815 32.2778C30.793 33.2833 30.8075 33.392 30.3066 33.937C30.2383 34.0113 30.1746 34.079 30.115 34.1425C29.6859 34.5993 29.347 34.96 29.0664 35.8439C28.9849 36.1006 28.8794 36.2195 28.6876 36.4353C28.5343 36.608 28.3433 36.8231 28.1672 37.1245C27.9562 37.4856 27.8864 37.8334 27.8305 38.1128C27.7753 38.3877 27.7441 38.5257 27.6362 38.6582C27.3905 38.9598 26.9322 39.3978 26.4617 39.6967C26.0245 39.9743 25.7692 40.0123 25.6822 40.0071C25.583 39.9006 25.2234 39.4346 24.6801 37.8221C24.5461 37.4242 24.3602 37.0149 24.1805 36.619C23.7843 35.7464 23.3746 34.8439 23.5739 34.2272C23.5975 34.1545 23.6207 34.0834 23.6436 34.0139C23.962 33.0435 24.2625 32.1273 23.7057 30.7931C23.5362 30.3869 23.2664 30.09 23.0285 29.828C22.8745 29.6586 22.7001 29.4666 22.6732 29.356C22.6404 29.2212 22.6415 29.0656 22.6427 28.8854C22.6458 28.3993 22.6507 27.6648 21.9205 26.981C20.891 26.0173 19.6905 26.3142 18.896 26.5107C18.652 26.571 18.4214 26.6281 18.2171 26.6521C16.9102 26.8052 15.7434 26.3122 15.015 25.2985C14.2529 24.2381 14.1423 22.8113 14.7264 21.5749C15.0091 20.9766 15.4362 20.4958 15.9308 19.9395C16.0388 19.8179 16.1478 19.6953 16.2569 19.5697C16.4383 19.3606 16.6379 19.0774 16.849 18.7775C17.101 18.4198 17.5703 17.7537 17.774 17.627Z" stroke="#1792D1" stroke-width="0.334262" mask="url(#path-2-outside-1)"/>
<path d="M38.1469 31.3961L38.1469 31.3961L38.5945 33.0831C38.5945 33.0831 38.5945 33.0831 38.5945 33.0831C38.6424 33.2633 38.6395 33.453 38.5865 33.6317L38.5865 33.6317L37.4923 37.3196C37.1996 38.3058 36.8723 39.0539 36.4945 39.5766C36.1157 40.1008 35.6825 40.4029 35.1804 40.4849L35.1804 40.4849C35.0995 40.4981 35.0118 40.5063 34.9189 40.506C34.9188 40.506 34.9187 40.506 34.9186 40.506L34.9189 40.4225C34.4685 40.4225 33.8889 40.2207 33.3377 39.4359L38.1469 31.3961ZM38.1469 31.3961C38.0404 30.9946 37.6997 30.6987 37.2874 30.6495L37.2871 30.6494M38.1469 31.3961L37.2871 30.6494M33.4272 34.4402L33.5069 34.4653L33.4272 34.4402ZM33.4272 34.4402C33.7183 33.5124 34.4807 33.1445 35.0139 32.8872M33.4272 34.4402L35.0139 32.8872M37.2871 30.6494C36.8746 30.6012 36.4742 30.8075 36.2759 31.1727L36.2759 31.1727M37.2871 30.6494L36.2759 31.1727M36.2759 31.1727C36.1725 31.3633 36.0796 31.5648 35.9911 31.7567L35.9909 31.7571L36.0668 31.7921M36.2759 31.1727L36.0668 31.7921M36.0668 31.7921L35.9909 31.7571C35.9161 31.9195 35.841 32.0821 35.7649 32.2272M36.0668 31.7921L35.7649 32.2272M35.1238 37.0768L35.1332 37.055M35.1238 37.0768L35.1238 37.0769C34.948 37.4897 34.6823 38.1133 34.8601 38.3665C34.8616 38.3686 34.863 38.3706 34.8645 38.3727M35.1238 37.0768L35.2007 37.1095M35.1238 37.0768L35.2006 37.1099L35.2007 37.1095M35.1332 37.055L34.8645 38.3727M35.1332 37.055C35.4166 36.3899 35.3411 35.8791 35.2859 35.5059L35.2858 35.5051L35.1332 37.055ZM34.8645 38.3727C34.8831 38.3991 34.9006 38.4223 34.9168 38.443C34.9324 38.4218 34.949 38.3979 34.9668 38.371C34.9547 38.355 34.9419 38.3376 34.9285 38.3185L34.9285 38.3184C34.9238 38.3117 34.9194 38.3045 34.9154 38.2966C34.9021 38.3176 34.8893 38.3368 34.8772 38.3544C34.8772 38.3545 34.8772 38.3545 34.8772 38.3545C34.8729 38.3608 34.8686 38.3668 34.8645 38.3727ZM35.2007 37.1095L35.21 37.0881L35.2101 37.0877C35.5027 36.401 35.4244 35.8709 35.3687 35.4946L35.3685 35.4929L35.3685 35.4928C35.3327 35.2515 35.324 35.1675 35.3618 35.0473L35.3618 35.0473C35.3651 35.0369 35.3748 35.0197 35.4001 34.9955C35.425 34.9717 35.4606 34.9453 35.5083 34.9155C35.6039 34.8559 35.7363 34.79 35.9013 34.7104L35.9013 34.7104L35.9057 34.7083C35.9965 34.6644 36.0941 34.6172 36.1948 34.5647M35.2007 37.1095L36.1948 34.5647M36.1948 34.5647L35.5485 36.7428L35.6286 36.7666L36.1948 34.5647ZM35.7649 32.2272C35.6883 32.373 35.6131 32.4959 35.5393 32.5809M35.7649 32.2272L35.5393 32.5809M35.5393 32.5809C35.5046 32.6208 35.4356 32.6688 35.3387 32.7231M35.5393 32.5809L35.3387 32.7231M35.3387 32.7231C35.2441 32.7761 35.1326 32.8299 35.02 32.8843M35.3387 32.7231L35.02 32.8843M35.02 32.8843L35.0139 32.8872M35.02 32.8843L35.0139 32.8872" fill="#ffffff" stroke="#1792D1" stroke-width="0.167131"/>
<path d="M25.5177 12.0547L25.5176 12.0547L25.4549 12.0328C25.4548 12.0328 25.4548 12.0327 25.4548 12.0327C24.9269 11.8479 24.348 12.1255 24.1627 12.6539L24.1627 12.6539C23.9773 13.1823 24.2555 13.7608 24.7838 13.9461L24.7838 13.9461L24.8465 13.968C24.8465 13.9681 24.8465 13.9681 24.8465 13.9681C24.9574 14.0069 25.0706 14.0254 25.1821 14.0254C25.6005 14.0254 25.9923 13.7643 26.1388 13.3469L26.1388 13.3469C26.3241 12.8185 26.046 12.24 25.5177 12.0547Z" fill="#ffffff" stroke="#1792D1" stroke-width="0.167131"/>
</svg>
