<svg width="17" height="22" viewBox="0 0 17 22" fill="none" xmlns="http://www.w3.org/2000/svg">
<path d="M16.9634 9.28346C16.9634 8.69899 16.2647 4.34841 11.9888 4.30886C11.9668 4.2693 11.9448 4.22975 11.9229 4.1902L16.313 1.71169C16.7481 1.46559 16.8975 0.920672 16.6514 0.490008C16.4053 0.0593435 15.8516 -0.0900705 15.4209 0.151629L10.7363 2.79714C9.77832 2.00612 8.53906 1.5403 7.2207 1.5403C4.42578 1.5403 2.04395 3.53102 1.28809 6.5237C1.28809 6.5237 0.703613 8.6111 0.703613 9.36696C0.703613 13.3352 3.89844 16.6048 7.92822 17.0354V19.7776H5.76611C5.26514 19.7776 4.86084 20.1775 4.86084 20.6741C4.86084 21.1707 5.26514 21.5706 5.76611 21.5706H11.9009C12.4019 21.5706 12.8062 21.1707 12.8062 20.6741C12.8062 20.1775 12.4019 19.7776 11.9009 19.7776H9.73877V17.0354C13.7949 16.6004 16.9634 13.2913 16.9634 9.28346ZM7.2207 3.33327C7.85791 3.33327 8.46436 3.49587 8.99609 3.78151L7.60303 4.56374C7.16797 4.80983 7.00977 5.36354 7.26465 5.78542C7.61621 6.36989 8.35449 6.2029 8.49512 6.1238L10.3452 5.0779C10.4463 5.24928 10.5298 5.42507 10.6001 5.61403C10.7583 6.04909 11.2241 6.29518 11.6768 6.17653C13.3467 5.74147 14.8628 6.89723 14.9507 8.38698H2.72949L3.05029 6.93239C3.59522 4.77907 5.26953 3.33327 7.2207 3.33327ZM2.58008 10.1843H15.0869C14.6299 13.0672 11.9976 15.2864 8.8335 15.2864C5.66504 15.2864 3.03711 13.0672 2.58008 10.1843Z" fill="#75808B"/>
</svg>
