<svg width="21" height="22" viewBox="0 0 21 22" fill="none" xmlns="http://www.w3.org/2000/svg">
<path d="M20.4959 19.8573L18.233 13.0811V1.41468C18.233 0.941154 17.8516 0.559814 17.3781 0.559814H3.23924C2.7657 0.559814 2.38437 0.941154 2.38437 1.41468V13.0811L0.0837585 19.9662C-0.075482 20.4104 0.184331 21.0935 0.892533 21.0935H19.7206C19.7248 21.0935 19.7248 21.0935 19.729 21.0935C20.4917 21.0935 20.7054 20.3643 20.4959 19.8573ZM4.09411 2.26955H16.5191V12.3604H4.09411V2.26955ZM2.08265 19.3837L3.85524 14.0743H16.7579L18.5305 19.3837H2.08265Z" fill="#75808B"/>
<path d="M14.2864 15.8728H6.32435C5.85082 15.8728 5.46948 16.2541 5.46948 16.7277C5.46948 17.2012 5.85082 17.5825 6.32435 17.5825H14.2864C14.7599 17.5825 15.1413 17.2012 15.1413 16.7277C15.1413 16.2583 14.7557 15.8728 14.2864 15.8728Z" fill="#75808B"/>
</svg>
