<svg width="23" height="23" viewBox="0 0 23 23" fill="none" xmlns="http://www.w3.org/2000/svg">
<g clip-path="url(#clip0_324_8723)">
<path d="M21.2289 1.4707H1.92734C1.4418 1.4707 1.05078 1.86172 1.05078 2.34727V21.6488C1.05078 22.1344 1.4418 22.5254 1.92734 22.5254H21.2289C21.7145 22.5254 22.1055 22.1344 22.1055 21.6488V2.34727C22.1055 1.86172 21.7145 1.4707 21.2289 1.4707ZM20.3523 20.7723H2.80391V3.22383H20.3481V20.7723H20.3523Z" fill="#75808B"/>
<path d="M10.052 8.47993H16.9828C17.4684 8.47993 17.8594 8.08892 17.8594 7.60337C17.8594 7.11782 17.4684 6.72681 16.9828 6.72681H10.052C9.56643 6.72681 9.17542 7.11782 9.17542 7.60337C9.17542 8.08462 9.56643 8.47993 10.052 8.47993Z" fill="#75808B"/>
<path d="M10.052 12.8751H16.9828C17.4684 12.8751 17.8594 12.4841 17.8594 11.9985C17.8594 11.513 17.4684 11.122 16.9828 11.122H10.052C9.56643 11.122 9.17542 11.513 9.17542 11.9985C9.17542 12.4841 9.56643 12.8751 10.052 12.8751Z" fill="#75808B"/>
<path d="M10.052 17.2752H16.9828C17.4684 17.2752 17.8594 16.8842 17.8594 16.3986C17.8594 15.9131 17.4684 15.5221 16.9828 15.5221H10.052C9.56643 15.5221 9.17542 15.9131 9.17542 16.3986C9.17542 16.8799 9.56643 17.2752 10.052 17.2752Z" fill="#75808B"/>
<path d="M6.25583 17.2752C6.73995 17.2752 7.1324 16.8827 7.1324 16.3986C7.1324 15.9145 6.73995 15.5221 6.25583 15.5221C5.77172 15.5221 5.37927 15.9145 5.37927 16.3986C5.37927 16.8827 5.77172 17.2752 6.25583 17.2752Z" fill="#75808B"/>
<path d="M6.25583 12.8751C6.73995 12.8751 7.1324 12.4827 7.1324 11.9985C7.1324 11.5144 6.73995 11.122 6.25583 11.122C5.77172 11.122 5.37927 11.5144 5.37927 11.9985C5.37927 12.4827 5.77172 12.8751 6.25583 12.8751Z" fill="#75808B"/>
<path d="M6.25583 8.47502C6.73995 8.47502 7.1324 8.08257 7.1324 7.59846C7.1324 7.11434 6.73995 6.72189 6.25583 6.72189C5.77172 6.72189 5.37927 7.11434 5.37927 7.59846C5.37927 8.08257 5.77172 8.47502 6.25583 8.47502Z" fill="#75808B"/>
</g>
<defs>
<clipPath id="clip0_324_8723">
<rect width="22" height="22" fill="white" transform="translate(0.578125 0.998535)"/>
</clipPath>
</defs>
</svg>
