<svg width="14" height="13" viewBox="0 0 14 13" fill="none" xmlns="http://www.w3.org/2000/svg">
<g clip-path="url(#clip0_324_5195)">
<path d="M5.47936 10.0616C5.84992 10.0616 6.22043 9.91539 6.22043 9.62289V7.64852H7.16106C8.47219 7.64852 9.49832 7.06352 9.49832 5.52787V5.48216C9.49832 3.94654 8.51019 3.37982 7.25606 3.37982H5.28936C4.95678 3.37982 4.73828 3.58092 4.73828 3.80943V9.62287C4.73825 9.91542 5.10882 10.0616 5.47936 10.0616ZM6.22043 4.62297H7.16106C7.69311 4.62297 8.01614 4.91547 8.01614 5.53703V5.63758C8.01614 6.25914 7.69311 6.55164 7.16106 6.55164H6.22043V4.62297Z" fill="#75808B"/>
<path d="M13.1565 0H0.699707C0.408185 0 0.171875 0.227348 0.171875 0.507812V12.4922C0.171875 12.7727 0.408185 13 0.699707 13H13.1565C13.4481 13 13.6844 12.7727 13.6844 12.4922V0.507812C13.6844 0.227348 13.4481 0 13.1565 0ZM12.6287 11.9844H1.22754V1.01562H12.6287V11.9844Z" fill="#75808B"/>
</g>
<defs>
<clipPath id="clip0_324_5195">
<rect width="13.5125" height="13" fill="white" transform="translate(0.171875)"/>
</clipPath>
</defs>
</svg>
