<svg width="23" height="25" viewBox="0 0 23 25" fill="none" xmlns="http://www.w3.org/2000/svg">
<path d="M9.62403 20.8065C10.1094 20.8065 10.5029 20.3868 10.5029 19.869C10.5029 19.3513 10.1094 18.9315 9.62403 18.9315C9.13862 18.9315 8.74512 19.3513 8.74512 19.869C8.74512 20.3868 9.13862 20.8065 9.62403 20.8065Z" fill="#75808B"/>
<path d="M9.62403 17.5259C10.1094 17.5259 10.5029 17.1062 10.5029 16.5884C10.5029 16.0706 10.1094 15.6509 9.62403 15.6509C9.13862 15.6509 8.74512 16.0706 8.74512 16.5884C8.74512 17.1062 9.13862 17.5259 9.62403 17.5259Z" fill="#75808B"/>
<path d="M16.3883 19.399C15.9029 19.399 15.5094 19.8188 15.5094 20.3366C15.5094 20.8543 15.9029 21.2741 16.3883 21.2741H18.1461C18.6315 21.2741 19.025 20.8543 19.025 20.3366C19.025 19.8188 18.6315 19.399 18.1461 19.399H16.3883Z" fill="#75808B"/>
<path d="M22.443 21.1194C22.3441 20.6125 21.8786 20.2873 21.4034 20.3927C20.9282 20.4982 20.6231 20.9947 20.7221 21.5016C20.7791 21.7936 20.7112 22.0929 20.5359 22.3228C20.4344 22.4559 20.208 22.6793 19.8328 22.6793H13.9735L13.9746 14.8513C13.9746 14.5776 13.8626 14.3176 13.6679 14.1395L12.915 13.4509C15.4945 13.93 17.8038 15.5091 19.2924 17.8773C19.5627 18.3073 20.1087 18.4222 20.5119 18.1338C20.9151 17.8455 21.0227 17.2631 20.7524 16.833C19.3103 14.5387 17.2159 12.8707 14.8281 12.0325C16.2833 10.8687 17.2266 9.01422 17.2266 6.92922C17.2266 6.37084 17.1586 5.81636 17.0247 5.28113C17.0093 5.21963 16.9884 5.16127 16.9629 5.10629V3.36671C16.9629 1.81589 15.7801 0.554199 14.3262 0.554199H8.1738C6.71991 0.554199 5.53707 1.81589 5.53707 3.36671V5.07062C5.5245 5.10315 5.51312 5.13648 5.5038 5.17107C5.35087 5.74046 5.2734 6.33198 5.2734 6.92922C5.2734 9.01558 6.21787 10.871 7.67475 12.0348C6.34009 12.5034 5.0876 13.2322 3.99155 14.1939C1.98184 15.9572 0.584507 18.4167 0.0570297 21.1194C-0.108293 21.9662 0.0897251 22.8361 0.600327 23.5057C1.10829 24.1721 1.86165 24.5543 2.66708 24.5543H19.8327C20.6382 24.5543 21.3916 24.1721 21.8996 23.5057C22.4103 22.8361 22.6083 21.9662 22.443 21.1194ZM7.29484 3.36671C7.29484 2.84977 7.68912 2.4292 8.17375 2.4292H14.3261C14.8107 2.4292 15.205 2.84977 15.205 3.36671V4.30421H7.29484V3.36671ZM7.03117 6.92922C7.03117 6.67665 7.05112 6.42592 7.08984 6.17922H15.4102C15.4489 6.42597 15.4687 6.67689 15.4687 6.92922C15.4687 9.33565 13.6887 11.3068 11.4593 11.4237C11.3896 11.4223 11.3199 11.4214 11.2499 11.4214C11.1813 11.4214 11.1128 11.4225 11.0443 11.4238C8.81325 11.309 7.03117 9.33701 7.03117 6.92922ZM12.2156 22.6793H2.66708C2.29188 22.6793 2.06551 22.4559 1.964 22.3227C1.7887 22.0928 1.72085 21.7935 1.77785 21.5016C2.6285 17.1433 6.04693 13.8811 10.1236 13.3676L12.2167 15.2821L12.2156 22.6793Z" fill="#75808B"/>
</svg>
