<svg width="15" height="14" viewBox="0 0 15 14" fill="none" xmlns="http://www.w3.org/2000/svg">
<g clip-path="url(#clip0_324_5218)">
<path d="M3.26302 4.91401H11.2922C11.6133 4.91401 11.872 4.66519 11.872 4.3562C11.872 4.04722 11.6133 3.79839 11.2922 3.79839H10.9738C10.6754 2.57886 9.44474 1.35659 7.85313 1.11323C7.81618 0.837061 7.57459 0.623779 7.27901 0.623779C6.98342 0.623779 6.739 0.837061 6.70489 1.1105C5.11327 1.35386 3.88261 2.57612 3.58418 3.79565H3.26586C2.9447 3.79565 2.68606 4.04448 2.68606 4.35347C2.68322 4.66245 2.9447 4.91401 3.26302 4.91401ZM7.27901 2.18511C8.45567 2.18511 9.44474 2.97261 9.77159 3.79839H4.78642C5.11327 2.97261 6.10235 2.18511 7.27901 2.18511Z" fill="#75808B"/>
<path d="M13.662 7.57186C13.9832 7.57186 14.2418 7.32303 14.2418 7.01405C14.2418 6.70507 13.9832 6.45624 13.662 6.45624H0.894989C0.573823 6.45624 0.315186 6.70507 0.315186 7.01405C0.315186 7.32303 0.573823 7.57186 0.894989 7.57186H2.06312V10.4621C1.30142 10.6973 0.747196 11.389 0.747196 12.1984C0.747196 13.2047 1.59701 14.0223 2.64577 14.0223C3.69169 14.0223 4.54149 13.2047 4.54149 12.1984C4.54149 11.3863 3.98727 10.6973 3.22557 10.4621V7.57186H11.3343V10.4621C10.5726 10.6973 10.0184 11.389 10.0184 12.1984C10.0184 13.2047 10.8682 14.0223 11.9141 14.0223C12.96 14.0223 13.8127 13.2047 13.8127 12.1984C13.8127 11.3863 13.2584 10.6973 12.4967 10.4621V7.57186H13.662ZM2.64292 12.9066C2.23649 12.9066 1.9068 12.5894 1.9068 12.1984C1.9068 11.8074 2.23649 11.4902 2.64292 11.4902C3.04936 11.4902 3.37905 11.8074 3.37905 12.1984C3.37905 12.5867 3.04936 12.9066 2.64292 12.9066ZM11.9141 12.9066C11.5077 12.9066 11.178 12.5894 11.178 12.1984C11.178 11.8074 11.5077 11.4902 11.9141 11.4902C12.3205 11.4902 12.6502 11.8074 12.6502 12.1984C12.6502 12.5867 12.3205 12.9066 11.9141 12.9066Z" fill="#75808B"/>
</g>
<defs>
<clipPath id="clip0_324_5218">
<rect width="14.5519" height="14" fill="white"/>
</clipPath>
</defs>
</svg>
