<svg width="23" height="21" viewBox="0 0 23 21" fill="none" xmlns="http://www.w3.org/2000/svg">
<path d="M19.2494 0.973145H4.28085C2.40502 0.973145 0.878906 2.49926 0.878906 4.37509V13.5603C0.878906 15.4362 2.40502 16.9623 4.28085 16.9623H4.96124C5.43097 16.9623 5.81173 16.5815 5.81173 16.1118C5.81173 15.6421 5.43097 15.2613 4.96124 15.2613H4.28085C3.34294 15.2613 2.57988 14.4983 2.57988 13.5603V7.18688H20.9504V9.3131C20.9504 9.78283 21.3312 10.1636 21.8009 10.1636C22.2706 10.1636 22.6514 9.78283 22.6514 9.3131V4.37509C22.6514 2.49926 21.1253 0.973145 19.2494 0.973145ZM20.9504 5.48591H2.57988V4.37509C2.57988 3.43717 3.34294 2.67412 4.28085 2.67412H19.2494C20.1873 2.67412 20.9504 3.43717 20.9504 4.37509V5.48591Z" fill="#75808B"/>
<path d="M19.9109 11.9023H17.2586C17.2567 11.9023 17.2549 11.9023 17.253 11.9023C16.2962 11.9023 15.4614 12.4662 15.1255 13.34C15.0808 13.4563 15.0262 13.6027 14.9691 13.7735H9.40071C9.17073 13.7735 8.95067 13.8665 8.79048 14.0315L7.32952 15.5363C7.00773 15.8678 7.00935 16.3955 7.33313 16.7249L8.82148 18.2393C8.98142 18.402 9.19999 18.4936 9.42809 18.4936H12.1922C12.6619 18.4936 13.0427 18.1128 13.0427 17.6431C13.0427 17.1734 12.6619 16.7926 12.1922 16.7926H9.7847L9.12864 16.1251L9.76038 15.4744H15.6071C15.9989 15.4744 16.34 15.2067 16.4332 14.8262C16.502 14.5451 16.5884 14.2751 16.7132 13.9503C16.7956 13.7361 17.0023 13.6033 17.255 13.6033C17.2555 13.6033 17.2561 13.6033 17.2567 13.6033H19.9089C20.1494 13.6039 20.3565 13.7331 20.4492 13.9406C20.6775 14.4514 20.9501 15.2422 20.9522 16.1088C20.9543 16.9817 20.6819 17.7906 20.453 18.3155C20.3608 18.5272 20.152 18.6637 19.9208 18.6637C19.9204 18.6637 19.92 18.6637 19.9195 18.6637L17.2331 18.6575C16.9926 18.6569 16.7774 18.5115 16.6848 18.2871C16.5853 18.046 16.4991 17.7706 16.4212 17.4452C16.3118 16.9883 15.8525 16.7067 15.3961 16.8161C14.9393 16.9254 14.6577 17.3844 14.767 17.8412C14.8658 18.2537 14.9787 18.6117 15.1123 18.9356C15.4679 19.7977 16.2988 20.3562 17.2291 20.3584L19.9155 20.3647C19.9173 20.3647 19.919 20.3647 19.9208 20.3647C20.8288 20.3647 21.6493 19.8276 22.0122 18.9954C22.3062 18.3213 22.6559 17.2726 22.6532 16.1048C22.6504 14.94 22.2976 13.9075 22.0021 13.2464C21.638 12.432 20.818 11.9045 19.9109 11.9023Z" fill="#75808B"/>
<path d="M19.2074 16.9627C19.6771 16.9627 20.0579 16.5819 20.0579 16.1122C20.0579 15.6425 19.6771 15.2617 19.2074 15.2617C18.7377 15.2617 18.3569 15.6425 18.3569 16.1122C18.3569 16.5819 18.7377 16.9627 19.2074 16.9627Z" fill="#75808B"/>
</svg>
