<svg width="22" height="22" viewBox="0 0 22 22" fill="none" xmlns="http://www.w3.org/2000/svg">
<path d="M21.1021 0.0483398H17.8643C17.4914 0.0483398 17.158 0.280863 17.0263 0.627454L12.6084 12.3326H4.04453L2.50023 5.21649H11.0992C11.595 5.21649 11.9942 4.81726 11.9942 4.3215C11.9942 3.82574 11.595 3.42651 11.0992 3.42651H1.39026C0.512813 3.42651 0.455779 4.24692 0.512813 4.51015L2.44319 13.4206C2.53094 13.833 2.89508 14.127 3.32064 14.127H13.2226C13.5955 14.127 13.929 13.8944 14.0606 13.5478L18.4829 1.83833H21.1021C21.5978 1.83833 21.9971 1.43909 21.9971 0.943334C21.9971 0.447578 21.5934 0.0483398 21.1021 0.0483398Z" fill="#75808B"/>
<path d="M4.68177 15.5615C3.02779 15.5615 1.68091 16.904 1.68091 18.5536C1.68091 20.2032 3.02779 21.5457 4.68177 21.5457C6.33576 21.5457 7.68264 20.2032 7.68264 18.5536C7.68264 16.904 6.33576 15.5615 4.68177 15.5615ZM4.68177 19.7557C4.01491 19.7557 3.4709 19.2161 3.4709 18.558C3.4709 17.8955 4.01491 17.3603 4.68177 17.3603C5.34863 17.3603 5.88826 17.8999 5.88826 18.558C5.88826 19.2161 5.34863 19.7557 4.68177 19.7557Z" fill="#75808B"/>
<path d="M11.7904 15.5615C10.1364 15.5615 8.78955 16.904 8.78955 18.5536C8.78955 20.2032 10.1364 21.5457 11.7904 21.5457C13.4444 21.5457 14.7913 20.2032 14.7913 18.5536C14.7913 16.904 13.4444 15.5615 11.7904 15.5615ZM11.7904 19.7557C11.1236 19.7557 10.5795 19.2161 10.5795 18.558C10.5795 17.8955 11.1236 17.3603 11.7904 17.3603C12.4573 17.3603 12.9969 17.8999 12.9969 18.558C12.9969 19.2161 12.4573 19.7557 11.7904 19.7557Z" fill="#75808B"/>
</svg>
