<svg width="23" height="24" viewBox="0 0 23 24" fill="none" xmlns="http://www.w3.org/2000/svg">
<path d="M19.5119 7.66247C19.5137 7.66436 19.5156 7.66593 19.5174 7.66781C19.5154 7.66483 19.4989 7.64647 19.5119 7.66247Z" fill="#75808B"/>
<path d="M5.40509 11.4093C5.40392 11.408 5.40271 11.4067 5.40155 11.4055C4.9343 10.9115 4.31304 10.6394 3.65224 10.6394C2.99143 10.6394 2.37021 10.9115 1.90297 11.4055C0.969478 12.3925 0.939476 13.9784 1.81288 15.0039C1.56972 15.1342 1.34577 15.307 1.14987 15.52C0.205201 16.5474 0.216338 18.2075 1.17288 19.2187L2.41614 20.5409L1.56117 21.4437C1.22382 21.8 1.22347 22.378 1.56039 22.7346C1.72901 22.9131 1.95011 23.0024 2.1713 23.0024C2.39205 23.0024 2.61286 22.9134 2.78142 22.7354L3.63363 21.8356L4.86856 23.1488C5.2657 23.5688 5.79139 23.837 6.34881 23.904C6.44503 23.9155 6.54086 23.9212 6.63617 23.9212C7.30656 23.9212 7.94406 23.6386 8.41872 23.1223C8.58815 22.938 8.72633 22.7332 8.8343 22.5156C9.31008 22.992 9.92207 23.231 10.5344 23.231C11.168 23.231 11.8014 22.9761 12.2837 22.4662C13.2476 21.4471 13.2482 19.7893 12.2856 18.7693L5.40509 11.4093ZM7.18056 21.8498C7.01393 22.031 6.78173 22.1185 6.54371 22.09C6.42293 22.0755 6.24612 22.0234 6.0914 21.8599L2.39572 17.9298C2.10124 17.6184 2.09783 17.1083 2.38813 16.7926C2.53213 16.6359 2.72531 16.5488 2.93199 16.5472C2.93385 16.5472 2.9357 16.5472 2.93756 16.5472C3.11817 16.5472 3.28898 16.613 3.42496 16.7324L7.2798 20.8559C7.46188 21.1647 7.4298 21.5787 7.18056 21.8498ZM11.0627 21.1752C10.7719 21.4827 10.2989 21.4831 10.0075 21.1767L3.124 13.8134C2.83275 13.5054 2.83275 13.0043 3.124 12.6963C3.26511 12.5471 3.45267 12.465 3.65219 12.465C3.85107 12.465 4.03811 12.5466 4.17909 12.6949L11.0591 20.0544C11.0603 20.0556 11.0615 20.0569 11.0627 20.0581C11.354 20.3662 11.354 20.8673 11.0627 21.1752Z" fill="#75808B"/>
<path d="M12.5006 3.19708C12.7002 3.19708 12.8877 3.27923 13.0315 3.43125L18.2956 8.95458C18.7793 9.46592 19.4187 9.72224 20.0586 9.72215C20.6864 9.7221 21.3146 9.47533 21.7959 8.98069C22.3535 8.40755 22.623 7.60991 22.5351 6.79228C22.4719 6.20312 22.2183 5.64728 21.8192 5.22552L20.5788 3.92165L21.4299 3.02064C21.7669 2.66396 21.7666 2.08594 21.4292 1.72973C21.0918 1.37351 20.5451 1.37378 20.2082 1.7305L19.3542 2.63444L18.1055 1.32176C17.1472 0.308652 15.5771 0.296922 14.6053 1.29565C14.4018 1.50481 14.237 1.74433 14.1134 2.00448C13.6649 1.59532 13.0992 1.37141 12.5007 1.37141C11.8399 1.37141 11.2187 1.64347 10.7514 2.13747C10.2842 2.63142 10.0268 3.28831 10.0268 3.98691C10.0268 4.68552 10.2841 5.34236 10.7495 5.83435L13.53 8.7927L9.37841 13.1936C9.04171 13.5505 9.0424 14.1284 9.38001 14.4845C9.54854 14.6622 9.76912 14.751 9.98975 14.751C10.2111 14.751 10.4324 14.6616 10.6011 14.4827L14.7472 10.0877L17.5889 13.1111C18.0561 13.6051 18.6774 13.8772 19.3381 13.8772C19.9989 13.8772 20.6202 13.6051 21.0875 13.1111C21.4246 12.7546 21.4246 12.1766 21.0875 11.8202C20.7503 11.4637 20.2036 11.4637 19.8664 11.8202C19.7253 11.9694 19.5377 12.0515 19.3382 12.0515C19.1387 12.0515 18.9511 11.9694 18.8118 11.8222L11.9724 4.5454C11.8313 4.39621 11.7536 4.19791 11.7536 3.98691C11.7536 3.77592 11.8313 3.57762 11.9724 3.42842C12.1135 3.27923 12.3011 3.19708 12.5006 3.19708ZM15.8089 2.60477C15.9566 2.45297 16.1492 2.37717 16.3421 2.37717C16.5392 2.37717 16.7365 2.45635 16.8863 2.61463L20.6 6.5183C20.7564 6.68375 20.8057 6.87064 20.8194 6.99829C20.8464 7.25009 20.7636 7.49553 20.5923 7.6717C20.2952 7.97698 19.8164 7.97475 19.5197 7.66641C19.5204 7.66732 19.5195 7.66659 19.5149 7.66175L15.8013 3.75812C15.6551 3.60363 15.5755 3.39826 15.5769 3.17978C15.5784 2.96121 15.6608 2.75702 15.8089 2.60477Z" fill="#75808B"/>
</svg>
