<svg width="71" height="12" viewBox="0 0 71 12" fill="none" xmlns="http://www.w3.org/2000/svg">
<path d="M6.23654 0L7.63673 4.1459H12.1678L8.50209 6.7082L9.90228 10.8541L6.23654 8.2918L2.57079 10.8541L3.97098 6.7082L0.305238 4.1459H4.83635L6.23654 0Z" fill="#FF8310"/>
<path d="M20.7885 0L22.1887 4.1459H26.7198L23.0541 6.7082L24.4543 10.8541L20.7885 8.2918L17.1228 10.8541L18.523 6.7082L14.8572 4.1459H19.3883L20.7885 0Z" fill="#FF8310"/>
<path d="M35.341 0L36.7412 4.1459H41.2723L37.6066 6.7082L39.0068 10.8541L35.341 8.2918L31.6753 10.8541L33.0755 6.7082L29.4097 4.1459H33.9408L35.341 0Z" fill="#FF8310"/>
<path d="M49.8928 0L51.293 4.1459H55.8241L52.1583 6.7082L53.5585 10.8541L49.8928 8.2918L46.227 10.8541L47.6272 6.7082L43.9615 4.1459H48.4926L49.8928 0Z" fill="#E0E3E6"/>
<path d="M64.4453 0L65.8455 4.1459H70.3766L66.7108 6.7082L68.111 10.8541L64.4453 8.2918L60.7795 10.8541L62.1797 6.7082L58.514 4.1459H63.0451L64.4453 0Z" fill="#E0E3E6"/>
</svg>
