<svg width="23" height="24" viewBox="0 0 23 24" fill="none" xmlns="http://www.w3.org/2000/svg">
<path d="M22.3263 19.6934C21.932 19.4041 21.3904 19.5074 21.1167 19.9243C20.0152 21.6019 16.8091 21.6029 15.7071 19.9243C15.5446 19.6769 15.2779 19.5294 14.993 19.5294C14.7081 19.5294 14.4414 19.6769 14.279 19.9243C13.1775 21.6019 9.97145 21.6029 8.86935 19.9243C8.7069 19.6769 8.44018 19.5294 8.1553 19.5294C7.87042 19.5294 7.60367 19.6769 7.44126 19.9243C6.33976 21.602 3.13377 21.6029 2.03167 19.9243C1.75791 19.5074 1.21627 19.4041 0.822004 19.6934C0.427648 19.9828 0.329864 20.5554 0.603618 20.9723C2.19938 23.4028 6.05719 23.6659 8.1553 21.7971C10.0004 23.4405 13.1695 23.4212 14.993 21.7971C17.0905 23.6654 20.9503 23.4006 22.5446 20.9723C22.8184 20.5554 22.7206 19.9828 22.3263 19.6934Z" fill="#75808B"/>
<path d="M4.70721 14.4745C5.18727 14.4745 5.57641 14.063 5.57641 13.5555V12.1772H13.3992V13.5555C13.3992 14.063 13.7883 14.4745 14.2684 14.4745C14.7484 14.4745 15.1376 14.063 15.1376 13.5555V3.53938C15.1376 2.83002 15.6834 2.2529 16.3544 2.2529C17.0254 2.2529 17.5713 2.83002 17.5713 3.53938C17.5713 4.04688 17.9604 4.45831 18.4405 4.45831C18.9206 4.45831 19.3097 4.04688 19.3097 3.53938C19.3097 1.81662 17.984 0.415039 16.3545 0.415039C14.725 0.415039 13.3992 1.81662 13.3992 3.53938V6.20422H5.57641V3.53938C5.57641 2.83002 6.12227 2.2529 6.79329 2.2529C7.46431 2.2529 8.01017 2.83002 8.01017 3.53938C8.01017 4.04688 8.39931 4.45831 8.87937 4.45831C9.35942 4.45831 9.74856 4.04688 9.74856 3.53938C9.74852 1.81662 8.42282 0.415039 6.79329 0.415039C5.16376 0.415039 3.83801 1.81662 3.83801 3.53938V13.5556C3.83801 14.063 4.22715 14.4745 4.70721 14.4745ZM5.57641 8.04204H13.3992V10.3393H5.57641V8.04204Z" fill="#75808B"/>
<path d="M8.15543 17.6626C9.0305 18.442 10.2442 18.8868 11.5743 18.8868C12.9043 18.8868 14.118 18.442 14.9931 17.6626C17.0906 19.5309 20.9504 19.2661 22.5447 16.8378C22.8185 16.4208 22.7207 15.8483 22.3263 15.5589C21.932 15.2695 21.3904 15.3729 21.1167 15.7898C20.0152 17.4674 16.8091 17.4684 15.7071 15.7898C15.5446 15.5424 15.2779 15.3948 14.993 15.3948C14.7081 15.3948 14.4414 15.5424 14.279 15.7898C13.1775 17.4674 9.97145 17.4684 8.86935 15.7898C8.7069 15.5424 8.44018 15.3948 8.1553 15.3948C7.87042 15.3948 7.60367 15.5424 7.44126 15.7898C6.33976 17.4675 3.13377 17.4684 2.03167 15.7898C1.75791 15.3728 1.21627 15.2695 0.822004 15.5589C0.427648 15.8483 0.329863 16.4208 0.603618 16.8378C2.19938 19.2683 6.05719 19.5314 8.15543 17.6626Z" fill="#75808B"/>
</svg>
