<svg width="14" height="13" viewBox="0 0 14 13" fill="none" xmlns="http://www.w3.org/2000/svg">
<g clip-path="url(#clip0_324_5231)">
<path d="M10.451 9.16599C10.8154 9.16599 11.1108 8.88179 11.1108 8.53122C11.1108 8.18065 10.8154 7.89645 10.451 7.89645C10.0867 7.89645 9.79126 8.18065 9.79126 8.53122C9.79126 8.88179 10.0867 9.16599 10.451 9.16599Z" fill="#75808B"/>
<path d="M3.0614 9.16599C3.42579 9.16599 3.72119 8.88179 3.72119 8.53122C3.72119 8.18065 3.42579 7.89645 3.0614 7.89645C2.69701 7.89645 2.40161 8.18065 2.40161 8.53122C2.40161 8.88179 2.69701 9.16599 3.0614 9.16599Z" fill="#75808B"/>
<path d="M11.929 5.99219H11.9121L10.8884 2.30641C10.8267 2.08424 10.6176 1.92969 10.3785 1.92969H9.39541V0.507812C9.39541 0.227348 9.1591 0 8.86758 0H4.64492C4.3534 0 4.11709 0.227348 4.11709 0.507812V1.92969H3.134C2.89495 1.92969 2.68577 2.08424 2.62406 2.30641L1.60044 5.99219H1.5835C0.710356 5.99219 0 6.6756 0 7.51562V9.54688C0 10.3869 0.710356 11.0703 1.5835 11.0703H2.00576V12.4922C2.00576 12.7727 2.24207 13 2.53359 13H4.53935C4.83088 13 5.06719 12.7727 5.06719 12.4922V11.0703H8.44531V12.4922C8.44531 12.7727 8.68162 13 8.97314 13H10.9789C11.2704 13 11.5067 12.7727 11.5067 12.4922V11.0703H11.929C12.8021 11.0703 13.5125 10.3869 13.5125 9.54688V7.51562C13.5125 6.6756 12.8021 5.99219 11.929 5.99219ZM5.17275 1.01562H8.33974V1.92969H5.17275V1.01562ZM3.5393 2.94531C3.72924 2.94531 9.78389 2.94531 9.97317 2.94531L10.8194 5.99219H2.69313L3.5393 2.94531ZM4.01152 11.9844H3.06143V11.0703H4.01152V11.9844ZM10.4511 11.9844H9.50097V11.0703H10.4511V11.9844ZM12.4568 9.54688C12.4568 9.82688 12.22 10.0547 11.929 10.0547C11.4371 10.0547 4.60905 10.0547 4.53935 10.0547C4.22181 10.0547 1.88895 10.0547 1.5835 10.0547C1.29245 10.0547 1.05566 9.82688 1.05566 9.54688V7.51562C1.05566 7.23562 1.29245 7.00781 1.5835 7.00781C2.82329 7.00781 10.7755 7.00781 11.929 7.00781C12.22 7.00781 12.4568 7.23562 12.4568 7.51562V9.54688Z" fill="#75808B"/>
</g>
<defs>
<clipPath id="clip0_324_5231">
<rect width="13.5125" height="13" fill="white"/>
</clipPath>
</defs>
</svg>
