<svg width="23" height="25" viewBox="0 0 23 25" fill="none" xmlns="http://www.w3.org/2000/svg">
<path d="M6.77251 7.54089C6.93926 7.72028 7.16719 7.82131 7.40506 7.82131H10.2875C10.7774 7.82131 11.1745 7.4015 11.1745 6.8836C11.1745 6.36571 10.7774 5.94589 10.2875 5.94589H7.77695L7.09278 5.20993L7.75158 4.49244H13.8487C14.2573 4.49244 14.613 4.19735 14.7102 3.77772C14.7819 3.46804 14.8719 3.17022 15.0021 2.81207C15.0882 2.57543 15.3039 2.42943 15.5689 2.42948H18.3347C18.5856 2.43014 18.8014 2.57262 18.8981 2.80133C19.1363 3.36452 19.4205 4.23645 19.4227 5.19193C19.4248 6.15444 19.1408 7.04625 18.9021 7.62496C18.8059 7.85831 18.5882 8.00886 18.3472 8.00886C18.3467 8.00886 18.3462 8.00886 18.3457 8.00886L15.5444 8.00192C15.2935 8.00131 15.0691 7.84101 14.9725 7.59354C14.8688 7.32775 14.7789 7.02412 14.6977 6.6654C14.5837 6.16175 14.105 5.85104 13.6287 5.97173C13.1523 6.09227 12.8586 6.59831 12.9726 7.10195C13.0756 7.55679 13.1934 7.95156 13.3327 8.30869C13.7036 9.2592 14.5701 9.87499 15.5403 9.87738L18.3416 9.88432C18.3436 9.88432 18.3454 9.88432 18.3473 9.88432C19.2941 9.88432 20.1498 9.29221 20.5282 8.37456C20.8347 7.63138 21.1994 6.47514 21.1966 5.18757C21.1938 3.90333 20.8258 2.76495 20.5177 2.03611C20.138 1.13825 19.2828 0.556543 18.3369 0.554199H15.571C15.569 0.554199 15.5671 0.554199 15.5651 0.554199C14.5673 0.554199 13.6969 1.17581 13.3465 2.13926C13.2999 2.26749 13.2429 2.42892 13.1835 2.61716H7.37655C7.13677 2.61716 6.90719 2.71979 6.74019 2.90166L5.21664 4.5608C4.88107 4.92627 4.88276 5.50803 5.22041 5.8713L6.77251 7.54089Z" fill="#75808B"/>
<path d="M20.3519 16.2857L17.3274 15.0967L12.0092 10.8304C11.5494 10.4615 10.9782 10.2583 10.4009 10.2583H4.16847C3.34217 10.2583 2.57707 10.6536 2.06936 11.3428C2.02541 11.4024 1.98847 11.4674 1.95929 11.5364L0.556098 14.8567C0.187095 15.73 0 16.6578 0 17.6142V19.8657C0 21.4169 1.19361 22.6788 2.66075 22.6788H3.47849C3.84461 23.7702 4.83047 24.5543 5.9867 24.5543C7.14293 24.5543 8.12874 23.7702 8.4949 22.6788H10.7317C11.2216 22.6788 11.6186 22.259 11.6186 21.7411C11.6186 21.2232 11.2216 20.8034 10.7317 20.8034H8.4949C8.12878 19.712 7.14293 18.928 5.9867 18.928C4.83047 18.928 3.84466 19.712 3.47849 20.8034H2.66075C2.17171 20.8034 1.77384 20.3828 1.77384 19.8657V17.6142C1.77384 17.4093 1.78603 17.2064 1.80967 17.0057H16.9622C16.9999 17.0057 17.0368 17.0024 17.0732 16.9976L19.7351 18.0441C19.7365 18.0446 19.7379 18.0451 19.7393 18.0457C20.4501 18.3208 20.9402 19.0645 20.9312 19.8544C20.9311 19.8582 20.9311 19.862 20.9311 19.8657V20.8034H19.0047C18.6386 19.712 17.6528 18.928 16.4965 18.928C15.0294 18.928 13.8358 20.19 13.8358 21.7411C13.8358 23.2923 15.0294 24.5543 16.4965 24.5543C17.6528 24.5543 18.6386 23.7702 19.0047 22.6788H21.818C22.3078 22.6788 22.705 22.259 22.705 21.7411V19.871C22.7206 18.2781 21.7757 16.8382 20.3519 16.2857ZM5.98665 20.8034C6.4757 20.8034 6.87357 21.224 6.87357 21.7411C6.87357 22.2581 6.4757 22.6788 5.98665 22.6788C5.4976 22.6788 5.09973 22.2581 5.09973 21.7411C5.09973 21.224 5.4976 20.8034 5.98665 20.8034ZM6.11969 15.1303H2.38341L3.52741 12.4233C3.6941 12.2381 3.92324 12.1336 4.16851 12.1336H6.11973V15.1303H6.11969ZM7.89352 15.1303V12.1337H10.4009C10.5933 12.1337 10.7838 12.2014 10.9371 12.3244L14.4348 15.1303H7.89352V15.1303ZM16.4965 22.6788C16.0075 22.6788 15.6096 22.2581 15.6096 21.7411C15.6096 21.224 16.0075 20.8034 16.4965 20.8034C16.9856 20.8034 17.3835 21.224 17.3835 21.7411C17.3835 22.2581 16.9856 22.6788 16.4965 22.6788Z" fill="#75808B"/>
<path d="M17.6031 6.13183C18.0929 6.13183 18.4899 5.7121 18.4899 5.19433C18.4899 4.67657 18.0929 4.25684 17.6031 4.25684C17.1134 4.25684 16.7164 4.67657 16.7164 5.19433C16.7164 5.7121 17.1134 6.13183 17.6031 6.13183Z" fill="#75808B"/>
</svg>
