<svg width="23" height="21" viewBox="0 0 23 21" fill="none" xmlns="http://www.w3.org/2000/svg">
<path d="M21.2374 0.736023H1.4882C0.991392 0.736023 0.591309 1.16747 0.591309 1.6974V19.7055C0.591309 20.2355 0.991392 20.6669 1.4882 20.6669H21.2374C21.7342 20.6669 22.1343 20.2355 22.1343 19.7055V1.6974C22.1343 1.16747 21.7298 0.736023 21.2374 0.736023ZM20.3361 13.1213H14.1546C12.9104 13.1213 11.8992 12.0333 11.8992 10.7015C11.8992 9.36493 12.9104 8.28162 14.1546 8.28162H20.3405V13.1213H20.3361ZM2.38509 18.7395V2.66346H20.3361V6.35419H14.1546C11.9211 6.35419 10.101 8.30507 10.101 10.7015C10.101 13.0979 11.9167 15.0487 14.1546 15.0487H20.3405V18.7395H2.38509Z" fill="#75808B"/>
<path d="M13.7095 10.697V10.7111C13.7095 11.241 14.1096 11.6678 14.6064 11.6678C15.1032 11.6678 15.5033 11.2316 15.5033 10.697C15.5033 10.1671 15.1032 9.73563 14.6064 9.73563C14.1096 9.73094 13.7095 10.1624 13.7095 10.697Z" fill="#75808B"/>
</svg>
