<svg width="24" height="25" viewBox="0 0 24 25" fill="none" xmlns="http://www.w3.org/2000/svg">
<path d="M12.2898 18.028C12.9053 18.028 13.4043 17.5005 13.4043 16.8497C13.4043 16.1989 12.9053 15.6714 12.2898 15.6714C11.6743 15.6714 11.1753 16.1989 11.1753 16.8497C11.1753 17.5005 11.6743 18.028 12.2898 18.028Z" fill="#75808B"/>
<path d="M12.2894 11.6499C11.1306 11.6499 10.0405 12.1282 9.21973 12.9966C8.8717 13.3649 8.87192 13.9618 9.22031 14.3298C9.56862 14.6978 10.1332 14.6975 10.4812 14.3292C10.9651 13.8172 11.6073 13.5352 12.2895 13.5352C12.9717 13.5352 13.6138 13.8172 14.0977 14.3292C14.4456 14.6972 15.01 14.698 15.3586 14.3298C15.707 13.9618 15.7072 13.3649 15.3592 12.9966C14.5384 12.1282 13.4482 11.6499 12.2894 11.6499Z" fill="#75808B"/>
<path d="M12.2875 0.650391C5.97927 0.650391 0.875 6.04787 0.875 12.7164C0.875 19.3859 5.98017 24.7825 12.2875 24.7825C18.5957 24.7825 23.6999 19.385 23.6999 12.7164C23.6999 6.04698 18.5948 0.650391 12.2875 0.650391ZM12.2875 22.8972C6.96494 22.8972 2.6582 18.343 2.6582 12.7164C2.6582 7.08909 6.96565 2.53571 12.2875 2.53571C17.61 2.53571 21.9167 7.08984 21.9167 12.7164C21.9167 18.3438 17.6093 22.8972 12.2875 22.8972Z" fill="#75808B"/>
<path d="M12.2878 8.00098C10.2053 8.00098 8.24806 8.85828 6.77639 10.4149C6.42826 10.7831 6.42839 11.38 6.7767 11.7481C7.125 12.1161 7.68952 12.1159 8.0376 11.7477C9.17243 10.5474 10.6819 9.8863 12.2878 9.8863C13.8937 9.8863 15.4031 10.5474 16.5379 11.7478C16.8859 12.1158 17.4504 12.1163 17.7988 11.7481C18.1471 11.38 18.1473 10.7831 17.7991 10.4149C16.3275 8.85828 14.3702 8.00098 12.2878 8.00098Z" fill="#75808B"/>
</svg>
