<svg width="16" height="16" fill="none" xmlns="http://www.w3.org/2000/svg"><g clip-path="url(#clip0)" fill="#fff"><path d="M8 5.004A2.999 2.999 0 005.004 8 2.999 2.999 0 008 10.996 2.999 2.999 0 0010.996 8 2.999 2.999 0 008 5.004z"/><path d="M14.388 1.612A5.45 5.45 0 0010.51 0H5.49a5.45 5.45 0 00-3.878 1.612A5.45 5.45 0 000 5.49v5.021a5.45 5.45 0 001.612 3.878A5.45 5.45 0 005.49 16h5.022a5.45 5.45 0 003.877-1.612A5.45 5.45 0 0016 10.51V5.49a5.45 5.45 0 00-1.612-3.878zM8 12.234A4.24 4.24 0 013.766 8 4.24 4.24 0 018 3.766 4.24 4.24 0 0112.234 8 4.24 4.24 0 018 12.234zm4.69-8.262a.472.472 0 01-.662 0 .471.471 0 010-.663.471.471 0 01.663 0 .472.472 0 010 .663z"/></g><defs><clipPath id="clip0"><path fill="#fff" d="M0 0h16v16H0z"/></clipPath></defs></svg>