<svg width="17" height="16" fill="none" xmlns="http://www.w3.org/2000/svg"><g clip-path="url(#clip0)" fill="#fff"><path d="M16.109 1.59a1.039 1.039 0 00-.824-.371 1.62 1.62 0 00-.576.114L1.166 6.503c-.72.275-.816.686-.81.907.006.221.126.627.86.86l.013.004 1.9.543 9.25-4.726a.469.469 0 01.554.739L7.79 10.295l-.147.595 1.837 1.479 2.545 2.05.007.004c.28.218.586.332.884.333.584 0 1.049-.432 1.184-1.1l2.22-10.958c.088-.44.014-.834-.211-1.109z"/><path d="M6.91 9.951a.467.467 0 01.113-.209l3.375-3.586-6.263 3.2 1.422 4.066c.081.232.202.43.351.584L6.91 9.95zm-.129 4.431c.338-.003.67-.146.961-.413l1.04-.958-1.387-1.117-.614 2.488z"/></g><defs><clipPath id="clip0"><path fill="#fff" transform="translate(.356)" d="M0 0h16v16H0z"/></clipPath></defs></svg>