<svg width="40" height="41" fill="none" xmlns="http://www.w3.org/2000/svg"><path d="M39.797 31.839c0-.014 0-.028-.002-.042a.919.919 0 00-.004-.058l-.001-.012-2.499-18.74v-9.34a2.823 2.823 0 00-2.82-2.82H5.64a2.823 2.823 0 00-2.82 2.82v9.34l-2.5 18.74v.012a.938.938 0 00-.005.058l-.002.042v7.533a.94.94 0 001.237.892l3.615-1.205h29.779l3.616 1.205a.94.94 0 001.237-.892v-7.533zM4.584 13.989H6.58v2.82a2.196 2.196 0 002.193 2.194h7.521a2.196 2.196 0 002.194-2.194v-1.567h.313a2.18 2.18 0 001.254-.395 2.18 2.18 0 001.253.396h.314v1.566a2.196 2.196 0 002.193 2.194h7.521a2.197 2.197 0 002.194-2.194v-2.82h1.997l.814 6.104H3.77l.813-6.104zm14.532-.94a.313.313 0 01-.314.313h-.313v-1.567a2.196 2.196 0 00-2.194-2.193h-5.327V8.035a.313.313 0 01.313-.313h7.521a.313.313 0 01.314.313v5.014zm-2.82-1.567a.313.313 0 01.313.313v5.014a.314.314 0 01-.314.314h-7.52a.313.313 0 01-.314-.314v-5.014a.313.313 0 01.313-.313h7.521zm15.354 5.327a.314.314 0 01-.313.314h-7.52a.313.313 0 01-.314-.314v-5.014a.313.313 0 01.313-.313h7.521a.313.313 0 01.313.313v5.014zm-2.506-7.207h-5.328a2.196 2.196 0 00-2.193 2.193v1.567h-.314a.313.313 0 01-.313-.313V8.035a.314.314 0 01.313-.313h7.521a.313.313 0 01.314.313v1.567zm7.449 12.371l.25 1.873H3.268l.25-1.873h33.073zM3.017 25.727h34.075l.691 5.184H2.327l.691-5.184zM4.7 3.647a.941.941 0 01.94-.94h28.83a.941.941 0 01.94.94v8.462h-1.88v-.314a2.196 2.196 0 00-2.194-2.193h-.313V8.035A2.196 2.196 0 0028.83 5.84h-7.52a2.18 2.18 0 00-1.254.395 2.18 2.18 0 00-1.254-.395h-7.52a2.196 2.196 0 00-2.194 2.194v1.567h-.314a2.196 2.196 0 00-2.193 2.193v.314H4.7v-8.46zm33.217 34.42l-2.523-.84a.941.941 0 00-.298-.049H5.014a.941.941 0 00-.298.049l-2.522.84v-5.276h35.724v5.277z"/></svg>