<svg width="18" height="20" fill="none" xmlns="http://www.w3.org/2000/svg"><circle cx="11.143" cy="9.798" r=".671" fill="#45505A"/><path d="M1.307 8.94a7.34 7.34 0 00-.232 1.837 7.313 7.313 0 002.647 5.639M15.499 8.94a7.34 7.34 0 01.232 1.836 7.313 7.313 0 01-2.647 5.639" stroke="#45505A"/><circle cx="5.71" cy="9.83" r=".671" fill="#45505A"/><path d="M4.607 6.402c-.903.592-2.913 2.274-3.348 2.685-.352-3.946 2.503-7.822 7.118-7.822 4.213 0 7.418 4.209 7.18 7.73L12.51 5.908v1.086l-2.157-.592-.3 1.628L6.24 4.921c-.184.362-1.322 1.276-1.634 1.48z" stroke="#45505A" stroke-linecap="round" stroke-linejoin="round"/><path d="M9.656 12.378c-.416-.06-.852-.097-1.18-.11l-.028.003-.027-.002c-.329.012-.764.049-1.18.109-.431.062-.795.144-1.002.232-.07.03-.179.116-.333.326-.15.204-.3.463-.478.771l-.002.005c-.13.225-.271.471-.426.711-.382.592-1.104 1.26-1.599 1.675a63.1 63.1 0 001.504 1.597c.314.32.613.614.864.845.266.244.44.38.516.421.128.07.404.15.817.207.396.055.866.084 1.342.084.476 0 .946-.027 1.344-.082.414-.057.692-.137.824-.209.075-.041.25-.177.515-.421.252-.231.551-.526.864-.845a62.72 62.72 0 001.504-1.597c-.495-.415-1.216-1.083-1.598-1.675-.155-.24-.297-.486-.426-.711l-.003-.005a8.63 8.63 0 00-.477-.771c-.155-.21-.264-.297-.333-.326-.208-.088-.571-.17-1.002-.232z" stroke="#45505A"/><path d="M8.435 15.691c.99 0 1.794-.428 1.794-1.371H6.64c0 .943.803 1.371 1.794 1.371z" fill="#45505A"/></svg>