<svg width="22" height="23" fill="none" xmlns="http://www.w3.org/2000/svg"><path d="M15.168 18.08l.001-.019v-6.25h1.934a.86.86 0 100-1.718H4.9a.86.86 0 100 1.719h1.933v6.263l.003.035c.03.394-.012 1.532-.56 2.067a.86.86 0 001.2 1.23c1.168-1.142 1.1-3.037 1.076-3.397v-6.199h1.59v6.962a.86.86 0 101.718 0v-6.961h1.59v6.213c-.012.321-.04 2.373 1.1 3.404a.856.856 0 001.213-.06.86.86 0 00-.06-1.214c-.45-.407-.555-1.575-.535-2.075z" fill="#75808B"/><path d="M11 22.554a.816.816 0 100-1.633.816.816 0 000 1.633zm10.14-12.031a.86.86 0 00-.86.859 1.72 1.72 0 01-1.719 1.719h-.816a.86.86 0 100 1.718h.816A3.441 3.441 0 0022 11.382a.86.86 0 00-.86-.86zM17.745 5.41a.816.816 0 100-1.634.816.816 0 000 1.633z" fill="#75808B"/><path d="M18.563.554H3.438A3.441 3.441 0 000 3.992v7.39a3.441 3.441 0 003.438 3.438h.816a.86.86 0 100-1.719h-.816a1.72 1.72 0 01-1.72-1.719V8.375h19.423a.86.86 0 00.859-.86V3.992A3.441 3.441 0 0018.562.554zm1.718 6.102H1.72V3.992a1.72 1.72 0 011.718-1.72h15.126a1.72 1.72 0 011.718 1.72v2.664z" fill="#75808B"/></svg>