<svg width="17" height="17" fill="none" xmlns="http://www.w3.org/2000/svg"><g clip-path="url(#clip0_324_8875)" fill="#75808B"><path d="M15.685 1.589h-1.853v-.556c0-.372-.285-.671-.638-.671-.353 0-.637.3-.637.67v.557H4.776v-.556c0-.372-.285-.671-.638-.671-.353 0-.637.3-.637.67v.557H1.647c-.353 0-.637.299-.637.67v13.547c0 .371.284.67.637.67h14.038c.353 0 .637-.299.637-.67V2.26c0-.372-.287-.671-.637-.671zm-.64 13.546H2.284V2.93H3.5v.421c0 .372.284.671.637.671.353 0 .638-.299.638-.67V2.93h7.778v.421c0 .372.284.671.637.671.353 0 .638-.299.638-.67V2.93h1.215v12.205z"/><path d="M5.059 7.89c.402 0 .728-.343.728-.766s-.326-.766-.728-.766c-.402 0-.728.343-.728.766s.326.766.728.766zm3.606 0c.402 0 .728-.343.728-.766s-.326-.766-.728-.766c-.402 0-.728.343-.728.766s.326.766.728.766zm3.606 0c.402 0 .728-.343.728-.766s-.326-.766-.728-.766c-.402 0-.728.343-.728.766s.326.766.728.766zm-7.212 4.44c.402 0 .728-.344.728-.767 0-.423-.326-.766-.728-.766-.402 0-.728.343-.728.766s.326.766.728.766zm3.606 0c.402 0 .728-.344.728-.767 0-.423-.326-.766-.728-.766-.402 0-.728.343-.728.766s.326.766.728.766zm3.606 0c.402 0 .728-.344.728-.767 0-.423-.326-.766-.728-.766-.402 0-.728.343-.728.766s.326.766.728.766z"/></g><defs><clipPath id="clip0_324_8875"><path fill="#fff" transform="translate(.661)" d="M0 0h16v16.838H0z"/></clipPath></defs></svg>