<svg width="54" height="54" fill="none" xmlns="http://www.w3.org/2000/svg"><g clip-path="url(#clip0)" fill="#fff"><path d="M52.13 44.894h-2.366v-6.281c0-.568-.46-1.028-1.028-1.028h-6.17c-.567 0-1.028.46-1.028 1.028v3.496H39.07v-3.496c0-.568-.46-1.028-1.028-1.028h-6.17c-.253 0-.484.092-.663.243l-1.163-12.147a3.81 3.81 0 003.352-3.777V19.23a3.809 3.809 0 00-3.48-3.79V8.71c0-.568-.46-1.029-1.027-1.029h-1.015V2.007a1.028 1.028 0 00-2.057 0v5.674h-1.041c-.568 0-1.029.46-1.029 1.028v6.783a3.81 3.81 0 00-3.101 3.738v2.674a3.81 3.81 0 003.006 3.72l-2.25 23.5a11.624 11.624 0 00-2.384-2.65v-7.861c0-.568-.46-1.028-1.029-1.028H12.44c-.568 0-1.028.46-1.028 1.028v5.25c-5.059.128-9.5 3.568-10.862 8.458a1.028 1.028 0 00.99 1.304h5.553a1.028 1.028 0 100-2.056H2.999a9.556 9.556 0 018.703-5.656 9.557 9.557 0 018.702 5.656h-4.058a1.028 1.028 0 000 2.056H52.13c.568 0 1.029-.46 1.029-1.028v-6.675a1.03 1.03 0 00-1.029-1.028zm-35.167-5.253v5.49a11.552 11.552 0 00-3.496-1.136v-4.354h3.496zm26.632 0h4.113v5.253h-3.085v-1.757c0-.568-.46-1.028-1.028-1.028V39.64zM25.805 9.738h2.057v5.688h-2.056V9.738zm-1.353 7.744h5.141a1.75 1.75 0 011.748 1.748v.309h-8.637v-.309a1.75 1.75 0 011.748-1.748zm-1.748 4.422v-.309h8.637v.309a1.75 1.75 0 01-1.748 1.748h-5.14a1.75 1.75 0 01-1.749-1.748zm.532 29.665l2.476-25.86h2.27l2.477 25.86h-7.223zM32.9 39.64h4.113v11.93H32.9V39.64zm6.17 4.524h3.495v7.404H39.07v-7.404zM51.1 51.57h-6.478v-4.62H51.1v4.618z"/><path d="M11.719 51.569c-.27 0-.536.11-.727.301a1.036 1.036 0 00-.301.727c0 .27.11.536.3.727.192.191.457.301.728.301.27 0 .536-.11.727-.301.191-.191.301-.456.301-.727 0-.27-.11-.536-.301-.727a1.036 1.036 0 00-.727-.301z"/></g><defs><clipPath id="clip0"><path fill="#fff" transform="translate(.51 .979)" d="M0 0h52.646v52.646H0z"/></clipPath></defs></svg>