<svg width="23" height="16" fill="none" xmlns="http://www.w3.org/2000/svg"><path d="M21.576.27H1.223a.916.916 0 00-.924.908v13.468c0 .5.412.908.924.908h20.353a.916.916 0 00.924-.908V1.178a.92.92 0 00-.924-.908zm-.93 13.463H2.148V2.091h18.5v11.642z" fill="#75808B"/><path d="M10.259 10.191c-.177-.221-.3-.567-.367-1.041l-.897.164c.031.456.15.842.353 1.156.204.315.444.545.725.687.281.142.643.24 1.088.297v.877h.525v-.886c.625-.031 1.133-.248 1.527-.656.394-.407.589-.912.589-1.524 0-.274-.045-.531-.14-.77a1.81 1.81 0 00-.404-.616 2.222 2.222 0 00-.68-.439c-.144-.062-.443-.146-.892-.257V4.649c.29.058.521.182.689.363.167.182.276.448.33.793l.925-.137c-.082-.558-.313-.992-.702-1.311-.304-.253-.716-.4-1.233-.448v-.42h-.525v.42c-.594.058-1.038.217-1.337.479-.449.385-.675.894-.675 1.515 0 .35.077.664.23.943.155.275.372.492.658.647.385.213.757.35 1.124.421v2.796c-.358-.032-.657-.204-.911-.519zm1.427-2.149c.48.156.797.328.96.519.16.195.24.447.24.766 0 .372-.112.687-.339.944a1.321 1.321 0 01-.86.443V8.042zm-1.39-1.448c-.173-.204-.255-.452-.255-.753 0-.302.1-.563.3-.784.199-.222.475-.36.82-.408v2.428c-.408-.124-.694-.284-.866-.483zm7.434 2.528a.916.916 0 00.924-.908v-.602a.917.917 0 00-.925-.909.916.916 0 00-.924.909v.602c0 .5.417.908.924.908zm-12.976 0a.916.916 0 00.924-.908v-.602a.916.916 0 00-.924-.909.916.916 0 00-.925.909v.602c0 .5.413.908.925.908z" fill="#75808B"/></svg>