<svg width="23" height="24" fill="none" xmlns="http://www.w3.org/2000/svg"><path d="M20.09 9.768c-.227 0-.446.031-.655.089l.454-5.339v-.007C20.04 2.581 18.738.85 16.925.57 15.43.339 13.28.063 11.519.063c-1.752 0-3.863.272-5.325.5-1.81.283-3.109 2.015-2.96 3.942l.001.007.455 5.345a2.473 2.473 0 00-.655-.089c-1.439 0-2.61 1.238-2.61 2.76 0 3.857 2.302 6.38 3.352 7.33l-.707 2.58c-.134.487.132.997.593 1.139a.823.823 0 00.243.036.878.878 0 00.835-.664l.688-2.51h12.267l.688 2.51c.11.403.458.664.835.664.08 0 .162-.011.243-.036.461-.142.727-.652.593-1.14l-.87-3.174a.876.876 0 00-.857-.662l-.022-.001H5.07a8.806 8.806 0 01-1.38-1.513c-1.012-1.403-1.525-2.937-1.525-4.559 0-.507.39-.92.87-.92s.87.413.87.92c0 .036.003.073.007.109l.06.529a2.06 2.06 0 00.692 1.496 1.835 1.835 0 001.58.43c2.08-.42 3.87-.632 5.319-.632 1.449 0 3.238.212 5.318.631a1.835 1.835 0 001.58-.429 2.06 2.06 0 00.693-1.496l.06-.53a.987.987 0 00.006-.108c0-.507.39-.92.87-.92s.87.413.87.92a7.485 7.485 0 01-.752 3.263c-.217.453-.046 1.007.382 1.237.429.23.953.05 1.17-.404a9.394 9.394 0 00.94-4.096c0-1.522-1.171-2.76-2.61-2.76zm-1.934-5.41l-.738 8.663v.008a.974.974 0 00-.003.074.182.182 0 01-.063.142.163.163 0 01-.145.039c-2.187-.44-4.086-.664-5.645-.664-1.558 0-3.457.223-5.644.664a.164.164 0 01-.145-.04.182.182 0 01-.063-.14.964.964 0 00-.003-.075v-.008l-.738-8.67c-.073-.962.576-1.826 1.48-1.967 1.404-.22 3.424-.481 5.07-.481 1.656 0 3.716.264 5.153.486.906.14 1.557 1.005 1.484 1.969z" fill="#75808B"/></svg>