<svg width="20" height="24" fill="none" xmlns="http://www.w3.org/2000/svg"><path d="M9.836 20.153c2.956 0 5.361-2.543 5.361-5.668 0-3.126-2.405-5.669-5.36-5.669-2.957 0-5.362 2.543-5.362 5.669 0 3.125 2.405 5.668 5.361 5.668zm0-9.523c1.774 0 3.255 1.346 3.579 3.123-.34.235-.797.35-1.285.318-.51-.032-1.075-.21-1.78-.559a15.42 15.42 0 01-.313-.16c-.62-.316-1.321-.676-2.128-.722a3.663 3.663 0 00-1.366.203c.586-1.301 1.842-2.203 3.293-2.203zm-2.018 3.812c.46.026.951.277 1.47.543l.335.17c.57.282 1.44.665 2.402.727a3.846 3.846 0 001.249-.116c-.5 1.497-1.853 2.573-3.438 2.573-1.866 0-3.409-1.49-3.62-3.405.526-.27 1.09-.521 1.602-.492zm7.381-9.752c.473 0 .857-.407.857-.908 0-.5-.384-.907-.857-.907-.474 0-.858.407-.858.907 0 .501.384.907.858.907z" fill="#75808B"/><path d="M16.483.337H3.1C1.682.337.528 1.557.528 3.058v17.776c0 1.5 1.154 2.72 2.573 2.72h13.382c1.419 0 2.573-1.22 2.573-2.72V3.058c0-1.5-1.154-2.72-2.573-2.72zm.858 20.497c0 .5-.385.907-.858.907H3.1c-.473 0-.857-.407-.857-.907V7.23H17.34v13.604zm0-15.418H2.244V3.058c0-.5.384-.907.857-.907h13.382c.473 0 .858.407.858.907v2.358z" fill="#75808B"/><path d="M12.151 4.69c.474 0 .858-.407.858-.908 0-.5-.384-.907-.858-.907s-.858.407-.858.907c0 .501.384.907.858.907z" fill="#75808B"/></svg>