<svg width="14" height="13" fill="none" xmlns="http://www.w3.org/2000/svg"><g clip-path="url(#clip0_324_5205)" fill="#75808B"><path d="M9.792 3.453a.518.518 0 00.528-.508V.508A.518.518 0 009.792 0a.518.518 0 00-.528.508v2.437c0 .28.236.508.528.508z"/><path d="M11.64 0a.518.518 0 00-.529.508v2.539c0 1.1-.604 2.031-1.32 2.031-.715 0-1.319-.93-1.319-2.031V.507A.518.518 0 007.944 0a.518.518 0 00-.527.508v2.539c0 1.248.627 2.62 1.847 2.971v6.474c0 .28.236.508.528.508a.518.518 0 00.528-.508V6.018c1.22-.352 1.847-1.722 1.847-2.971V.507A.518.518 0 0011.639 0zM3.722 0C2.498 0 1.346 1.23 1.346 3.047c0 1.25.628 2.62 1.848 2.971v6.474c0 .28.236.508.528.508a.518.518 0 00.528-.508V6.018c1.22-.352 1.847-1.723 1.847-2.971C6.097 1.177 4.904 0 3.722 0zm0 5.078c-.716 0-1.32-.93-1.32-2.031s.604-2.031 1.32-2.031c.715 0 1.32.93 1.32 2.031s-.605 2.031-1.32 2.031z"/></g><defs><clipPath id="clip0_324_5205"><path fill="#fff" d="M0 0h13.512v13H0z"/></clipPath></defs></svg>