<svg width="23" height="25" fill="none" xmlns="http://www.w3.org/2000/svg"><path d="M17.847.554c-2.425 0-4.456 1.832-4.943 4.266H.444v1.423l8.614 10.781v5.655H5.542v1.875h8.79V22.68h-3.516v-5.654l8.613-10.782V4.82h-4.704c.44-1.388 1.673-2.39 3.122-2.39 1.817 0 3.296 1.576 3.296 3.515 0 1.251-.617 2.351-1.543 2.975l-1.927 2.412.174.003c2.786 0 5.053-2.418 5.053-5.39 0-2.973-2.267-5.39-5.053-5.39zm-7.91 14.68l-3.752-4.696h7.503l-3.751 4.696zm6.822-8.54l-1.573 1.97H4.75v.079L3.115 6.695h13.643z" fill="#75808B"/></svg>