<svg width="17" height="16" fill="none" xmlns="http://www.w3.org/2000/svg"><path d="M14.693 11.3h.272c.824 0 1.384-.81 1.138-1.577h0L16.1 9.72l-1.46-4.418V5.3a1.907 1.907 0 00-1.081-1.158A1.896 1.896 0 0014.693 2.4a1.891 1.891 0 10-3.785 0c0 .78.463 1.449 1.132 1.742a1.89 1.89 0 00-1.079 1.16l-.446 1.346V6.6a1.545 1.545 0 10-3.088 0c0 .52.255.982.648 1.263a1.55 1.55 0 00-1.04.619V5.9A1.9 1.9 0 005.142 4h-.02c.524-.338.868-.928.868-1.6a1.891 1.891 0 10-3.784 0c0 .672.344 1.262.868 1.6h-.02a1.9 1.9 0 00-1.892 1.9v3.5a1.2 1.2 0 001.044 1.19v3.71a1.2 1.2 0 001.196 1.2h1.392a1.2 1.2 0 001.196-1.2v-3.71c.294-.037.554-.182.74-.392V11.5c0 .48.286.9.697 1.09v1.71a1.2 1.2 0 001.196 1.2h.696a1.2 1.2 0 001.197-1.2v-1.71c.41-.19.696-.61.696-1.09V9.4c0-.78-.588-1.437-1.344-1.537.142-.102.266-.228.367-.371l-.002.008.36.202A1.94 1.94 0 0111.604 9.4v6.1h1.893a1.2 1.2 0 001.196-1.2v-3zM12.759 4s0 0 0 0h0zm0 .5v-.2h0v.2z" stroke="#75808B"/></svg>