<svg width="14" height="17" fill="none" xmlns="http://www.w3.org/2000/svg"><path d="M12.953 1.438a.748.748 0 00-.735-.025c-.593.307-1.177.56-2.303.56-1.24 0-1.823-.307-2.5-.663C6.67.918 5.828.474 4.219.474c-1.114 0-1.858.213-2.459.473a.75.75 0 00-1.446.277v14.5a.75.75 0 101.5 0V9.587c.637-.334 1.225-.613 2.405-.613 1.239 0 1.823.307 2.499.663.745.392 1.588.837 3.198.837 1.462 0 2.28-.36 2.993-.729a.75.75 0 00.405-.666v-7a.75.75 0 00-.36-.64zm-1.14 7.172c-.478.211-1.024.364-1.898.364-1.24 0-1.823-.308-2.5-.664-.745-.392-1.589-.836-3.197-.836-1.08 0-1.813.2-2.405.449V2.587c.637-.334 1.224-.613 2.405-.613 1.238 0 1.822.307 2.498.663.745.392 1.589.837 3.199.837.794 0 1.398-.106 1.898-.262V8.61z" fill="#75808B"/></svg>