<svg width="49" height="49" fill="none" xmlns="http://www.w3.org/2000/svg"><path d="M36.506 44.203h0a1.014 1.014 0 00-1.386-.368l-.035.02h0a1.014 1.014 0 00-.369 1.386h0a1.013 1.013 0 001.386.368l.036-.02h0c.484-.282.649-.902.368-1.386z" fill="#fff" stroke="#1792D1" stroke-width=".167"/><mask id="a" maskUnits="userSpaceOnUse" x="-.631" y=".076" width="49" height="49" fill="#000"><path fill="#fff" d="M-.631.076h49v49h-49z"/><path d="M44.81 12.992A23.654 23.654 0 0030.352 1.898a23.654 23.654 0 00-18.068 2.378A23.655 23.655 0 001.19 18.735a23.656 23.656 0 002.38 18.068A23.805 23.805 0 0024.205 48.71c2.89 0 5.775-.526 8.502-1.574a.93.93 0 10-.668-1.736c-7.258 2.79-15.116 1.522-20.986-2.885l.833-4.35.402-.131a2.898 2.898 0 001.858-3.647l-.295-.907a1.027 1.027 0 01.001-.641 2.896 2.896 0 00-2.195-3.743l-2.1-.41-4.05-3.08a.93.93 0 00-.851-.145l-2.372.77a21.932 21.932 0 01-.004-2.54c.094.088.155.147.192.186a.935.935 0 00.172.21c.193.176.369.256.737.256.339 0 .84-.067 1.668-.19a94.768 94.768 0 001.573-.248.93.93 0 00.615-1.441L6.096 20.79l1.634-1.169a.93.93 0 00.266-.294l2.532-4.421 1.021-1.094a3.93 3.93 0 00.759-4.168 4.279 4.279 0 00-1.695-1.996c.813-.64 1.68-1.23 2.601-1.761a21.813 21.813 0 0110.72-2.934l-1.66 2.084-6.16 2.16a.93.93 0 00-.553.522l-1.72 4.17a.93.93 0 00.103.896l2.512 3.52c-.36.328-.71.806-1.128 1.4a9.74 9.74 0 01-.476.644l-.312.353c-.54.608-1.1 1.237-1.496 2.077-.873 1.848-.697 3.995.46 5.604 1.118 1.556 2.962 2.348 4.93 2.116.32-.038.62-.111.908-.183.798-.198 1.05-.217 1.306.022.125.117.136.139.134.534a3.62 3.62 0 00.083.922c.139.572.498.967.786 1.284.144.158.292.321.338.43.29.696.163 1.081-.114 1.925l-.072.221c-.42 1.302.166 2.594.683 3.733.168.37.327.72.43 1.028.837 2.482 1.464 3.05 1.968 3.28.263.12.536.172.811.172 1.341 0 2.74-1.245 3.384-2.035.404-.496.503-.992.575-1.355.037-.18.065-.322.12-.415a2.36 2.36 0 01.305-.393c.25-.28.56-.63.76-1.263.153-.481.264-.6.632-.991.064-.068.132-.14.205-.22 1.24-1.349.92-2.379.582-3.47-.284-.917.213-1.504 1.416-2.624.521-.485 1.06-.987 1.477-1.59.182-.265.737-1.068.394-1.864-.337-.78-1.192-.912-1.879-1.017-.271-.042-.681-.104-.812-.19-.575-.376-.928-1.162-1.268-1.921-.068-.151-.135-.3-.203-.445a16.17 16.17 0 01-.37-.902c-.338-.876-.722-1.87-1.375-2.562-.586-.622-1.693-.921-2.67-1.186a11.417 11.417 0 01-.842-.248.93.93 0 00-.534-.033c-.475.112-.772.234-.992.41-.058.047-.23.2-.33.446-.341-.163-.81-.475-1.098-.667l-.018-.012c.097-.39.01-.701-.083-.896-.52-1.1-2.245-1.013-2.585-.984-.193.016-.438.025-.697.034-.406.014-.855.03-1.3.08l.023-.064a2.379 2.379 0 012.234-1.571h.529a.93.93 0 000-1.86h-.53c-1.482 0-2.84.78-3.6 2.008l-1.388-1.944 1.365-3.309 6.02-2.11a.931.931 0 00.42-.298l2.675-3.357c6.838.65 13.274 4.484 16.962 10.872a21.71 21.71 0 012.192 5.325l-.395.352a2.485 2.485 0 00-.828 1.83l-.643-1.767a2.324 2.324 0 00-.419-.719L41.96 17.6a2.331 2.331 0 00-1.775-.818h-1.403a1.345 1.345 0 00-1.12 2.095l.141.213a10.309 10.309 0 01-3.071 1.824l-1.923-3.684v-.821a.93.93 0 00-.288-.673l-1.732-1.653a.931.931 0 00-.334-.205l-1.558-.548a.93.93 0 10-.617 1.755l1.37.482 1.299 1.24v.652c0 .15.036.297.105.43l2.408 4.612a.93.93 0 001.146.442l.701-.258a12.174 12.174 0 004.365-2.794.93.93 0 00.117-1.174l-.05-.075h.444c.14 0 .27.061.36.167l1.147 1.341a.473.473 0 01.085.146l1.265 3.478a.93.93 0 001.532.34l.602-.602c.38-.381.643-.864.769-1.399.93 7.462-1.995 15.181-8.18 20.035a.93.93 0 101.15 1.463A23.799 23.799 0 0047.55 29.5a23.795 23.795 0 00-2.741-16.507zM4.767 27.382l3.836 2.916a.93.93 0 00.385.172l2.312.452c.295.058.541.232.694.492.152.26.184.56.09.845a2.875 2.875 0 00-.002 1.796l.294.907a1.035 1.035 0 01-.663 1.302l-.925.3a.93.93 0 00-.626.71l-.744 3.884a22.196 22.196 0 01-4.238-5.285 21.835 21.835 0 01-2.702-7.748l2.29-.744zm5.422-14.839l-1.094 1.173a.933.933 0 00-.127.172l-2.485 4.339-2.21 1.58a.93.93 0 00-.227 1.28l.826 1.212c-.476.07-.903.13-1.187.16a46.966 46.966 0 00-1.157-1.041A21.989 21.989 0 019.08 8.974c.679.213 1.236.72 1.508 1.38.306.743.15 1.602-.399 2.19zm7.585 5.084c.415-.234 1.378-.268 2.081-.293.282-.01.548-.02.786-.039.126-.01.265-.009.396.002a.93.93 0 00.428 1.157c.175.093.418.255.675.427.727.485 1.551 1.034 2.325 1.083.704.046 1.096-.355 1.264-.526l.04-.04a.996.996 0 00.248-.305c.15.043.305.085.466.129.55.149 1.576.426 1.802.666.403.427.716 1.239.993 1.955.14.362.272.704.42 1.02.064.137.126.277.19.418.43.958.916 2.043 1.948 2.718.468.306 1.042.394 1.548.472l.203.031c-.3.42-.729.818-1.18 1.239-1.152 1.073-2.586 2.407-1.925 4.537.311 1.005.326 1.114-.175 1.659l-.192.206c-.43.456-.768.817-1.049 1.7-.081.258-.187.376-.378.592a4.059 4.059 0 00-.52.69c-.212.36-.282.708-.337.988-.056.275-.087.413-.195.545-.245.302-.704.74-1.174 1.039-.438.277-.693.315-.78.31-.099-.106-.459-.572-1.002-2.185-.134-.398-.32-.807-.5-1.203-.396-.873-.805-1.775-.606-2.392l.07-.213c.318-.97.619-1.887.062-3.22-.17-.407-.44-.704-.677-.966-.154-.17-.329-.361-.356-.472-.033-.135-.031-.29-.03-.47.003-.487.008-1.221-.723-1.905-1.029-.964-2.23-.667-3.024-.47-.244.06-.475.117-.679.141-1.307.153-2.474-.34-3.202-1.354-.762-1.06-.873-2.487-.289-3.723.283-.598.71-1.08 1.205-1.636.108-.121.217-.244.326-.37.181-.208.38-.492.592-.791.252-.358.721-1.024.925-1.151z"/></mask><path d="M44.81 12.992A23.654 23.654 0 0030.352 1.898a23.654 23.654 0 00-18.068 2.378A23.655 23.655 0 001.19 18.735a23.656 23.656 0 002.38 18.068A23.805 23.805 0 0024.205 48.71c2.89 0 5.775-.526 8.502-1.574a.93.93 0 10-.668-1.736c-7.258 2.79-15.116 1.522-20.986-2.885l.833-4.35.402-.131a2.898 2.898 0 001.858-3.647l-.295-.907a1.027 1.027 0 01.001-.641 2.896 2.896 0 00-2.195-3.743l-2.1-.41-4.05-3.08a.93.93 0 00-.851-.145l-2.372.77a21.932 21.932 0 01-.004-2.54c.094.088.155.147.192.186a.935.935 0 00.172.21c.193.176.369.256.737.256.339 0 .84-.067 1.668-.19a94.768 94.768 0 001.573-.248.93.93 0 00.615-1.441L6.096 20.79l1.634-1.169a.93.93 0 00.266-.294l2.532-4.421 1.021-1.094a3.93 3.93 0 00.759-4.168 4.279 4.279 0 00-1.695-1.996c.813-.64 1.68-1.23 2.601-1.761a21.813 21.813 0 0110.72-2.934l-1.66 2.084-6.16 2.16a.93.93 0 00-.553.522l-1.72 4.17a.93.93 0 00.103.896l2.512 3.52c-.36.328-.71.806-1.128 1.4a9.74 9.74 0 01-.476.644l-.312.353c-.54.608-1.1 1.237-1.496 2.077-.873 1.848-.697 3.995.46 5.604 1.118 1.556 2.962 2.348 4.93 2.116.32-.038.62-.111.908-.183.798-.198 1.05-.217 1.306.022.125.117.136.139.134.534a3.62 3.62 0 00.083.922c.139.572.498.967.786 1.284.144.158.292.321.338.43.29.696.163 1.081-.114 1.925l-.072.221c-.42 1.302.166 2.594.683 3.733.168.37.327.72.43 1.028.837 2.482 1.464 3.05 1.968 3.28.263.12.536.172.811.172 1.341 0 2.74-1.245 3.384-2.035.404-.496.503-.992.575-1.355.037-.18.065-.322.12-.415a2.36 2.36 0 01.305-.393c.25-.28.56-.63.76-1.263.153-.481.264-.6.632-.991.064-.068.132-.14.205-.22 1.24-1.349.92-2.379.582-3.47-.284-.917.213-1.504 1.416-2.624.521-.485 1.06-.987 1.477-1.59.182-.265.737-1.068.394-1.864-.337-.78-1.192-.912-1.879-1.017-.271-.042-.681-.104-.812-.19-.575-.376-.928-1.162-1.268-1.921-.068-.151-.135-.3-.203-.445a16.17 16.17 0 01-.37-.902c-.338-.876-.722-1.87-1.375-2.562-.586-.622-1.693-.921-2.67-1.186a11.417 11.417 0 01-.842-.248.93.93 0 00-.534-.033c-.475.112-.772.234-.992.41-.058.047-.23.2-.33.446-.341-.163-.81-.475-1.098-.667l-.018-.012c.097-.39.01-.701-.083-.896-.52-1.1-2.245-1.013-2.585-.984-.193.016-.438.025-.697.034-.406.014-.855.03-1.3.08l.023-.064a2.379 2.379 0 012.234-1.571h.529a.93.93 0 000-1.86h-.53c-1.482 0-2.84.78-3.6 2.008l-1.388-1.944 1.365-3.309 6.02-2.11a.931.931 0 00.42-.298l2.675-3.357c6.838.65 13.274 4.484 16.962 10.872a21.71 21.71 0 012.192 5.325l-.395.352a2.485 2.485 0 00-.828 1.83l-.643-1.767a2.324 2.324 0 00-.419-.719L41.96 17.6a2.331 2.331 0 00-1.775-.818h-1.403a1.345 1.345 0 00-1.12 2.095l.141.213a10.309 10.309 0 01-3.071 1.824l-1.923-3.684v-.821a.93.93 0 00-.288-.673l-1.732-1.653a.931.931 0 00-.334-.205l-1.558-.548a.93.93 0 10-.617 1.755l1.37.482 1.299 1.24v.652c0 .15.036.297.105.43l2.408 4.612a.93.93 0 001.146.442l.701-.258a12.174 12.174 0 004.365-2.794.93.93 0 00.117-1.174l-.05-.075h.444c.14 0 .27.061.36.167l1.147 1.341a.473.473 0 01.085.146l1.265 3.478a.93.93 0 001.532.34l.602-.602c.38-.381.643-.864.769-1.399.93 7.462-1.995 15.181-8.18 20.035a.93.93 0 101.15 1.463A23.799 23.799 0 0047.55 29.5a23.795 23.795 0 00-2.741-16.507zM4.767 27.382l3.836 2.916a.93.93 0 00.385.172l2.312.452c.295.058.541.232.694.492.152.26.184.56.09.845a2.875 2.875 0 00-.002 1.796l.294.907a1.035 1.035 0 01-.663 1.302l-.925.3a.93.93 0 00-.626.71l-.744 3.884a22.196 22.196 0 01-4.238-5.285 21.835 21.835 0 01-2.702-7.748l2.29-.744zm5.422-14.839l-1.094 1.173a.933.933 0 00-.127.172l-2.485 4.339-2.21 1.58a.93.93 0 00-.227 1.28l.826 1.212c-.476.07-.903.13-1.187.16a46.966 46.966 0 00-1.157-1.041A21.989 21.989 0 019.08 8.974c.679.213 1.236.72 1.508 1.38.306.743.15 1.602-.399 2.19zm7.585 5.084c.415-.234 1.378-.268 2.081-.293.282-.01.548-.02.786-.039.126-.01.265-.009.396.002a.93.93 0 00.428 1.157c.175.093.418.255.675.427.727.485 1.551 1.034 2.325 1.083.704.046 1.096-.355 1.264-.526l.04-.04a.996.996 0 00.248-.305c.15.043.305.085.466.129.55.149 1.576.426 1.802.666.403.427.716 1.239.993 1.955.14.362.272.704.42 1.02.064.137.126.277.19.418.43.958.916 2.043 1.948 2.718.468.306 1.042.394 1.548.472l.203.031c-.3.42-.729.818-1.18 1.239-1.152 1.073-2.586 2.407-1.925 4.537.311 1.005.326 1.114-.175 1.659l-.192.206c-.43.456-.768.817-1.049 1.7-.081.258-.187.376-.378.592a4.059 4.059 0 00-.52.69c-.212.36-.282.708-.337.988-.056.275-.087.413-.195.545-.245.302-.704.74-1.174 1.039-.438.277-.693.315-.78.31-.099-.106-.459-.572-1.002-2.185-.134-.398-.32-.807-.5-1.203-.396-.873-.805-1.775-.606-2.392l.07-.213c.318-.97.619-1.887.062-3.22-.17-.407-.44-.704-.677-.966-.154-.17-.329-.361-.356-.472-.033-.135-.031-.29-.03-.47.003-.487.008-1.221-.723-1.905-1.029-.964-2.23-.667-3.024-.47-.244.06-.475.117-.679.141-1.307.153-2.474-.34-3.202-1.354-.762-1.06-.873-2.487-.289-3.723.283-.598.71-1.08 1.205-1.636.108-.121.217-.244.326-.37.181-.208.38-.492.592-.791.252-.358.721-1.024.925-1.151z" fill="#fff"/><path d="M44.81 12.992A23.654 23.654 0 0030.352 1.898a23.654 23.654 0 00-18.068 2.378A23.655 23.655 0 001.19 18.735a23.656 23.656 0 002.38 18.068A23.805 23.805 0 0024.205 48.71c2.89 0 5.775-.526 8.502-1.574a.93.93 0 10-.668-1.736c-7.258 2.79-15.116 1.522-20.986-2.885l.833-4.35.402-.131a2.898 2.898 0 001.858-3.647l-.295-.907a1.027 1.027 0 01.001-.641 2.896 2.896 0 00-2.195-3.743l-2.1-.41-4.05-3.08a.93.93 0 00-.851-.145l-2.372.77a21.932 21.932 0 01-.004-2.54c.094.088.155.147.192.186a.935.935 0 00.172.21c.193.176.369.256.737.256.339 0 .84-.067 1.668-.19a94.768 94.768 0 001.573-.248.93.93 0 00.615-1.441L6.096 20.79l1.634-1.169a.93.93 0 00.266-.294l2.532-4.421 1.021-1.094a3.93 3.93 0 00.759-4.168 4.279 4.279 0 00-1.695-1.996c.813-.64 1.68-1.23 2.601-1.761a21.813 21.813 0 0110.72-2.934l-1.66 2.084-6.16 2.16a.93.93 0 00-.553.522l-1.72 4.17a.93.93 0 00.103.896l2.512 3.52c-.36.328-.71.806-1.128 1.4a9.74 9.74 0 01-.476.644l-.312.353c-.54.608-1.1 1.237-1.496 2.077-.873 1.848-.697 3.995.46 5.604 1.118 1.556 2.962 2.348 4.93 2.116.32-.038.62-.111.908-.183.798-.198 1.05-.217 1.306.022.125.117.136.139.134.534a3.62 3.62 0 00.083.922c.139.572.498.967.786 1.284.144.158.292.321.338.43.29.696.163 1.081-.114 1.925l-.072.221c-.42 1.302.166 2.594.683 3.733.168.37.327.72.43 1.028.837 2.482 1.464 3.05 1.968 3.28.263.12.536.172.811.172 1.341 0 2.74-1.245 3.384-2.035.404-.496.503-.992.575-1.355.037-.18.065-.322.12-.415a2.36 2.36 0 01.305-.393c.25-.28.56-.63.76-1.263.153-.481.264-.6.632-.991.064-.068.132-.14.205-.22 1.24-1.349.92-2.379.582-3.47-.284-.917.213-1.504 1.416-2.624.521-.485 1.06-.987 1.477-1.59.182-.265.737-1.068.394-1.864-.337-.78-1.192-.912-1.879-1.017-.271-.042-.681-.104-.812-.19-.575-.376-.928-1.162-1.268-1.921-.068-.151-.135-.3-.203-.445a16.17 16.17 0 01-.37-.902c-.338-.876-.722-1.87-1.375-2.562-.586-.622-1.693-.921-2.67-1.186a11.417 11.417 0 01-.842-.248.93.93 0 00-.534-.033c-.475.112-.772.234-.992.41-.058.047-.23.2-.33.446-.341-.163-.81-.475-1.098-.667l-.018-.012c.097-.39.01-.701-.083-.896-.52-1.1-2.245-1.013-2.585-.984-.193.016-.438.025-.697.034-.406.014-.855.03-1.3.08l.023-.064a2.379 2.379 0 012.234-1.571h.529a.93.93 0 000-1.86h-.53c-1.482 0-2.84.78-3.6 2.008l-1.388-1.944 1.365-3.309 6.02-2.11a.931.931 0 00.42-.298l2.675-3.357c6.838.65 13.274 4.484 16.962 10.872a21.71 21.71 0 012.192 5.325l-.395.352a2.485 2.485 0 00-.828 1.83l-.643-1.767a2.324 2.324 0 00-.419-.719L41.96 17.6a2.331 2.331 0 00-1.775-.818h-1.403a1.345 1.345 0 00-1.12 2.095l.141.213a10.309 10.309 0 01-3.071 1.824l-1.923-3.684v-.821a.93.93 0 00-.288-.673l-1.732-1.653a.931.931 0 00-.334-.205l-1.558-.548a.93.93 0 10-.617 1.755l1.37.482 1.299 1.24v.652c0 .15.036.297.105.43l2.408 4.612a.93.93 0 001.146.442l.701-.258a12.174 12.174 0 004.365-2.794.93.93 0 00.117-1.174l-.05-.075h.444c.14 0 .27.061.36.167l1.147 1.341a.473.473 0 01.085.146l1.265 3.478a.93.93 0 001.532.34l.602-.602c.38-.381.643-.864.769-1.399.93 7.462-1.995 15.181-8.18 20.035a.93.93 0 101.15 1.463A23.799 23.799 0 0047.55 29.5a23.795 23.795 0 00-2.741-16.507zM4.767 27.382l3.836 2.916a.93.93 0 00.385.172l2.312.452c.295.058.541.232.694.492.152.26.184.56.09.845a2.875 2.875 0 00-.002 1.796l.294.907a1.035 1.035 0 01-.663 1.302l-.925.3a.93.93 0 00-.626.71l-.744 3.884a22.196 22.196 0 01-4.238-5.285 21.835 21.835 0 01-2.702-7.748l2.29-.744zm5.422-14.839l-1.094 1.173a.933.933 0 00-.127.172l-2.485 4.339-2.21 1.58a.93.93 0 00-.227 1.28l.826 1.212c-.476.07-.903.13-1.187.16a46.966 46.966 0 00-1.157-1.041A21.989 21.989 0 019.08 8.974c.679.213 1.236.72 1.508 1.38.306.743.15 1.602-.399 2.19zm7.585 5.084c.415-.234 1.378-.268 2.081-.293.282-.01.548-.02.786-.039.126-.01.265-.009.396.002a.93.93 0 00.428 1.157c.175.093.418.255.675.427.727.485 1.551 1.034 2.325 1.083.704.046 1.096-.355 1.264-.526l.04-.04a.996.996 0 00.248-.305c.15.043.305.085.466.129.55.149 1.576.426 1.802.666.403.427.716 1.239.993 1.955.14.362.272.704.42 1.02.064.137.126.277.19.418.43.958.916 2.043 1.948 2.718.468.306 1.042.394 1.548.472l.203.031c-.3.42-.729.818-1.18 1.239-1.152 1.073-2.586 2.407-1.925 4.537.311 1.005.326 1.114-.175 1.659l-.192.206c-.43.456-.768.817-1.049 1.7-.081.258-.187.376-.378.592a4.059 4.059 0 00-.52.69c-.212.36-.282.708-.337.988-.056.275-.087.413-.195.545-.245.302-.704.74-1.174 1.039-.438.277-.693.315-.78.31-.099-.106-.459-.572-1.002-2.185-.134-.398-.32-.807-.5-1.203-.396-.873-.805-1.775-.606-2.392l.07-.213c.318-.97.619-1.887.062-3.22-.17-.407-.44-.704-.677-.966-.154-.17-.329-.361-.356-.472-.033-.135-.031-.29-.03-.47.003-.487.008-1.221-.723-1.905-1.029-.964-2.23-.667-3.024-.47-.244.06-.475.117-.679.141-1.307.153-2.474-.34-3.202-1.354-.762-1.06-.873-2.487-.289-3.723.283-.598.71-1.08 1.205-1.636.108-.121.217-.244.326-.37.181-.208.38-.492.592-.791.252-.358.721-1.024.925-1.151z" stroke="#1792D1" stroke-width=".334" mask="url(#a)"/><path d="M38.147 31.396h0l.447 1.687s0 0 0 0c.048.18.045.37-.008.549h0l-1.094 3.688c-.292.986-.62 1.734-.997 2.257-.38.524-.813.826-1.315.908h0c-.08.013-.168.021-.261.021 0 0 0 0 0 0v-.084c-.45 0-1.03-.201-1.581-.986l4.809-8.04zm0 0a1.014 1.014 0 00-.86-.747h0m.86.747l-.86-.747m-3.86 3.791l.08.025-.08-.025zm0 0c.291-.928 1.054-1.295 1.587-1.553m-1.587 1.553l1.587-1.553m2.273-2.238a1.015 1.015 0 00-1.011.524h0m1.011-.524l-1.011.524m0 0c-.104.19-.196.392-.285.584h0l.076.035m.209-.62l-.21.62m0 0l-.075-.035c-.075.162-.15.325-.226.47m.302-.435l-.302.435m-.641 4.85l.01-.022m-.01.022h0c-.176.413-.442 1.036-.264 1.29l.005.006m.259-1.296l.077.032m-.077-.032l.077.033h0m-.068-.055l-.269 1.318m.27-1.318c.283-.665.207-1.176.152-1.55h0l-.153 1.55zm-.27 1.318l.053.07a1.77 1.77 0 00.05-.072 1.81 1.81 0 01-.038-.053h0a.177.177 0 01-.014-.021 1.83 1.83 0 01-.038.057s0 0 0 0l-.013.019zm.337-1.264l.009-.02v-.001c.293-.687.214-1.217.159-1.593v-.002h0c-.036-.242-.045-.326-.007-.446h0a.136.136 0 01.038-.051.683.683 0 01.108-.08 4.52 4.52 0 01.393-.206h0l.005-.002c.09-.044.188-.09.289-.143m-.994 2.544l.994-2.544m0 0l-.647 2.178.08.024.567-2.202zm-.43-2.338a1.923 1.923 0 01-.226.354m.226-.354l-.226.354m0 0a.81.81 0 01-.2.142m.2-.142l-.2.142m0 0a5.891 5.891 0 01-.319.161m.319-.16l-.319.16m0 0l-.006.003m.006-.003l-.006.003m-9.496-20.832h0l-.063-.022s0 0 0 0a1.014 1.014 0 00-1.292.62h0a1.014 1.014 0 00.62 1.293h0l.063.022s0 0 0 0a1.015 1.015 0 001.293-.621h0a1.014 1.014 0 00-.621-1.292z" fill="#fff" stroke="#1792D1" stroke-width=".167"/></svg>