<svg width="17" height="22" fill="none" xmlns="http://www.w3.org/2000/svg"><path d="M16.963 9.283c0-.584-.698-4.935-4.974-4.974l-.066-.119 4.39-2.478A.891.891 0 0016.651.49a.91.91 0 00-1.23-.338l-4.685 2.645A5.526 5.526 0 007.221 1.54c-2.795 0-5.177 1.991-5.933 4.984 0 0-.584 2.087-.584 2.843 0 3.968 3.194 7.238 7.224 7.668v2.743H5.766a.9.9 0 00-.905.896.9.9 0 00.905.897h6.135a.9.9 0 00.905-.897.9.9 0 00-.905-.896H9.739v-2.743c4.056-.435 7.224-3.744 7.224-7.752zm-9.742-5.95c.637 0 1.243.163 1.775.449l-1.393.782c-.435.246-.593.8-.338 1.221.351.585 1.09.418 1.23.339l1.85-1.046c.101.171.185.347.255.536a.902.902 0 001.077.563c1.67-.436 3.186.72 3.274 2.21H2.729l.321-1.455c.545-2.153 2.22-3.599 4.17-3.599zm-4.64 6.851h12.506c-.457 2.883-3.09 5.102-6.253 5.102-3.169 0-5.797-2.219-6.254-5.102z" fill="#75808B"/></svg>