<svg width="21" height="22" fill="none" xmlns="http://www.w3.org/2000/svg"><path d="M20.496 19.857l-2.263-6.776V1.415a.853.853 0 00-.855-.855H3.24a.853.853 0 00-.855.855V13.08l-2.3 6.885c-.16.444.1 1.127.809 1.127H19.73c.763 0 .976-.729.767-1.236zM4.094 2.27H16.52v10.09H4.094V2.27zM2.083 19.384l1.772-5.31h12.903l1.773 5.31H2.082z" fill="#75808B"/><path d="M14.286 15.873H6.324a.853.853 0 00-.855.855c0 .473.382.854.855.854h7.962a.853.853 0 00.855-.854.859.859 0 00-.855-.855z" fill="#75808B"/></svg>