<svg width="23" height="23" fill="none" xmlns="http://www.w3.org/2000/svg"><g clip-path="url(#clip0_324_8723)" fill="#75808B"><path d="M21.229 1.47H1.927a.875.875 0 00-.876.877V21.65c0 .485.39.876.876.876H21.23a.875.875 0 00.877-.876V2.347a.875.875 0 00-.877-.876zm-.877 19.302H2.804V3.224h17.544v17.548h.004z"/><path d="M10.052 8.48h6.93a.875.875 0 00.877-.877.875.875 0 00-.876-.876h-6.931a.877.877 0 000 1.753zm0 4.395h6.93a.875.875 0 00.877-.877.875.875 0 00-.876-.876h-6.931a.875.875 0 00-.877.877c0 .485.391.876.877.876zm0 4.4h6.93a.875.875 0 00.877-.876.875.875 0 00-.876-.877h-6.931a.877.877 0 000 1.753zm-3.796 0a.877.877 0 100-1.753.877.877 0 000 1.753zm0-4.4a.877.877 0 100-1.753.877.877 0 000 1.753zm0-4.4a.877.877 0 100-1.753.877.877 0 000 1.753z"/></g><defs><clipPath id="clip0_324_8723"><path fill="#fff" transform="translate(.578 .999)" d="M0 0h22v22H0z"/></clipPath></defs></svg>