<svg width="14" height="13" fill="none" xmlns="http://www.w3.org/2000/svg"><g clip-path="url(#clip0_324_5195)" fill="#75808B"><path d="M5.48 10.062c.37 0 .74-.147.74-.44V7.65h.941c1.311 0 2.337-.585 2.337-2.121v-.046c0-1.535-.988-2.102-2.242-2.102H5.29c-.332 0-.55.2-.55.43v5.813c0 .292.37.439.74.439zm.74-5.439h.941c.532 0 .855.292.855.914v.1c0 .622-.323.915-.855.915h-.94V4.623z"/><path d="M13.156 0H.7a.518.518 0 00-.528.508v11.984c0 .28.236.508.528.508h12.457a.518.518 0 00.527-.508V.508A.518.518 0 0013.157 0zm-.527 11.984H1.228V1.016h11.4v10.968z"/></g><defs><clipPath id="clip0_324_5195"><path fill="#fff" transform="translate(.172)" d="M0 0h13.512v13H0z"/></clipPath></defs></svg>