<svg width="15" height="14" fill="none" xmlns="http://www.w3.org/2000/svg"><g clip-path="url(#clip0_324_5218)" fill="#75808B"><path d="M3.263 4.914h8.03c.32 0 .579-.249.579-.558a.568.568 0 00-.58-.558h-.318c-.299-1.22-1.53-2.441-3.12-2.685a.573.573 0 00-.575-.49.57.57 0 00-.574.488c-1.592.243-2.822 1.465-3.12 2.685h-.32a.568.568 0 00-.579.557.568.568 0 00.577.561zm4.016-2.729c1.177 0 2.166.788 2.493 1.613H4.786c.327-.825 1.316-1.613 2.493-1.613zm6.383 5.387c.321 0 .58-.249.58-.558a.568.568 0 00-.58-.558H.895a.568.568 0 00-.58.558c0 .309.259.558.58.558h1.168v2.89c-.762.235-1.316.927-1.316 1.736 0 1.007.85 1.824 1.899 1.824 1.046 0 1.895-.817 1.895-1.824 0-.812-.554-1.5-1.315-1.736v-2.89h8.108v2.89c-.761.235-1.316.927-1.316 1.736 0 1.007.85 1.824 1.896 1.824 1.046 0 1.899-.817 1.899-1.824 0-.812-.555-1.5-1.316-1.736v-2.89h1.165zm-11.02 5.335a.723.723 0 01-.735-.709c0-.39.33-.708.736-.708.406 0 .736.317.736.708 0 .389-.33.709-.736.709zm9.272 0a.724.724 0 01-.736-.709c0-.39.33-.708.736-.708.406 0 .736.317.736.708 0 .389-.33.709-.736.709z"/></g><defs><clipPath id="clip0_324_5218"><path fill="#fff" d="M0 0h14.552v14H0z"/></clipPath></defs></svg>