<svg width="23" height="21" fill="none" xmlns="http://www.w3.org/2000/svg"><path d="M19.25.973H4.28a3.406 3.406 0 00-3.4 3.402v9.185a3.406 3.406 0 003.402 3.402h.68a.85.85 0 000-1.7h-.68A1.703 1.703 0 012.58 13.56V7.187h18.37v2.126a.85.85 0 001.701 0V4.375A3.406 3.406 0 0019.25.973zm1.7 4.513H2.58v-1.11c0-.939.763-1.702 1.7-1.702h14.97c.937 0 1.7.763 1.7 1.701v1.11z" fill="#75808B"/><path d="M19.91 11.902h-2.656c-.957 0-1.792.564-2.127 1.438-.045.116-.1.263-.157.434H9.401a.85.85 0 00-.61.258L7.33 15.535a.85.85 0 00.003 1.189l1.488 1.514a.85.85 0 00.607.255h2.764a.85.85 0 000-1.701H9.785l-.656-.668.631-.65h5.847a.85.85 0 00.826-.649c.069-.28.155-.55.28-.876.083-.214.29-.347.542-.347h2.654c.24 0 .448.13.54.338.228.51.501 1.301.503 2.168.002.873-.27 1.682-.499 2.206a.58.58 0 01-.532.349h-.002l-2.686-.007a.594.594 0 01-.548-.37 5.65 5.65 0 01-.264-.842.85.85 0 00-1.654.396c.099.413.212.77.345 1.095a2.29 2.29 0 002.117 1.422l2.687.007h.005a2.28 2.28 0 002.091-1.37c.294-.674.644-1.722.641-2.89-.003-1.165-.355-2.197-.65-2.859a2.292 2.292 0 00-2.092-1.344z" fill="#75808B"/><path d="M19.207 16.963a.85.85 0 100-1.701.85.85 0 000 1.7z" fill="#75808B"/></svg>