<svg width="22" height="22" fill="none" xmlns="http://www.w3.org/2000/svg"><path d="M21.102.048h-3.238a.898.898 0 00-.838.58l-4.418 11.705H4.045L2.5 5.216h8.6a.892.892 0 00.894-.894.893.893 0 00-.895-.895H1.39c-.877 0-.934.82-.877 1.083l1.93 8.91a.893.893 0 00.878.707h9.902a.898.898 0 00.838-.58l4.422-11.709h2.62a.896.896 0 000-1.79zM4.682 15.562a3 3 0 00-3.001 2.992 3 3 0 003 2.992 3 3 0 003.002-2.992 3 3 0 00-3.001-2.992zm0 4.194c-.667 0-1.211-.54-1.211-1.198 0-.663.544-1.198 1.21-1.198.668 0 1.207.54 1.207 1.198 0 .658-.54 1.198-1.206 1.198zm7.108-4.194a3 3 0 00-3 2.992 3 3 0 003 2.992 3 3 0 003.001-2.992 3 3 0 00-3-2.992zm0 4.194c-.666 0-1.21-.54-1.21-1.198 0-.663.544-1.198 1.21-1.198.667 0 1.207.54 1.207 1.198 0 .658-.54 1.198-1.207 1.198z" fill="#75808B"/></svg>