<svg width="23" height="24" fill="none" xmlns="http://www.w3.org/2000/svg"><path d="M19.512 7.662l.005.006-.005-.006zM5.405 11.41a2.392 2.392 0 00-1.753-.77c-.66 0-1.282.272-1.749.766-.934.986-.964 2.572-.09 3.598a2.51 2.51 0 00-.663.516c-.945 1.027-.934 2.688.023 3.699l1.243 1.322-.855.903a.95.95 0 000 1.29.831.831 0 001.22.001l.853-.9 1.235 1.314a2.45 2.45 0 001.767.772 2.41 2.41 0 001.783-.799 2.59 2.59 0 00.415-.606 2.396 2.396 0 001.7.715 2.4 2.4 0 001.75-.765c.964-1.019.964-2.677.002-3.697l-6.88-7.36zm1.776 10.44a.739.739 0 01-1.09.01l-3.695-3.93a.847.847 0 01-.008-1.137.741.741 0 01.544-.246h.006c.18 0 .351.066.487.185l3.855 4.124a.85.85 0 01-.1.994zm3.882-.675a.72.72 0 01-1.056.002l-6.883-7.364a.823.823 0 010-1.117.722.722 0 011.055-.001l6.88 7.36.004.003a.823.823 0 010 1.117zM12.5 3.197c.2 0 .388.082.531.234l5.265 5.524a2.418 2.418 0 001.763.767c.627 0 1.256-.247 1.737-.741a2.71 2.71 0 00.74-2.189 2.707 2.707 0 00-.717-1.566l-1.24-1.304.85-.901a.95.95 0 000-1.291.83.83 0 00-1.22 0l-.855.904-1.248-1.312a2.407 2.407 0 00-3.5-.026 2.635 2.635 0 00-.493.708 2.378 2.378 0 00-1.612-.633c-.661 0-1.282.272-1.75.766a2.676 2.676 0 00-.724 1.85c0 .699.257 1.355.723 1.847l2.78 2.959-4.152 4.4a.95.95 0 00.002 1.292c.169.177.39.266.61.266a.84.84 0 00.611-.268l4.146-4.395 2.842 3.023a2.392 2.392 0 001.75.766 2.39 2.39 0 001.748-.766.95.95 0 000-1.29.83.83 0 00-1.22 0 .722.722 0 01-1.055.001l-6.84-7.277a.808.808 0 01-.218-.558c0-.211.077-.41.218-.559a.722.722 0 01.529-.23zm3.309-.592a.741.741 0 011.077.01L20.6 6.518a.822.822 0 01.22.48.834.834 0 01-.228.674.74.74 0 01-1.077-.01L15.8 3.758a.828.828 0 01-.224-.578.827.827 0 01.232-.575z" fill="#75808B"/></svg>