<svg width="71" height="12" fill="none" xmlns="http://www.w3.org/2000/svg"><path d="M6.237 0l1.4 4.146h4.53L8.503 6.708l1.4 4.146-3.665-2.562-3.666 2.562 1.4-4.146L.305 4.146h4.531L6.236 0zm14.551 0l1.4 4.146h4.532l-3.666 2.562 1.4 4.146-3.666-2.562-3.665 2.562 1.4-4.146-3.666-2.562h4.531L20.788 0zm14.553 0l1.4 4.146h4.531l-3.665 2.562 1.4 4.146-3.666-2.562-3.666 2.562 1.4-4.146-3.665-2.562h4.53L35.342 0z" fill="#FF8310"/><path d="M49.893 0l1.4 4.146h4.531l-3.666 2.562 1.4 4.146-3.665-2.562-3.666 2.562 1.4-4.146-3.666-2.562h4.532L49.893 0zm14.552 0l1.4 4.146h4.532L66.71 6.708l1.4 4.146-3.666-2.562-3.665 2.562 1.4-4.146-3.666-2.562h4.531L64.445 0z" fill="#E0E3E6"/></svg>