<svg width="23" height="24" fill="none" xmlns="http://www.w3.org/2000/svg"><path d="M22.326 19.693a.84.84 0 00-1.21.231c-1.1 1.678-4.307 1.679-5.409 0a.857.857 0 00-.714-.395.856.856 0 00-.714.395c-1.101 1.678-4.308 1.679-5.41 0a.856.856 0 00-.714-.395.856.856 0 00-.714.395c-1.101 1.678-4.307 1.679-5.41 0a.84.84 0 00-1.209-.23.953.953 0 00-.218 1.278c1.595 2.43 5.453 2.694 7.551.825 1.845 1.643 5.014 1.624 6.838 0 2.097 1.868 5.957 1.604 7.552-.825a.953.953 0 00-.219-1.279zM4.707 14.475c.48 0 .87-.412.87-.92v-1.378h7.822v1.379c0 .507.39.919.87.919s.869-.412.869-.92V3.54c0-.709.545-1.286 1.216-1.286.671 0 1.217.577 1.217 1.286 0 .508.39.92.87.92s.869-.412.869-.92c0-1.722-1.326-3.124-2.955-3.124-1.63 0-2.956 1.402-2.956 3.124v2.665H5.576V3.54c0-.709.546-1.286 1.217-1.286S8.01 2.83 8.01 3.539c0 .508.39.92.87.92s.869-.412.869-.92c0-1.722-1.326-3.124-2.956-3.124S3.838 1.817 3.838 3.539v10.017c0 .507.39.919.87.919zm.87-6.433h7.822v2.297H5.576V8.042zm2.578 9.621c.876.779 2.09 1.224 3.42 1.224s2.543-.445 3.418-1.224c2.098 1.868 5.957 1.603 7.552-.825a.952.952 0 00-.219-1.28.84.84 0 00-1.21.232c-1.1 1.677-4.307 1.678-5.409 0a.857.857 0 00-.714-.395.856.856 0 00-.714.395c-1.101 1.677-4.308 1.678-5.41 0a.857.857 0 00-.714-.395.856.856 0 00-.714.395c-1.101 1.678-4.307 1.678-5.41 0a.84.84 0 00-1.209-.231.953.953 0 00-.218 1.279c1.595 2.43 5.453 2.693 7.551.825z" fill="#75808B"/></svg>