<svg width="14" height="13" fill="none" xmlns="http://www.w3.org/2000/svg"><g clip-path="url(#clip0_324_5231)" fill="#75808B"><path d="M10.451 9.166c.364 0 .66-.284.66-.635a.648.648 0 00-.66-.635.648.648 0 00-.66.635c0 .35.296.635.66.635zm-7.39 0c.365 0 .66-.284.66-.635a.648.648 0 00-.66-.635.648.648 0 00-.66.635c0 .35.296.635.66.635z"/><path d="M11.929 5.992h-.017l-1.024-3.686a.525.525 0 00-.51-.376h-.983V.508A.518.518 0 008.868 0H4.645a.518.518 0 00-.528.508V1.93h-.983a.525.525 0 00-.51.376L1.6 5.992h-.017C.71 5.992 0 6.676 0 7.516v2.03c0 .84.71 1.524 1.583 1.524h.423v1.422c0 .28.236.508.528.508h2.005a.518.518 0 00.528-.508V11.07h3.378v1.422c0 .28.237.508.528.508h2.006a.518.518 0 00.528-.508V11.07h.422c.873 0 1.583-.683 1.583-1.523V7.516c0-.84-.71-1.524-1.583-1.524zM5.173 1.016H8.34v.914H5.173v-.914zm-1.634 1.93h6.434l.846 3.046H2.693l.846-3.047zm.473 9.038h-.95v-.914h.95v.914zm6.44 0H9.5v-.914h.95v.914zm2.005-2.437c0 .28-.237.508-.528.508H1.584a.519.519 0 01-.528-.508V7.516c0-.28.236-.508.527-.508H11.93c.291 0 .528.228.528.508v2.03z"/></g><defs><clipPath id="clip0_324_5231"><path fill="#fff" d="M0 0h13.512v13H0z"/></clipPath></defs></svg>