<svg width="23" height="25" fill="none" xmlns="http://www.w3.org/2000/svg"><path d="M6.773 7.54a.86.86 0 00.632.281h2.882c.49 0 .887-.42.887-.937 0-.518-.397-.938-.886-.938H7.776l-.684-.736.659-.718h6.097c.408 0 .764-.295.861-.714.072-.31.162-.608.292-.966a.582.582 0 01.567-.383h2.766c.25.001.466.144.563.372.238.564.523 1.435.525 2.39.002.963-.282 1.855-.52 2.434a.605.605 0 01-.556.384h-.001l-2.802-.007a.62.62 0 01-.572-.408 6.495 6.495 0 01-.274-.929c-.114-.503-.593-.814-1.07-.693-.476.12-.77.626-.655 1.13.103.455.22.85.36 1.207.37.95 1.237 1.566 2.207 1.568l2.802.007h.005c.947 0 1.803-.592 2.181-1.51.307-.743.671-1.899.669-3.186-.003-1.285-.371-2.423-.68-3.152-.379-.898-1.234-1.48-2.18-1.482h-2.772c-.998 0-1.868.622-2.218 1.585-.047.128-.104.29-.163.478H7.377c-.24 0-.47.103-.637.285L5.217 4.56a.977.977 0 00.003 1.31l1.553 1.67zm13.579 8.746l-3.025-1.19-5.318-4.266a2.583 2.583 0 00-1.608-.572H4.168c-.826 0-1.59.396-2.099 1.085a.949.949 0 00-.11.193l-1.403 3.32A7.046 7.046 0 000 17.615v2.252c0 1.55 1.194 2.813 2.66 2.813h.818c.367 1.091 1.352 1.875 2.509 1.875 1.156 0 2.142-.784 2.508-1.875h2.237c.49 0 .887-.42.887-.938s-.397-.938-.887-.938H8.495c-.366-1.091-1.352-1.875-2.508-1.875-1.157 0-2.142.784-2.509 1.875h-.817c-.49 0-.887-.42-.887-.937v-2.252c0-.205.012-.408.036-.608h15.152a.847.847 0 00.111-.008l2.662 1.046.004.002c.711.275 1.201 1.018 1.192 1.808v.948h-1.926c-.366-1.091-1.352-1.875-2.508-1.875-1.468 0-2.661 1.262-2.661 2.813 0 1.551 1.193 2.813 2.66 2.813 1.157 0 2.143-.784 2.509-1.875h2.813c.49 0 .887-.42.887-.938v-1.87c.016-1.593-.93-3.033-2.353-3.585zM5.987 20.803c.489 0 .887.421.887.938 0 .517-.398.938-.887.938-.49 0-.887-.42-.887-.938 0-.517.398-.938.887-.938zm.133-5.673H2.383l1.144-2.707a.858.858 0 01.642-.29h1.95v2.997zm1.774 0v-2.996H10.4a.86.86 0 01.536.19l3.498 2.806h-6.54zm8.603 7.549c-.49 0-.887-.42-.887-.938 0-.517.398-.938.887-.938s.887.421.887.938c0 .517-.398.938-.887.938z" fill="#75808B"/><path d="M17.603 6.132c.49 0 .887-.42.887-.938 0-.517-.397-.937-.887-.937s-.887.42-.887.937c0 .518.397.938.887.938z" fill="#75808B"/></svg>