<svg width="23" height="21" fill="none" xmlns="http://www.w3.org/2000/svg"><path d="M21.237.736H1.488c-.497 0-.897.431-.897.961v18.008c0 .53.4.962.897.962h19.75c.496 0 .896-.432.896-.962V1.698c0-.53-.404-.961-.897-.961zm-.9 12.385h-6.182c-1.245 0-2.256-1.088-2.256-2.42 0-1.336 1.011-2.42 2.256-2.42h6.185v4.84h-.004zM2.384 18.74V2.663h17.951v3.691h-6.181c-2.234 0-4.054 1.951-4.054 4.347 0 2.397 1.816 4.348 4.054 4.348h6.185v3.69H2.386z" fill="#75808B"/><path d="M13.71 10.697v.014c0 .53.4.957.896.957.497 0 .897-.436.897-.971 0-.53-.4-.961-.897-.961-.496-.005-.896.426-.896.961z" fill="#75808B"/></svg>