<svg width="24" height="25" fill="none" xmlns="http://www.w3.org/2000/svg"><path d="M12.29 18.028c.615 0 1.114-.527 1.114-1.178 0-.651-.499-1.179-1.114-1.179-.616 0-1.115.528-1.115 1.179 0 .65.5 1.178 1.115 1.178zm0-6.378c-1.16 0-2.25.478-3.07 1.347a.981.981 0 000 1.333.858.858 0 001.261 0 2.473 2.473 0 011.809-.795c.682 0 1.324.282 1.808.794a.858.858 0 001.26 0 .981.981 0 00.001-1.332c-.82-.869-1.91-1.347-3.07-1.347z" fill="#75808B"/><path d="M12.287.65C5.98.65.875 6.048.875 12.716c0 6.67 5.105 12.066 11.412 12.066 6.309 0 11.413-5.397 11.413-12.066C23.7 6.047 18.595.65 12.288.65zm0 22.247c-5.322 0-9.629-4.554-9.629-10.18 0-5.628 4.308-10.181 9.63-10.181 5.322 0 9.629 4.554 9.629 10.18 0 5.628-4.308 10.181-9.63 10.181z" fill="#75808B"/><path d="M12.288 8.001c-2.083 0-4.04.857-5.512 2.414a.981.981 0 000 1.333.858.858 0 001.262 0c1.134-1.2 2.644-1.862 4.25-1.862 1.606 0 3.115.661 4.25 1.862a.858.858 0 001.26 0 .981.981 0 00.001-1.333C16.328 8.858 14.37 8 12.288 8z" fill="#75808B"/></svg>